<?xml version="1.0" encoding="UTF-8" standalone="no"?>
<svg
   width="108mm"
   height="76mm"
   viewBox="-54 -38 108 76"
   version="1.1"
   id="svg1"
   sodipodi:docname="logoND_full_transparent.svg"
   inkscape:version="1.4.3 (0d15f75, 2025-12-25)"
   xmlns:inkscape="http://www.inkscape.org/namespaces/inkscape"
   xmlns:sodipodi="http://sodipodi.sourceforge.net/DTD/sodipodi-0.dtd"
   xmlns="http://www.w3.org/2000/svg"
   xmlns:svg="http://www.w3.org/2000/svg">
  <defs
     id="defs1" />
  <sodipodi:namedview
     id="namedview1"
     pagecolor="#ffffff"
     bordercolor="#000000"
     borderopacity="0.25"
     inkscape:showpageshadow="2"
     inkscape:pageopacity="0.0"
     inkscape:pagecheckerboard="0"
     inkscape:deskcolor="#d1d1d1"
     inkscape:document-units="mm"
     inkscape:export-bgcolor="#00000000"
     inkscape:zoom="2.2106634"
     inkscape:cx="204.23734"
     inkscape:cy="143.62205"
     inkscape:window-width="1600"
     inkscape:window-height="837"
     inkscape:window-x="-8"
     inkscape:window-y="-8"
     inkscape:window-maximized="1"
     inkscape:current-layer="svg1" />
  <title
     id="title1">OpenSCAD Model</title>
  <path
     d=" M 3.39069,37.7254 L 6.76799,37.5019 L 10.1186,37.1304 L 13.4292,36.6124 L 16.6869,35.9499 L 19.8787,35.1455  L 22.9921,34.2025 L 26.0147,33.1244 L 28.9346,31.9156 L 31.7404,30.5808 L 34.4209,29.1254 L 36.9655,27.555  L 39.3643,25.8759 L 41.6077,24.0946 L 43.6869,22.2183 L 45.5937,20.2542 L 47.3206,18.2103 L 48.8607,16.0945  L 50.2079,13.9151 L 51.357,11.6808 L 52.3035,9.40047 L 53.0435,7.08301 L 53.5742,4.73759 L 53.8934,2.37347  L 54,-0 L 53.8934,-2.37347 L 53.5742,-4.73759 L 53.0435,-7.08301 L 52.3035,-9.40047 L 51.357,-11.6808  L 50.2079,-13.9151 L 48.8607,-16.0945 L 47.3206,-18.2103 L 45.5937,-20.2542 L 43.6869,-22.2183 L 41.6077,-24.0946  L 39.3643,-25.8759 L 36.9655,-27.555 L 34.4209,-29.1254 L 31.7404,-30.5808 L 28.9346,-31.9156 L 26.0147,-33.1244  L 22.9921,-34.2025 L 19.8787,-35.1455 L 16.6869,-35.9499 L 13.4292,-36.6124 L 10.1186,-37.1304 L 6.76799,-37.5019  L 3.39069,-37.7254 L 0,-37.8 L -3.39069,-37.7254 L -6.76799,-37.5019 L -10.1186,-37.1304 L -13.4292,-36.6124  L -16.6869,-35.9499 L -19.8787,-35.1455 L -22.9921,-34.2025 L -26.0147,-33.1244 L -28.9346,-31.9156 L -31.7404,-30.5808  L -34.4209,-29.1254 L -36.9655,-27.555 L -39.3643,-25.8759 L -41.6077,-24.0946 L -43.6869,-22.2183 L -45.5937,-20.2542  L -47.3206,-18.2103 L -48.8607,-16.0945 L -50.2079,-13.9151 L -51.357,-11.6808 L -52.3035,-9.40047 L -53.0435,-7.08301  L -53.5742,-4.73759 L -53.8934,-2.37347 L -54,-0 L -53.8934,2.37347 L -53.5742,4.73759 L -53.0435,7.08301  L -52.3035,9.40047 L -51.357,11.6808 L -50.2079,13.9151 L -48.8607,16.0945 L -47.3206,18.2103 L -45.5937,20.2542  L -43.6869,22.2183 L -41.6077,24.0946 L -39.3643,25.8759 L -36.9655,27.555 L -34.4209,29.1254 L -31.7404,30.5808  L -28.9346,31.9156 L -26.0147,33.1244 L -22.9921,34.2025 L -19.8787,35.1455 L -16.6869,35.9499 L -13.4292,36.6124  L -10.1186,37.1304 L -6.76799,37.5019 L -3.39069,37.7254 L 0,37.8 z M -3.26511,36.3282 L -6.51732,36.113 L -9.74382,35.7552 L -12.9319,35.2564 L -16.0689,34.6185 L -19.1425,33.8439  L -22.1405,32.9357 L -25.0512,31.8976 L -27.863,30.7335 L -30.5648,29.4482 L -33.146,28.0467 L -35.5964,26.5345  L -37.9064,24.9175 L -40.0667,23.2022 L -42.0689,21.3954 L -43.905,19.5041 L -45.5679,17.5358 L -47.051,15.4984  L -48.3484,13.3997 L -49.4549,11.2482 L -50.3663,9.05231 L -51.0789,6.82068 L -51.59,4.56212 L -51.8974,2.28557  L -52,-0 L -51.8974,-2.28557 L -51.59,-4.56212 L -51.0789,-6.82068 L -50.3663,-9.05231 L -49.4549,-11.2482  L -48.3484,-13.3997 L -47.051,-15.4984 L -45.5679,-17.5358 L -43.905,-19.5041 L -42.0689,-21.3954 L -40.0667,-23.2022  L -37.9064,-24.9175 L -35.5964,-26.5345 L -33.146,-28.0467 L -30.5648,-29.4482 L -27.863,-30.7335 L -25.0512,-31.8976  L -22.1405,-32.9357 L -19.1425,-33.8439 L -16.0689,-34.6185 L -12.9319,-35.2564 L -9.74382,-35.7552 L -6.51732,-36.113  L -3.26511,-36.3282 L 0,-36.4 L 3.26511,-36.3282 L 6.51732,-36.113 L 9.74382,-35.7552 L 12.9319,-35.2564  L 16.0689,-34.6185 L 19.1425,-33.8439 L 22.1405,-32.9357 L 25.0512,-31.8976 L 27.863,-30.7335 L 30.5648,-29.4482  L 33.146,-28.0467 L 35.5964,-26.5345 L 37.9064,-24.9175 L 40.0667,-23.2022 L 42.0689,-21.3954 L 43.905,-19.5041  L 45.5679,-17.5358 L 47.051,-15.4984 L 48.3484,-13.3997 L 49.4549,-11.2482 L 50.3663,-9.05231 L 51.0789,-6.82068  L 51.59,-4.56212 L 51.8974,-2.28557 L 52,-0 L 51.8974,2.28557 L 51.59,4.56212 L 51.0789,6.82068  L 50.3663,9.05231 L 49.4549,11.2482 L 48.3484,13.3997 L 47.051,15.4984 L 45.5679,17.5358 L 43.905,19.5041  L 42.0689,21.3954 L 40.0667,23.2022 L 37.9064,24.9175 L 35.5964,26.5345 L 33.146,28.0467 L 30.5648,29.4482  L 27.863,30.7335 L 25.0512,31.8976 L 22.1405,32.9357 L 19.1425,33.8439 L 16.0689,34.6185 L 12.9319,35.2564  L 9.74382,35.7552 L 6.51732,36.113 L 3.26511,36.3282 L 0,36.4 z M 0.294754,-24.7152 L 1.00217,-24.9391 L 1.61037,-25.3121 L 2.11934,-25.8344 L 2.52132,-26.4965 L 2.80846,-27.2891  L 2.98073,-28.2121 L 3.03815,-29.2656 L 2.98268,-30.248 L 2.81625,-31.1078 L 2.53889,-31.8449 L 2.15057,-32.4594  L 1.65918,-32.9434 L 1.07246,-33.2891 L 0.390442,-33.4965 L -0.386871,-33.5656 L -2.61185,-33.5656 L -2.61185,-24.6406  L -0.511887,-24.6406 z M -0.899338,-26.1407 L -0.899338,-32.0781 L -0.411896,-32.0781 L -0.0189056,-32.0348 L 0.322495,-31.9047 L 0.612335,-31.6879  L 0.850616,-31.3843 L 1.03654,-30.9871 L 1.16934,-30.489 L 1.24902,-29.8902 L 1.27559,-29.1907 L 1.24825,-28.4656  L 1.16621,-27.8406 L 1.02951,-27.3156 L 0.838104,-26.8906 L 0.588882,-26.5625 L 0.278732,-26.3282 L -0.0923462,-26.1875  L -0.524399,-26.1407 z M 7.33139,-25.0614 L 6.55026,-25.5008 L 7.25713,-31.8364 L 8.11588,-32.0928 L 8.21844,-33.0121 L 4.87671,-33.3849  L 4.77414,-32.4656 L 5.55518,-32.0263 L 4.84831,-25.6906 L 3.98965,-25.4343 L 3.88708,-24.5149 L 7.22882,-24.1421  z M 16.1084,-31.4023 L 14.3771,-31.7935 L 12.206,-27.1195 L 12.1423,-26.981 L 12.0754,-26.8319 L 12.0053,-26.6723  L 11.932,-26.5022 L 11.8581,-26.3275 L 11.786,-26.154 L 11.7159,-25.9817 L 11.6475,-25.8105 L 11.5825,-25.6449  L 11.5222,-25.4896 L 11.4666,-25.3444 L 11.4156,-25.2093 L 11.4332,-25.3523 L 11.4494,-25.5076 L 11.4644,-25.6752  L 11.4783,-25.8551 L 11.4908,-26.0417 L 11.502,-26.2294 L 11.5118,-26.4182 L 11.5203,-26.6081 L 11.527,-26.7924  L 11.5319,-26.9643 L 11.5347,-27.1239 L 11.5355,-27.271 L 11.5972,-32.4216 L 9.85362,-32.8156 L 10.0446,-23.6224  L 11.9711,-23.1871 z M -12.2798,-23.1174 L -12.3026,-25.3165 L -10.364,-25.7545 L -9.43898,-23.7593 L -7.65884,-24.1615 L -11.7719,-32.3822  L -13.9299,-31.8945 L -14.0722,-22.7124 z M -12.4373,-29.2587 L -12.4475,-29.6937 L -12.4681,-30.104 L -12.4991,-30.4894 L -12.5406,-30.8501 L -12.4078,-30.5036  L -12.2641,-30.1372 L -12.1096,-29.7508 L -11.944,-29.3445 L -10.9479,-27.1476 L -12.3744,-26.8252 z M -15.2439,-22.2539 L -16.0616,-31.4156 L -17.7389,-30.8349 L -17.1183,-25.7188 L -17.0994,-25.5674 L -17.0776,-25.4055  L -17.053,-25.233 L -17.0255,-25.0498 L -16.9962,-24.8624 L -16.9659,-24.677 L -16.9346,-24.4935 L -16.9024,-24.312  L -16.8703,-24.1371 L -16.8396,-23.9733 L -16.8103,-23.8206 L -16.7823,-23.679 L -16.8429,-23.8097 L -16.911,-23.9502  L -16.9866,-24.1006 L -17.0697,-24.2607 L -17.1575,-24.4258 L -17.247,-24.5912 L -17.3383,-24.7568 L -17.4312,-24.9226  L -17.5226,-25.0828 L -17.6092,-25.2314 L -17.691,-25.3684 L -17.7679,-25.4939 L -20.432,-29.9024 L -22.1211,-29.3175  L -17.1102,-21.6077 z M 18.8137,-22.592 L 16.6403,-23.3446 L 17.4297,-25.6242 L 19.4495,-24.9248 L 19.928,-26.3068 L 17.9082,-27.0062  L 18.5953,-28.9907 L 20.7687,-28.2381 L 21.2472,-29.6201 L 17.4556,-30.933 L 14.5354,-22.4992 L 18.327,-21.1864  z M 24.3062,-22.7544 L 24.6763,-22.813 L 25.0167,-22.9127 L 25.3273,-23.0534 L 25.608,-23.2351 L 25.8629,-23.4586  L 26.0955,-23.7246 L 26.3061,-24.0332 L 26.4945,-24.3844 L 26.8155,-25.4854 L 26.6659,-26.4522 L 26.0457,-27.2849  L 24.9549,-27.9835 L 23.0816,-28.8756 L 19.2442,-20.8177 L 20.7903,-20.0813 L 22.2952,-23.2413 L 22.7579,-23.021  L 22.5734,-19.2322 L 24.2775,-18.4207 z M 23.2254,-24.2936 L 22.8756,-24.4602 L 24.0043,-26.8302 L 24.3203,-26.6797 L 24.7613,-26.3848 L 25.0011,-26.0162  L 25.0397,-25.5739 L 24.877,-25.0578 L 24.548,-24.536 L 24.1631,-24.2347 L 23.7222,-24.1539 z M -19.3514,-20.7666 L -19.991,-22.1096 L -22.0675,-21.1208 L -23.1047,-23.2988 L -21.1749,-24.2178 L -21.8037,-25.5383  L -23.7335,-24.6192 L -24.6364,-26.5153 L -22.5599,-27.5042 L -23.1888,-28.8246 L -26.8114,-27.0994 L -22.974,-19.0414  z M -27.3676,-16.4386 L -29.5497,-19.9538 L -29.6575,-20.1251 L -29.7763,-20.3098 L -29.9061,-20.5078 L -30.047,-20.7192  L -30.1998,-20.9424 L -30.3656,-21.1761 L -30.5442,-21.4202 L -30.7357,-21.6747 L -30.6933,-21.701 L -25.1905,-17.7901  L -23.4807,-18.8515 L -28.1879,-26.4342 L -29.5579,-25.5838 L -27.4152,-22.1322 L -27.3078,-21.9621 L -27.1899,-21.7811  L -27.0615,-21.5891 L -26.9226,-21.3861 L -26.7739,-21.1717 L -26.616,-20.9456 L -26.449,-20.7077 L -26.2728,-20.458  L -26.3153,-20.4316 L -31.735,-24.2323 L -33.4342,-23.1775 L -28.727,-15.5947 z M 27.644,-16.7509 L 27.9706,-16.8135 L 28.2871,-16.9219 L 28.5934,-17.0761 L 28.8834,-17.2735 L 29.1508,-17.5117  L 29.3956,-17.7905 L 29.6179,-18.11 L 29.8196,-18.4846 L 29.9566,-18.8542 L 30.029,-19.2189 L 30.0367,-19.5787  L 29.9868,-19.9449 L 29.8862,-20.3287 L 29.735,-20.7302 L 29.5331,-21.1493 L 29.4043,-21.3989 L 29.2953,-21.6224  L 29.2059,-21.82 L 29.1363,-21.9914 L 29.0861,-22.1454 L 29.0551,-22.2901 L 29.0432,-22.4258 L 29.0505,-22.5523  L 29.0755,-22.6756 L 29.117,-22.8016 L 29.1748,-22.9303 L 29.249,-23.0617 L 29.3555,-23.2066 L 29.4773,-23.3228  L 29.6143,-23.4101 L 29.7665,-23.4687 L 29.9296,-23.493 L 30.0992,-23.4774 L 30.2753,-23.4219 L 30.458,-23.3265  L 30.7457,-23.1101 L 31.0143,-22.8303 L 31.2637,-22.4869 L 31.4939,-22.0801 L 32.6952,-23.1147 L 32.5546,-23.3541  L 32.4021,-23.5816 L 32.2375,-23.7973 L 32.0611,-24.0011 L 31.8722,-24.1924 L 31.6706,-24.3705 L 31.4561,-24.5353  L 31.2289,-24.687 L 30.7271,-24.9539 L 30.2344,-25.1112 L 29.7509,-25.1589 L 29.2766,-25.097 L 28.8288,-24.9341  L 28.4247,-24.6787 L 28.0645,-24.3309 L 27.7479,-23.8906 L 27.5819,-23.5987 L 27.453,-23.3178 L 27.3613,-23.0478  L 27.3066,-22.7888 L 27.2843,-22.5365 L 27.2892,-22.2866 L 27.3212,-22.0391 L 27.3806,-21.794 L 27.462,-21.5466  L 27.5603,-21.2925 L 27.6756,-21.0315 L 27.8078,-20.7637 L 27.9335,-20.5211 L 28.0374,-20.3012 L 28.1196,-20.104  L 28.1799,-19.9296 L 28.2209,-19.7717 L 28.2445,-19.6246 L 28.2509,-19.4883 L 28.24,-19.3626 L 28.2134,-19.2421  L 28.1728,-19.1211 L 28.1181,-18.9996 L 28.0493,-18.8777 L 27.9319,-18.7175 L 27.7973,-18.5873 L 27.6454,-18.4871  L 27.4763,-18.4169 L 27.2949,-18.3846 L 27.1062,-18.3983 L 26.9102,-18.458 L 26.7068,-18.5636 L 26.5172,-18.6936  L 26.3308,-18.8466 L 26.1475,-19.0225 L 25.9674,-19.2212 L 25.7956,-19.4377 L 25.6373,-19.667 L 25.4924,-19.9091  L 25.3609,-20.164 L 24.438,-18.6773 L 24.5881,-18.4346 L 24.748,-18.2108 L 24.9177,-18.0057 L 25.0972,-17.8194  L 25.2884,-17.6459 L 25.4932,-17.4797 L 25.7117,-17.3206 L 25.9438,-17.1687 L 26.2839,-16.9833 L 26.6245,-16.8491  L 26.9656,-16.7661 L 27.3072,-16.7343 z M 2.07208,21.737 L 4.13599,21.6082 L 6.18358,21.3942 L 8.20676,21.0957 L 10.1976,20.714 L 12.1481,20.2505  L 14.0507,19.7071 L 15.8979,19.086 L 17.6823,18.3895 L 19.3969,17.6204 L 21.035,16.7818 L 22.59,15.8769  L 24.056,14.9094 L 25.4269,13.8831 L 26.6976,12.802 L 27.8628,11.6703 L 28.9181,10.4926 L 29.8593,9.27347  L 30.6826,8.01775 L 31.3849,6.73038 L 31.9632,5.41646 L 32.4155,4.08116 L 32.7398,2.72975 L 32.9349,1.36757  L 33,-0 L 32.9349,-1.36757 L 32.7398,-2.72975 L 32.4155,-4.08116 L 31.9632,-5.41646 L 31.3849,-6.73038  L 30.6826,-8.01775 L 29.8593,-9.27347 L 28.9181,-10.4926 L 27.8628,-11.6703 L 26.6976,-12.802 L 25.4269,-13.8831  L 24.056,-14.9094 L 22.59,-15.8769 L 21.035,-16.7818 L 19.3969,-17.6204 L 17.6823,-18.3895 L 15.8979,-19.086  L 14.0507,-19.7071 L 12.1481,-20.2505 L 10.1976,-20.714 L 8.20676,-21.0957 L 6.18358,-21.3942 L 4.13599,-21.6082  L 2.07208,-21.737 L 0,-21.78 L -2.07208,-21.737 L -4.13599,-21.6082 L -6.18358,-21.3942 L -8.20676,-21.0957  L -10.1976,-20.714 L -12.1481,-20.2505 L -14.0507,-19.7071 L -15.8979,-19.086 L -17.6823,-18.3895 L -19.3969,-17.6204  L -21.035,-16.7818 L -22.59,-15.8769 L -24.056,-14.9094 L -25.4269,-13.8831 L -26.6976,-12.802 L -27.8628,-11.6703  L -28.9181,-10.4926 L -29.8593,-9.27347 L -30.6826,-8.01775 L -31.3849,-6.73038 L -31.9632,-5.41646 L -32.4155,-4.08116  L -32.7398,-2.72975 L -32.9349,-1.36757 L -33,-0 L -32.9349,1.36757 L -32.7398,2.72975 L -32.4155,4.08116  L -31.9632,5.41646 L -31.3849,6.73038 L -30.6826,8.01775 L -29.8593,9.27347 L -28.9181,10.4926 L -27.8628,11.6703  L -26.6976,12.802 L -25.4269,13.8831 L -24.056,14.9094 L -22.59,15.8769 L -21.035,16.7818 L -19.3969,17.6204  L -17.6823,18.3895 L -15.8979,19.086 L -14.0507,19.7071 L -12.1481,20.2505 L -10.1976,20.714 L -8.20676,21.0957  L -6.18358,21.3942 L -4.13599,21.6082 L -2.07208,21.737 L 0,21.78 z M 8.5,12.9988 L 8.28073,13.0335 L 8,12.989 L 7.81009,13.0191 L 7.80901,13.0186 L 7.5,12.9696  L 7.32446,12.9974 L 7.30901,12.9895 L 7,12.9406 L 6.83862,12.9661 L 6.80901,12.951 L 6.5,12.9021  L 6.35249,12.9255 L 6.30901,12.9033 L 6,12.8544 L 5.86603,12.8756 L 5.80901,12.8465 L 5.5,12.7976  L 5.37914,12.8167 L 5.30901,12.781 L 5,12.732 L 4.89177,12.7492 L 4.80901,12.707 L 4.5,12.6581  L 4.40387,12.6733 L 4.30901,12.625 L 4,12.576 L 3.91537,12.5894 L 3.80901,12.5352 L 3.5,12.4863  L 3.42622,12.498 L 3.30901,12.4382 L 3,12.3893 L 2.93634,12.3994 L 2.80901,12.3345 L 2.5,12.2856  L 2.44572,12.2942 L 2.30901,12.2245 L 2,12.1756 L 1.9543,12.1828 L 1.80901,12.1088 L 1.5,12.0598  L 1.46202,12.0658 L 1.30901,11.9879 L 1,11.9389 L 0.968887,11.9439 L 0.809006,11.8624 L 0.5,11.8135  L 0.474808,11.8175 L 0.309006,11.733 L 0,11.6841 L -0.0201874,11.6873 L -0.190994,11.6002 L -0.5,11.5513  L -0.516174,11.5538 L -0.690994,11.4648 L -1,11.4158 L -1.01314,11.4179 L -1.19099,11.3273 L -1.5,11.2784  L -1.51112,11.2801 L -1.69099,11.1885 L -2,11.1395 L -2.01009,11.1411 L -2.19099,11.049 L -2.5,11  L -2.51012,11.0016 L -2.69099,10.9094 L -3,10.8605 L -3.01112,10.8622 L -3.19099,10.7706 L -3.5,10.7217  L -3.51314,10.7237 L -3.69099,10.6331 L -4,10.5842 L -4.01617,10.5867 L -4.19099,10.4977 L -4.5,10.4487  L -4.5202,10.4519 L -4.69099,10.3649 L -5,10.316 L -5.02519,10.32 L -5.19099,10.2355 L -5.5,10.1865  L -5.53111,10.1915 L -5.69099,10.11 L -6,10.0611 L -6.03796,10.0671 L -6.19099,9.98911 L -6.5,9.94017  L -6.54572,9.9474 L -6.69099,9.87338 L -7,9.82443 L -7.05429,9.83304 L -7.19099,9.76338 L -7.5,9.71443  L -7.56366,9.72452 L -7.69099,9.65964 L -8,9.61069 L -8.07379,9.62238 L -8.19099,9.56267 L -8.5,9.51372  L -8.58464,9.52713 L -8.69099,9.47293 L -9,9.42398 L -9.09613,9.43921 L -9.19099,9.39087 L -9.5,9.34193  L -9.60822,9.35907 L -9.69099,9.31689 L -10,9.26796 L -10.1208,9.28709 L -10.191,9.25136 L -10.5,9.20242  L -10.634,9.22363 L -10.691,9.19458 L -11,9.14565 L -11.1475,9.16901 L -11.191,9.14684 L -11.5,9.0979  L -11.6614,9.12346 L -11.691,9.10835 L -12,9.05942 L -12.1755,9.08722 L -12.191,9.07933 L -12.5,9.0304  L -12.6899,9.06047 L -12.691,9.05991 L -13,9.01097 L -13.2193,9.0457 L -13.5,9.00122 L -13.75,9.04082  L -14,9.00122 L -14.2807,9.04568 L -14.5,9.01097 L -14.809,9.05991 L -14.8101,9.06047 L -15,9.0304  L -15.309,9.07933 L -15.3245,9.08722 L -15.5,9.05942 L -15.809,9.10835 L -15.8387,9.12346 L -16,9.0979  L -16.309,9.14684 L -16.3525,9.16901 L -16.5,9.14565 L -16.809,9.19458 L -16.866,9.22363 L -17,9.20242  L -17.309,9.25136 L -17.3792,9.28709 L -17.5,9.26796 L -17.809,9.31689 L -17.8918,9.35907 L -18,9.34193  L -18.309,9.39087 L -18.4039,9.43921 L -18.5,9.42398 L -18.809,9.47293 L -18.9154,9.52713 L -19,9.51372  L -19.309,9.56267 L -19.4262,9.62238 L -19.5,9.61069 L -19.5851,9.62418 L -19.7169,9.43031 L -20.3586,8.33463  L -20.92,7.20602 L -21.3988,6.049 L -21.7931,4.8681 L -22.1015,3.66798 L -22.3226,2.45338 L -22.4556,1.22911  L -22.4639,1 L -15,1 L -15,-1 L -22.4639,-1 L -22.4556,-1.22911 L -22.3226,-2.45338  L -22.1015,-3.66798 L -21.7931,-4.8681 L -21.3988,-6.049 L -20.92,-7.20602 L -20.3586,-8.33463 L -19.7169,-9.43031  L -18.9974,-10.4888 L -18.2029,-11.5059 L -17.3365,-12.4776 L -16.4018,-13.4 L -15.4023,-14.2695 L -14.342,-15.0828  L -13.2252,-15.8365 L -12.0561,-16.5277 L -10.8394,-17.1537 L -9.58003,-17.712 L -8.28279,-18.2004 L -6.95288,-18.6169  L -5.59552,-18.96 L -4.21606,-19.2283 L -2.81999,-19.4206 L -1.41278,-19.5364 L -1,-19.5477 L -1,-11  L 1,-11 L 1,-19.5477 L 1.41278,-19.5364 L 2.81999,-19.4206 L 4.21606,-19.2283 L 5.59552,-18.96  L 6.95288,-18.6169 L 8.28279,-18.2004 L 9.58003,-17.712 L 10.8394,-17.1537 L 12.0561,-16.5277 L 13.2252,-15.8365  L 14.342,-15.0828 L 15.4023,-14.2695 L 16.4018,-13.4 L 17.3365,-12.4776 L 18.2029,-11.5059 L 18.9974,-10.4888  L 19.7169,-9.43031 L 20.3586,-8.33463 L 20.92,-7.20602 L 21.3988,-6.049 L 21.7931,-4.8681 L 22.1015,-3.66798  L 22.3226,-2.45338 L 22.4556,-1.22911 L 22.4639,-1 L 15,-1 L 15,1 L 22.4639,1  L 22.4556,1.22911 L 22.3226,2.45338 L 22.1015,3.66798 L 21.7931,4.8681 L 21.3988,6.049 L 20.92,7.20602  L 20.3586,8.33463 L 19.7169,9.43031 L 18.9974,10.4888 L 18.2412,11.4568 L 18.191,11.4648 L 18.0162,11.5538  L 18,11.5513 L 17.691,11.6002 L 17.5202,11.6872 L 17.5,11.6841 L 17.191,11.733 L 17.0252,11.8175  L 17,11.8135 L 16.691,11.8624 L 16.5311,11.9439 L 16.5,11.9389 L 16.191,11.9879 L 16.038,12.0658  L 16,12.0598 L 15.691,12.1088 L 15.5457,12.1828 L 15.5,12.1756 L 15.191,12.2245 L 15.0543,12.2942  L 15,12.2856 L 14.691,12.3345 L 14.5636,12.3994 L 14.5,12.3893 L 14.191,12.4382 L 14.0738,12.498  L 14,12.4863 L 13.691,12.5352 L 13.5846,12.5894 L 13.5,12.576 L 13.191,12.625 L 13.0961,12.6733  L 13,12.6581 L 12.691,12.707 L 12.6082,12.7492 L 12.5,12.732 L 12.191,12.781 L 12.1208,12.8167  L 12,12.7976 L 11.691,12.8465 L 11.634,12.8756 L 11.5,12.8544 L 11.191,12.9033 L 11.1475,12.9255  L 11,12.9021 L 10.691,12.951 L 10.6614,12.9661 L 10.5,12.9406 L 10.191,12.9895 L 10.1755,12.9974  L 10,12.9696 L 9.69098,13.0186 L 9.6899,13.0191 L 9.5,12.989 L 9.21925,13.0335 L 9,12.9988  L 8.75,13.0384 z M -6.36212,5.7507 L -6.94551,5.7507 L -7.00465,5.75018 L -7.06241,5.74863 L -7.11879,5.74605 L -7.17378,5.74242  L -7.2274,5.73776 L -7.27963,5.73207 L -7.33049,5.72533 L -7.37996,5.71756 L -7.42804,5.70877 L -7.47475,5.69893  L -7.52008,5.68805 L -7.56403,5.67615 L -7.60658,5.66321 L -7.64771,5.64865 L -7.68733,5.63191 L -7.72548,5.61299  L -7.76212,5.59187 L -7.79726,5.56857 L -7.8309,5.54309 L -7.86307,5.51543 L -7.89372,5.48558 L -7.9229,5.45354  L -7.95058,5.41933 L -7.97675,5.38292 L -8.00143,5.34431 L -8.02463,5.30354 L -8.0462,5.26004 L -8.06606,5.21332  L -8.08418,5.16338 L -8.10059,5.1102 L -8.11526,5.05382 L -8.1282,4.99422 L -8.13943,4.93138 L -8.14893,4.86534  L -8.15669,4.79607 L -8.16273,4.72357 L -8.16705,4.64787 L -8.16965,4.56894 L -8.1705,4.48679 L -8.1705,-3.93266  L -1.32668,5.73642 L -1.34259,5.73874 L -1.38982,5.74397 L -1.43808,5.74771 L -1.48738,5.74995 L -1.53772,5.7507  L -2.23772,5.7507 L -2.23772,6.78125 L 4.19836,6.78125 L 4.54103,6.77583 L 4.87511,6.75961 L 5.20053,6.73257  L 5.51733,6.69472 L 5.82552,6.64604 L 6.12506,6.58656 L 6.41599,6.51627 L 6.69827,6.43513 L 6.97194,6.34322  L 7.23697,6.24046 L 7.49338,6.12689 L 7.74115,6.00252 L 7.9803,5.86732 L 8.21071,5.72252 L 8.43225,5.56932  L 8.64493,5.40771 L 8.84875,5.23772 L 9.04372,5.05933 L 9.22981,4.87253 L 9.40706,4.67734 L 9.57544,4.47375  L 9.73495,4.26176 L 9.88562,4.04138 L 10.0274,3.81259 L 10.1604,3.57541 L 10.2844,3.32982 L 10.3995,3.0771  L 10.5054,2.81853 L 10.602,2.55408 L 10.6895,2.28375 L 10.7677,2.00755 L 10.8367,1.72549 L 10.8966,1.43758  L 10.9472,1.14378 L 10.9886,0.844116 L 11.0208,0.538589 L 11.0439,0.227188 L 11.0577,-0.0900726 L 11.0623,-0.413208  L 11.0574,-0.749908 L 11.0429,-1.07799 L 11.0188,-1.39743 L 10.9849,-1.70825 L 10.9414,-2.01044 L 10.8883,-2.304  L 10.8255,-2.58893 L 10.753,-2.86523 L 10.6708,-3.1329 L 10.579,-3.39195 L 10.4775,-3.64238 L 10.3663,-3.88416  L 10.2455,-4.11732 L 10.1156,-4.3418 L 9.97697,-4.55753 L 9.82977,-4.76451 L 9.67392,-4.96275 L 9.50946,-5.15225  L 9.33635,-5.33299 L 9.15463,-5.505 L 8.96426,-5.66826 L 8.76527,-5.82278 L 8.55765,-5.96855 L 8.3414,-6.10558  L 8.11652,-6.23387 L 7.88301,-6.35341 L 7.64169,-6.46416 L 7.39336,-6.56606 L 7.138,-6.65909 L 6.87563,-6.74327  L 6.60623,-6.81859 L 6.3298,-6.88504 L 6.04637,-6.94263 L 5.75592,-6.99136 L 5.45845,-7.03123 L 5.15395,-7.06226  L 4.84244,-7.0844 L 4.5239,-7.09769 L 4.19836,-7.10213 L -2.23772,-7.10213 L -2.23772,-6.07158 L -1.61555,-6.07158  L -1.56505,-6.07095 L -1.51524,-6.06905 L -1.46611,-6.06589 L -1.41768,-6.06146 L -1.36993,-6.05576 L -1.32288,-6.0488  L -1.27652,-6.04057 L -1.23085,-6.03108 L -1.18587,-6.02032 L -1.14159,-6.00829 L -1.09798,-5.995 L -1.05507,-5.98044  L -1.01286,-5.96461 L -0.971664,-5.94736 L -0.931839,-5.9285 L -0.893402,-5.908 L -0.856339,-5.88591 L -0.820663,-5.86221  L -0.786377,-5.8369 L -0.753464,-5.80998 L -0.721939,-5.78145 L -0.691788,-5.7513 L -0.663025,-5.71954 L -0.635635,-5.68619  L -0.609634,-5.65121 L -0.585022,-5.61462 L -0.561996,-5.57591 L -0.540802,-5.53455 L -0.521454,-5.49054 L -0.503952,-5.44388  L -0.488297,-5.39458 L -0.474472,-5.34262 L -0.462509,-5.28802 L -0.452362,-5.23077 L -0.444077,-5.17088 L -0.437637,-5.10834  L -0.433029,-5.04315 L -0.430267,-4.97531 L -0.429337,-4.90482 L -0.429337,2.33684 L -7.10104,-7.10213 L -11.4371,-7.10213  L -11.4371,-6.07158 L -10.8537,-6.07158 L -10.8032,-6.07112 L -10.7532,-6.06973 L -10.7038,-6.06744 L -10.655,-6.06421  L -10.6067,-6.06007 L -10.559,-6.05501 L -10.5119,-6.04901 L -10.4654,-6.0421 L -10.4194,-6.03427 L -10.3741,-6.02553  L -10.3293,-6.01585 L -10.285,-6.00526 L -10.2414,-5.99374 L -10.1987,-5.98076 L -10.1574,-5.96568 L -10.1175,-5.94855  L -10.0789,-5.92935 L -10.0417,-5.90807 L -10.006,-5.8847 L -9.97154,-5.85928 L -9.93852,-5.83179 L -9.90688,-5.80222  L -9.8766,-5.77057 L -9.84772,-5.73685 L -9.82021,-5.70107 L -9.79408,-5.66321 L -9.76962,-5.6227 L -9.74712,-5.57896  L -9.72658,-5.53201 L -9.70799,-5.48184 L -9.69136,-5.42845 L -9.67668,-5.37184 L -9.66397,-5.312 L -9.6532,-5.24895  L -9.64439,-5.18268 L -9.63754,-5.11317 L -9.63266,-5.04047 L -9.62971,-4.96452 L -9.62874,-4.88536 L -9.62874,4.48679  L -9.62971,4.56894 L -9.63266,4.64787 L -9.63754,4.72357 L -9.64439,4.79607 L -9.6532,4.86534 L -9.66397,4.93138  L -9.67668,4.99422 L -9.69136,5.05382 L -9.70799,5.1102 L -9.72658,5.16338 L -9.74712,5.21332 L -9.76962,5.26004  L -9.79408,5.30354 L -9.82033,5.34431 L -9.84818,5.38292 L -9.87764,5.41933 L -9.90872,5.45354 L -9.94141,5.48558  L -9.97569,5.51543 L -10.0116,5.54309 L -10.0491,5.56857 L -10.0882,5.59187 L -10.129,5.61299 L -10.1713,5.63191  L -10.2153,5.64865 L -10.2608,5.66321 L -10.3077,5.67615 L -10.3556,5.68805 L -10.4046,5.69893 L -10.4545,5.70877  L -10.5056,5.71756 L -10.5576,5.72533 L -10.6107,5.73207 L -10.6648,5.73776 L -10.72,5.74242 L -10.7762,5.74605  L -10.8335,5.74863 L -10.8917,5.75018 L -10.951,5.7507 L -11.4371,5.7507 L -11.4371,6.78125 L -6.36212,6.78125  z M 2.64282,5.5757 L 2.64282,-5.91605 L 3.75121,-5.91605 L 3.95207,-5.91248 L 4.14789,-5.90178 L 4.33865,-5.88394  L 4.52432,-5.85896 L 4.70496,-5.82686 L 4.88054,-5.78763 L 5.05104,-5.74126 L 5.21649,-5.68774 L 5.37688,-5.62711  L 5.5322,-5.55933 L 5.68246,-5.48442 L 5.82767,-5.40237 L 5.9678,-5.3132 L 6.10283,-5.21683 L 6.23267,-5.11322  L 6.35733,-5.00235 L 6.47682,-4.88423 L 6.59113,-4.75887 L 6.70027,-4.62627 L 6.80421,-4.4864 L 6.903,-4.33929  L 6.9966,-4.18494 L 7.08502,-4.02333 L 7.16827,-3.85448 L 7.24634,-3.67838 L 7.31923,-3.49503 L 7.38683,-3.30421  L 7.44901,-3.1057 L 7.5058,-2.89948 L 7.55717,-2.68553 L 7.60313,-2.46388 L 7.64369,-2.23454 L 7.67885,-1.99747  L 7.70859,-1.7527 L 7.73293,-1.50021 L 7.75185,-1.24002 L 7.76537,-0.972122 L 7.77348,-0.696518 L 7.77618,-0.413208  L 7.77348,-0.131989 L 7.76537,0.143219 L 7.75185,0.412445 L 7.73293,0.675705 L 7.70859,0.932983 L 7.67885,1.18427  L 7.64369,1.42957 L 7.60313,1.66888 L 7.55717,1.90222 L 7.5058,2.12956 L 7.44901,2.35092 L 7.38683,2.56631  L 7.31923,2.7757 L 7.24634,2.97849 L 7.16827,3.17401 L 7.08502,3.3623 L 6.9966,3.54333 L 6.903,3.71713  L 6.80421,3.88368 L 6.70027,4.04297 L 6.59113,4.19502 L 6.47682,4.33983 L 6.35733,4.47739 L 6.23267,4.6077  L 6.10283,4.73076 L 5.9678,4.84659 L 5.82755,4.95444 L 5.68201,5.05367 L 5.53116,5.14427 L 5.37503,5.22624  L 5.21361,5.29959 L 5.04689,5.3643 L 4.87489,5.42038 L 4.69759,5.46785 L 4.515,5.50667 L 4.32713,5.53688  L 4.13396,5.55844 L 3.9355,5.57138 L 3.73174,5.5757 z M -30.9524,-1 L -30.9388,-1.28468 L -30.7556,-2.56432 L -30.4509,-3.83382 L -30.0261,-5.08818 L -29.4827,-6.32248  L -28.8231,-7.53181 L -28.0496,-8.71144 L -27.1655,-9.85667 L -26.1742,-10.963 L -25.0795,-12.0261 L -23.8859,-13.0417  L -22.598,-14.0058 L -21.2209,-14.9147 L -19.7601,-15.7647 L -18.2213,-16.5525 L -16.6106,-17.2749 L -14.9344,-17.9292  L -13.1992,-18.5128 L -11.4118,-19.0232 L -10.5786,-19.2212 L -11.803,-18.6785 L -13.1277,-17.9968 L -14.4007,-17.2442  L -15.6169,-16.4235 L -16.7714,-15.538 L -17.8597,-14.5911 L -18.8776,-13.5867 L -19.8209,-12.5286 L -20.686,-11.4211  L -21.4695,-10.2686 L -22.1683,-9.07549 L -22.7795,-7.84657 L -23.3009,-6.58669 L -23.7303,-5.30081 L -24.066,-3.99402  L -24.3068,-2.67146 L -24.4516,-1.33838 L -24.4639,-1 z M 24.4639,-1 L 24.4516,-1.33838 L 24.3068,-2.67146 L 24.066,-3.99402 L 23.7303,-5.30081 L 23.3009,-6.58669  L 22.7795,-7.84657 L 22.1683,-9.07549 L 21.4695,-10.2686 L 20.686,-11.4211 L 19.8209,-12.5286 L 18.8776,-13.5867  L 17.8597,-14.5911 L 16.7714,-15.538 L 15.6169,-16.4235 L 14.4007,-17.2442 L 13.1277,-17.9968 L 11.803,-18.6785  L 10.5786,-19.2212 L 11.4118,-19.0232 L 13.1992,-18.5128 L 14.9344,-17.9292 L 16.6106,-17.2749 L 18.2213,-16.5525  L 19.7601,-15.7647 L 21.2209,-14.9147 L 22.598,-14.0058 L 23.8859,-13.0417 L 25.0795,-12.0261 L 26.1742,-10.963  L 27.1655,-9.85667 L 28.0496,-8.71144 L 28.8231,-7.53181 L 29.4827,-6.32248 L 30.0261,-5.08818 L 30.4509,-3.83382  L 30.7556,-2.56432 L 30.9388,-1.28468 L 30.9524,-1 z M 21.4695,10.2686 L 22.1683,9.07549 L 22.7795,7.84657 L 23.3009,6.58669 L 23.7303,5.30081 L 24.066,3.99402  L 24.3068,2.67146 L 24.4516,1.33838 L 24.4639,1 L 30.9524,1 L 30.9388,1.28468 L 30.7556,2.56432  L 30.4509,3.83382 L 30.0261,5.08818 L 29.4827,6.32248 L 28.8231,7.53181 L 28.0496,8.71144 L 27.6069,9.2849  L 27.5,9.26796 L 27.191,9.31689 L 27.1082,9.35907 L 27,9.34193 L 26.691,9.39087 L 26.5961,9.43921  L 26.5,9.42398 L 26.191,9.47293 L 26.0846,9.52713 L 26,9.51372 L 25.691,9.56267 L 25.5738,9.62238  L 25.5,9.61069 L 25.191,9.65964 L 25.0636,9.72452 L 25,9.71443 L 24.691,9.76338 L 24.5543,9.83302  L 24.5,9.82443 L 24.191,9.87338 L 24.0457,9.9474 L 24,9.94017 L 23.691,9.98911 L 23.5379,10.0671  L 23.5,10.0611 L 23.191,10.11 L 23.0311,10.1915 L 23,10.1865 L 22.691,10.2355 L 22.5252,10.3199  L 22.5,10.316 L 22.191,10.3649 L 22.0202,10.4519 L 22,10.4487 L 21.691,10.4977 L 21.5162,10.5867  L 21.5,10.5842 L 21.2254,10.6277 z M -26.1742,10.963 L -27.1655,9.85667 L -28.0496,8.71144 L -28.8231,7.53181 L -29.4827,6.32248 L -30.0261,5.08818  L -30.4509,3.83382 L -30.7556,2.56432 L -30.9388,1.28468 L -30.9524,1 L -24.4639,1 L -24.4516,1.33838  L -24.3068,2.67146 L -24.066,3.99402 L -23.7303,5.30081 L -23.3009,6.58669 L -22.7795,7.84657 L -22.1683,9.07549  L -21.5833,10.0743 L -21.809,10.11 L -21.9689,10.1915 L -22,10.1865 L -22.309,10.2355 L -22.4748,10.3199  L -22.5,10.316 L -22.809,10.3649 L -22.9798,10.4519 L -23,10.4487 L -23.309,10.4977 L -23.4838,10.5867  L -23.5,10.5842 L -23.809,10.6331 L -23.9869,10.7237 L -24,10.7217 L -24.309,10.7706 L -24.4889,10.8622  L -24.5,10.8605 L -24.809,10.9094 L -24.9899,11.0016 L -25,11 L -25.309,11.049 L -25.4899,11.1411  L -25.5,11.1395 L -25.809,11.1885 L -25.8962,11.2329 z M -1.9465,20.4196 L -3.88533,20.2987 L -5.80881,20.0976 L -7.70938,19.8172 L -9.57951,19.4586 L -11.4118,19.0232  L -13.1992,18.5128 L -14.9344,17.9292 L -16.6106,17.2749 L -18.2213,16.5525 L -19.7601,15.7647 L -21.2209,14.9147  L -22.598,14.0058 L -23.8859,13.0417 L -24.1694,12.8005 L -24.0111,12.7199 L -24,12.7216 L -23.691,12.6727  L -23.5131,12.5821 L -23.5,12.5842 L -23.191,12.5352 L -23.0162,12.4462 L -23,12.4487 L -22.691,12.3998  L -22.5202,12.3127 L -22.5,12.3159 L -22.191,12.267 L -22.0252,12.1825 L -22,12.1865 L -21.691,12.1376  L -21.5311,12.0561 L -21.5,12.0611 L -21.191,12.0121 L -21.038,11.9342 L -21,11.9402 L -20.691,11.8912  L -20.5457,11.8172 L -20.5,11.8244 L -20.191,11.7755 L -20.0543,11.7058 L -20,11.7144 L -19.691,11.6655  L -19.5637,11.6006 L -19.5,11.6107 L -19.191,11.5618 L -19.0738,11.502 L -19,11.5137 L -18.691,11.4648  L -18.5846,11.4106 L -18.5,11.424 L -18.191,11.375 L -18.0961,11.3267 L -18,11.3419 L -17.691,11.293  L -17.6082,11.2508 L -17.5,11.268 L -17.191,11.219 L -17.1209,11.1833 L -17,11.2024 L -16.691,11.1535  L -16.634,11.1244 L -16.5,11.1456 L -16.191,11.0967 L -16.1475,11.0745 L -16,11.0979 L -15.691,11.049  L -15.6614,11.0339 L -15.5,11.0594 L -15.191,11.0105 L -15.1755,11.0026 L -15,11.0304 L -14.691,10.9814  L -14.6899,10.9809 L -14.5,11.011 L -14.2193,10.9665 L -14,11.0012 L -13.75,10.9616 L -13.5,11.0012  L -13.2807,10.9665 L -13,11.011 L -12.8101,10.9809 L -12.809,10.9814 L -12.5,11.0304 L -12.3245,11.0026  L -12.309,11.0105 L -12,11.0594 L -11.8386,11.0339 L -11.809,11.049 L -11.5,11.0979 L -11.3525,11.0745  L -11.309,11.0967 L -11,11.1456 L -10.866,11.1244 L -10.809,11.1535 L -10.5,11.2024 L -10.3792,11.1833  L -10.309,11.219 L -10,11.268 L -9.89178,11.2508 L -9.80902,11.293 L -9.5,11.3419 L -9.40388,11.3267  L -9.30902,11.375 L -9,11.424 L -8.91537,11.4106 L -8.80902,11.4648 L -8.5,11.5137 L -8.42622,11.502  L -8.30902,11.5618 L -8,11.6107 L -7.93636,11.6006 L -7.80902,11.6655 L -7.5,11.7144 L -7.44574,11.7058  L -7.30902,11.7755 L -7,11.8244 L -6.95432,11.8172 L -6.80902,11.8912 L -6.5,11.9402 L -6.46204,11.9342  L -6.30902,12.0121 L -6,12.0611 L -5.96889,12.0561 L -5.80902,12.1376 L -5.5,12.1865 L -5.47482,12.1825  L -5.30902,12.267 L -5,12.3159 L -4.97983,12.3128 L -4.80902,12.3998 L -4.5,12.4487 L -4.48384,12.4462  L -4.30902,12.5352 L -4,12.5842 L -3.98688,12.5821 L -3.80902,12.6727 L -3.5,12.7216 L -3.48889,12.7199  L -3.30902,12.8115 L -3,12.8605 L -2.98991,12.8589 L -2.80902,12.951 L -2.5,13 L -2.4899,12.9984  L -2.30902,13.0906 L -2,13.1395 L -1.98889,13.1378 L -1.80902,13.2294 L -1.5,13.2783 L -1.48688,13.2763  L -1.30902,13.3669 L -1,13.4158 L -0.983841,13.4133 L -0.809021,13.5023 L -0.5,13.5513 L -0.479813,13.5481  L -0.309021,13.6351 L 0,13.684 L 0.025177,13.6801 L 0.190979,13.7645 L 0.5,13.8135 L 0.531097,13.8085  L 0.690979,13.89 L 1,13.9389 L 1.03795,13.9329 L 1.19098,14.0109 L 1.5,14.0598 L 1.5457,14.0526  L 1.69098,14.1266 L 2,14.1756 L 2.05428,14.167 L 2.19098,14.2366 L 2.5,14.2856 L 2.56364,14.2755  L 2.69098,14.3404 L 3,14.3893 L 3.07378,14.3776 L 3.19098,14.4373 L 3.5,14.4863 L 3.58463,14.4729  L 3.69098,14.5271 L 4,14.576 L 4.09612,14.5608 L 4.19098,14.6091 L 4.5,14.6581 L 4.6082,14.6409  L 4.69098,14.6831 L 5,14.732 L 5.12083,14.7129 L 5.19098,14.7486 L 5.5,14.7976 L 5.63396,14.7764  L 5.69098,14.8054 L 6,14.8544 L 6.14748,14.831 L 6.19098,14.8532 L 6.5,14.9021 L 6.66135,14.8765  L 6.69098,14.8916 L 7,14.9406 L 7.17551,14.9128 L 7.19098,14.9207 L 7.5,14.9696 L 7.68988,14.9395  L 7.69098,14.9401 L 8,14.989 L 8.21925,14.9543 L 8.5,14.9988 L 8.75,14.9592 L 9,14.9988  L 9.28073,14.9543 L 9.5,14.989 L 9.80901,14.9401 L 9.8101,14.9395 L 10,14.9696 L 10.309,14.9207  L 10.3245,14.9128 L 10.5,14.9406 L 10.809,14.8916 L 10.8386,14.8765 L 11,14.9021 L 11.309,14.8532  L 11.3525,14.831 L 11.5,14.8544 L 11.809,14.8054 L 11.866,14.7764 L 12,14.7976 L 12.309,14.7486  L 12.3792,14.7129 L 12.5,14.732 L 12.809,14.6831 L 12.8918,14.6409 L 13,14.6581 L 13.309,14.6091  L 13.4039,14.5608 L 13.5,14.576 L 13.809,14.5271 L 13.9154,14.4729 L 14,14.4863 L 14.309,14.4373  L 14.4262,14.3776 L 14.5,14.3893 L 14.809,14.3404 L 14.9363,14.2755 L 15,14.2856 L 15.309,14.2366  L 15.4457,14.167 L 15.5,14.1756 L 15.809,14.1266 L 15.9543,14.0526 L 16,14.0598 L 16.309,14.0109  L 16.462,13.9329 L 16.5,13.9389 L 16.809,13.89 L 16.9689,13.8085 L 17,13.8135 L 17.309,13.7645  L 17.4748,13.68 L 17.5,13.684 L 17.809,13.6351 L 17.9798,13.5481 L 18,13.5513 L 18.309,13.5023  L 18.4838,13.4133 L 18.5,13.4158 L 18.809,13.3669 L 18.9869,13.2763 L 19,13.2783 L 19.309,13.2294  L 19.4889,13.1378 L 19.5,13.1395 L 19.809,13.0906 L 19.9899,12.9984 L 20,13 L 20.309,12.951  L 20.4899,12.8589 L 20.5,12.8605 L 20.809,12.8115 L 20.9889,12.7199 L 21,12.7216 L 21.309,12.6727  L 21.4869,12.5821 L 21.5,12.5842 L 21.809,12.5352 L 21.9838,12.4462 L 22,12.4487 L 22.309,12.3998  L 22.4798,12.3127 L 22.5,12.3159 L 22.809,12.267 L 22.9748,12.1825 L 23,12.1865 L 23.309,12.1376  L 23.4689,12.0561 L 23.5,12.0611 L 23.809,12.0121 L 23.962,11.9342 L 24,11.9402 L 24.309,11.8912  L 24.4543,11.8172 L 24.5,11.8244 L 24.809,11.7755 L 24.9457,11.7058 L 25,11.7144 L 25.309,11.6655  L 25.4363,11.6006 L 25.5,11.6107 L 25.5087,11.6093 L 25.0795,12.0261 L 23.8859,13.0417 L 22.598,14.0058  L 21.2209,14.9147 L 19.7601,15.7647 L 18.2213,16.5525 L 16.6106,17.2749 L 14.9344,17.9292 L 13.1992,18.5128  L 11.4118,19.0232 L 9.57951,19.4586 L 7.70938,19.8172 L 5.80881,20.0976 L 3.88533,20.2987 L 1.9465,20.4196  L 0,20.46 z M 40.1633,-5.40512 L 40.3259,-5.4205 L 40.4872,-5.44604 L 40.6466,-5.48167 L 40.8034,-5.52725 L 40.9571,-5.58258  L 41.107,-5.64745 L 41.2525,-5.72159 L 41.3931,-5.80473 L 41.5282,-5.89655 L 41.6573,-5.99666 L 41.7798,-6.10468  L 41.8953,-6.22017 L 42.0033,-6.3427 L 42.1034,-6.47176 L 42.1953,-6.60684 L 42.2784,-6.74744 L 42.3525,-6.89296  L 42.4174,-7.04286 L 42.4727,-7.19655 L 42.5183,-7.35339 L 42.5539,-7.5128 L 42.5795,-7.67413 L 42.5949,-7.83673  L 42.6,-8 L 42.5949,-8.16325 L 42.5795,-8.32585 L 42.5539,-8.48718 L 42.5183,-8.64659 L 42.4727,-8.80344  L 42.4174,-8.95712 L 42.3525,-9.10703 L 42.2784,-9.25255 L 42.1953,-9.39314 L 42.1034,-9.52823 L 42.0033,-9.65729  L 41.8953,-9.77982 L 41.7798,-9.89531 L 41.6573,-10.0033 L 41.5282,-10.1034 L 41.3931,-10.1953 L 41.2525,-10.2784  L 41.107,-10.3525 L 40.9571,-10.4174 L 40.8034,-10.4727 L 40.6466,-10.5183 L 40.4872,-10.5539 L 40.3259,-10.5795  L 40.1633,-10.5949 L 40,-10.6 L 39.8367,-10.5949 L 39.6741,-10.5795 L 39.5128,-10.5539 L 39.3534,-10.5183  L 39.1965,-10.4727 L 39.0429,-10.4174 L 38.893,-10.3525 L 38.7474,-10.2784 L 38.6068,-10.1953 L 38.4718,-10.1034  L 38.3427,-10.0033 L 38.2202,-9.89531 L 38.1047,-9.77982 L 37.9967,-9.65729 L 37.8965,-9.52823 L 37.8047,-9.39314  L 37.7216,-9.25255 L 37.6474,-9.10703 L 37.5826,-8.95712 L 37.5273,-8.80344 L 37.4817,-8.64659 L 37.446,-8.48718  L 37.4205,-8.32585 L 37.4051,-8.16325 L 37.4,-8 L 37.4051,-7.83673 L 37.4205,-7.67413 L 37.446,-7.5128  L 37.4817,-7.35339 L 37.5273,-7.19655 L 37.5826,-7.04286 L 37.6474,-6.89296 L 37.7216,-6.74744 L 37.8047,-6.60684  L 37.8965,-6.47176 L 37.9967,-6.3427 L 38.1047,-6.22017 L 38.2202,-6.10468 L 38.3427,-5.99666 L 38.4718,-5.89655  L 38.6068,-5.80473 L 38.7474,-5.72159 L 38.893,-5.64745 L 39.0429,-5.58258 L 39.1965,-5.52725 L 39.3534,-5.48167  L 39.5128,-5.44604 L 39.6741,-5.4205 L 39.8367,-5.40512 L 40,-5.39999 z M -39.8367,-5.40512 L -39.6741,-5.4205 L -39.5128,-5.44604 L -39.3534,-5.48167 L -39.1965,-5.52725 L -39.0429,-5.58258  L -38.893,-5.64745 L -38.7474,-5.72159 L -38.6068,-5.80473 L -38.4718,-5.89655 L -38.3427,-5.99666 L -38.2202,-6.10468  L -38.1047,-6.22017 L -37.9967,-6.3427 L -37.8965,-6.47176 L -37.8047,-6.60684 L -37.7216,-6.74744 L -37.6474,-6.89296  L -37.5826,-7.04286 L -37.5273,-7.19655 L -37.4817,-7.35339 L -37.446,-7.5128 L -37.4205,-7.67413 L -37.4051,-7.83673  L -37.4,-8 L -37.4051,-8.16325 L -37.4205,-8.32585 L -37.446,-8.48718 L -37.4817,-8.64659 L -37.5273,-8.80344  L -37.5826,-8.95712 L -37.6474,-9.10703 L -37.7216,-9.25255 L -37.8047,-9.39314 L -37.8965,-9.52823 L -37.9967,-9.65729  L -38.1047,-9.77982 L -38.2202,-9.89531 L -38.3427,-10.0033 L -38.4718,-10.1034 L -38.6068,-10.1953 L -38.7474,-10.2784  L -38.893,-10.3525 L -39.0429,-10.4174 L -39.1965,-10.4727 L -39.3534,-10.5183 L -39.5128,-10.5539 L -39.6741,-10.5795  L -39.8367,-10.5949 L -40,-10.6 L -40.1633,-10.5949 L -40.3259,-10.5795 L -40.4872,-10.5539 L -40.6466,-10.5183  L -40.8034,-10.4727 L -40.9571,-10.4174 L -41.107,-10.3525 L -41.2525,-10.2784 L -41.3931,-10.1953 L -41.5282,-10.1034  L -41.6573,-10.0033 L -41.7798,-9.89531 L -41.8953,-9.77982 L -42.0033,-9.65729 L -42.1034,-9.52823 L -42.1953,-9.39314  L -42.2784,-9.25255 L -42.3525,-9.10703 L -42.4174,-8.95712 L -42.4727,-8.80344 L -42.5183,-8.64659 L -42.5539,-8.48718  L -42.5795,-8.32585 L -42.5949,-8.16325 L -42.6,-8 L -42.5949,-7.83673 L -42.5795,-7.67413 L -42.5539,-7.5128  L -42.5183,-7.35339 L -42.4727,-7.19655 L -42.4174,-7.04286 L -42.3525,-6.89296 L -42.2784,-6.74744 L -42.1953,-6.60684  L -42.1034,-6.47176 L -42.0033,-6.3427 L -41.8953,-6.22017 L -41.7798,-6.10468 L -41.6573,-5.99666 L -41.5282,-5.89655  L -41.3931,-5.80473 L -41.2525,-5.72159 L -41.107,-5.64745 L -40.9571,-5.58258 L -40.8034,-5.52725 L -40.6466,-5.48167  L -40.4872,-5.44604 L -40.3259,-5.4205 L -40.1633,-5.40512 L -40,-5.39999 z M 47.0925,7.13609 L 45.1759,5.87978 L 42.8883,2.69637 L 42.2442,3.67903 L 43.8313,5.66599 L 41.3716,5.01021  L 40.7229,5.99986 L 44.5824,6.84587 L 46.4711,8.08392 z M -41.3546,5.0361 L -42.1632,3.80255 L -47.9298,5.8587 L -47.2582,6.88324 L -45.8904,6.35533 L -45.164,7.46344  L -46.1938,8.50711 L -45.5267,9.52466 z M -44.9651,5.95799 L -43.4603,5.35027 L -43.1911,5.24229 L -42.9398,5.13359 L -42.7063,5.02415 L -42.4908,4.91403  L -42.6761,5.07785 L -42.8714,5.25316 L -43.0765,5.43994 L -43.2915,5.6382 L -44.4306,6.77341 z M -42.1758,11.8242 L -41.6409,11.6518 L -41.0842,11.3655 L -40.5057,10.9655 L -40.0107,10.5349 L -39.6257,10.0961  L -39.3506,9.64885 L -39.1855,9.19327 L -39.1312,8.73666 L -39.1888,8.28633 L -39.358,7.84227 L -39.6391,7.40446  L -40.5479,6.23219 L -45.2503,9.87778 L -44.3925,10.9842 L -44.0238,11.3787 L -43.6169,11.66 L -43.1719,11.8281  L -42.6888,11.8829 z M -43.1805,10.7114 L -43.4062,10.5734 L -43.6073,10.3649 L -43.7605,10.1673 L -40.6322,7.74208 L -40.4331,7.99889  L -40.2954,8.22366 L -40.2245,8.45667 L -40.2203,8.69794 L -40.2829,8.94748 L -40.4163,9.2077 L -40.6244,9.48109  L -40.9074,9.76767 L -41.2651,10.0674 L -41.6583,10.3492 L -42.0211,10.5612 L -42.3535,10.7037 L -42.6557,10.7764  L -42.9303,10.7791 z M 44.5538,10.7762 L 40.6352,7.73824 L 41.3091,6.86891 L 40.5254,6.26129 L 38.483,8.89569 L 39.2668,9.5033  L 39.9459,8.62732 L 43.8645,11.6653 z M -35.4612,12.255 L -36.2579,11.3802 L -39.2291,13.1054 L -39.3168,13.1568 L -39.4103,13.2128 L -39.5096,13.2732  L -39.6145,13.3382 L -39.7216,13.4054 L -39.8273,13.4727 L -39.9314,13.5401 L -40.0341,13.6076 L -40.1329,13.6732  L -40.2252,13.7351 L -40.311,13.7932 L -40.3904,13.8475 L -40.3262,13.7761 L -40.258,13.6974 L -40.1858,13.6116  L -40.1096,13.5186 L -40.0315,13.4214 L -39.9537,13.323 L -39.8763,13.2236 L -39.7991,13.1231 L -39.725,13.0249  L -39.6568,12.9328 L -39.5943,12.8467 L -39.5377,12.7666 L -37.5373,9.97542 L -38.3397,9.09438 L -41.7455,14.1913  L -40.859,15.1647 z M 42.1121,13.7888 L 41.6562,13.3735 L 41.1133,13.6231 L 37.9712,10.7614 L 38.169,10.1976 L 37.7131,9.78238  L 36.2037,11.4397 L 36.6596,11.8549 L 37.2025,11.6055 L 40.3446,14.4671 L 40.1468,15.0309 L 40.6027,15.4461  z M -33.5889,13.9867 L -34.6652,12.9782 L -39.7854,16.3346 L -38.8914,17.1722 L -37.6864,16.337 L -36.7195,17.2429  L -37.4745,18.4997 L -36.5866,19.3315 z M -36.8807,15.7329 L -35.5614,14.7879 L -35.3251,14.6196 L -35.1065,14.4547 L -34.9054,14.2934 L -34.7219,14.1356  L -34.8634,14.3385 L -35.0118,14.5548 L -35.1672,14.7847 L -35.3295,15.028 L -36.1692,16.3995 z M 39.3957,16.6997 L 38.7177,15.976 L 37.5622,17.0585 L 34.1722,13.4402 L 33.3391,14.2207 L 37.4071,18.5628  z M -29.506,17.3672 L -30.3463,16.6966 L -32.0357,18.8134 L -32.1186,18.9189 L -32.2059,19.0334 L -32.2979,19.1569  L -32.3944,19.2895 L -32.4958,19.4308 L -32.6026,19.5805 L -32.7147,19.7385 L -32.8322,19.9049 L -32.8583,19.8841  L -31.6815,15.631 L -32.7236,14.7992 L -36.4352,19.4497 L -35.6014,20.1151 L -33.8808,17.9592 L -33.7973,17.8533  L -33.7078,17.7374 L -33.6125,17.6116 L -33.5112,17.4759 L -33.405,17.33 L -33.2953,17.1738 L -33.1819,17.007  L -33.0648,16.8299 L -33.0388,16.8507 L -34.2663,21.1807 L -33.2176,22.0176 z M 35.778,19.9742 L 35.3933,19.4922 L 34.8179,19.6529 L 32.1668,16.3312 L 32.4511,15.8057 L 32.0665,15.3237  L 30.3144,16.722 L 30.6991,17.204 L 31.2745,17.0433 L 33.9256,20.3651 L 33.6413,20.8905 L 34.026,21.3725  z M 31.3456,23.3327 L 31.7674,23.1077 L 32.0256,22.9112 L 32.2478,22.695 L 32.4341,22.459 L 32.5845,22.2034  L 32.0152,21.3611 L 31.9505,21.4821 L 31.8821,21.5994 L 31.8098,21.713 L 31.7338,21.8228 L 31.6514,21.9269  L 31.56,22.0232 L 31.4596,22.1118 L 31.3502,22.1927 L 31.1267,22.3038 L 30.8912,22.3433 L 30.6436,22.311  L 30.3841,22.207 L 30.1171,22.0332 L 29.847,21.7917 L 29.5739,21.4825 L 29.2978,21.1055 L 29.1381,20.8567  L 28.9997,20.6143 L 28.8826,20.3782 L 28.7867,20.1485 L 28.7145,19.9282 L 28.6684,19.7205 L 28.6484,19.5253  L 28.6544,19.3427 L 28.6893,19.1761 L 28.7556,19.0291 L 28.8534,18.9017 L 28.9827,18.7939 L 29.091,18.7273  L 29.202,18.6721 L 29.3157,18.6283 L 29.4321,18.5958 L 29.5516,18.5726 L 29.6745,18.5564 L 29.801,18.5473  L 29.931,18.5453 L 29.673,17.5831 L 29.3251,17.6246 L 28.9908,17.7122 L 28.6701,17.846 L 28.363,18.0259  L 28.1046,18.2304 L 27.8954,18.4613 L 27.7355,18.7187 L 27.625,19.0025 L 27.561,19.3069 L 27.5411,19.6262  L 27.5652,19.9604 L 27.6333,20.3095 L 27.7433,20.6676 L 27.8932,21.0289 L 28.083,21.3935 L 28.3127,21.7613  L 28.7263,22.3118 L 29.1505,22.7553 L 29.5853,23.0917 L 30.0307,23.3209 L 30.4772,23.4393 L 30.9155,23.4433  z M -29.2236,23.2477 L -29.36,23.2329 L -29.4944,23.2131 L -29.6267,23.1885 L -29.757,23.1589 L -29.8843,23.1212  L -30.0078,23.0723 L -30.1274,23.0122 L -30.2433,22.9408 L -30.4297,22.7749 L -30.5541,22.5711 L -30.6164,22.3294  L -30.6167,22.0498 L -30.5551,21.7372 L -30.4317,21.3965 L -30.2466,21.0278 L -29.9998,20.6311 L -29.8285,20.3901  L -29.6551,20.1713 L -29.4798,19.9746 L -29.3024,19.8 L -29.1249,19.6509 L -28.9493,19.5306 L -28.7757,19.4393  L -28.604,19.3768 L -28.4364,19.347 L -28.2753,19.3537 L -28.1206,19.397 L -27.9724,19.4767 L -27.8702,19.5524  L -27.7775,19.6348 L -27.6945,19.724 L -27.621,19.8199 L -27.5549,19.9221 L -27.494,20.0301 L -27.4384,20.1441  L -27.388,20.264 L -26.5915,19.6657 L -26.7597,19.3584 L -26.9657,19.0809 L -27.2094,18.8332 L -27.4908,18.6153  L -27.777,18.4518 L -28.0692,18.3439 L -28.3677,18.2915 L -28.6722,18.2947 L -28.9785,18.3489 L -29.2822,18.4495  L -29.5833,18.5964 L -29.8818,18.7898 L -30.1731,19.0254 L -30.4525,19.2992 L -30.72,19.6113 L -30.9756,19.9616  L -31.3322,20.5506 L -31.5855,21.1096 L -31.7355,21.6384 L -31.7821,22.1372 L -31.7255,22.5957 L -31.5657,23.0038  L -31.3028,23.3616 L -30.9367,23.6691 L -30.6581,23.8354 L -30.3746,23.961 L -30.0862,24.0459 L -29.7929,24.0901  z M -25.7719,25.5137 L -27.1062,24.7584 L -26.3139,23.3588 L -25.0738,24.0608 L -24.5935,23.2123 L -25.8336,22.5103  L -25.1439,21.2919 L -23.8096,22.0473 L -23.3293,21.1988 L -25.6572,19.881 L -28.5883,25.059 L -26.2604,26.3768  z M 26.7438,26.1031 L 26.3061,24.7038 L 27.4591,24.0511 L 28.4335,25.1466 L 29.4924,24.5472 L 25.2849,20.0918  L 24.0013,20.8184 L 25.6778,26.7065 z M 25.4613,22.2135 L 25.3711,21.9378 L 25.279,21.6799 L 25.185,21.4399 L 25.0891,21.2176 L 25.2405,21.4132  L 25.4028,21.6194 L 25.5758,21.8363 L 25.7596,22.0638 L 26.8183,23.2743 L 25.9698,23.7546 z M -22.4403,27.7271 L -21.9857,27.5547 L -21.5564,27.2677 L -21.1598,26.8696 L -20.7959,26.3602 L -20.4647,25.7397  L -20.2217,25.1304 L -20.0803,24.5639 L -20.0405,24.0404 L -20.1022,23.5598 L -20.263,23.129 L -20.5202,22.7549  L -20.874,22.4376 L -21.3243,22.177 L -22.669,21.5508 L -25.181,26.9446 L -23.9118,27.5356 L -23.4034,27.7175  L -22.9129,27.7814 z M -23.2229,26.7188 L -23.4972,26.6255 L -23.7238,26.52 L -22.0527,22.9318 L -21.7581,23.069 L -21.5328,23.2058  L -21.3631,23.3805 L -21.249,23.5931 L -21.1904,23.8436 L -21.1898,24.136 L -21.2498,24.4743 L -21.3701,24.8587  L -21.551,25.2889 L -21.7716,25.7194 L -21.9971,26.074 L -22.2274,26.3528 L -22.4627,26.5558 L -22.7057,26.6839  L -22.9591,26.7383 z M 23.5939,27.6837 L 22.5877,25.5232 L 23.8719,24.9251 L 23.4603,24.0413 L 22.1761,24.6394 L 21.4935,23.1738  L 22.8683,22.5335 L 22.4567,21.6497 L 20.0469,22.7719 L 22.5589,28.1657 z M -13.369,26.1663 L -12.3111,26.4675 L -12.0396,25.5137 L -15.2455,24.601 L -15.517,25.5548 L -14.451,25.8582  L -15.8087,30.6271 L -14.7267,30.9351 z M 15.2243,30.8557 L 15.5691,30.7819 L 16.0067,30.6357 L 16.4219,30.4525 L 16.8147,30.2324 L 17.185,29.9753  L 16.3362,26.9938 L 14.5489,27.5027 L 14.8136,28.4324 L 15.5269,28.2293 L 15.9056,29.5597 L 15.7823,29.6365  L 15.6519,29.7034 L 15.5144,29.7605 L 15.3697,29.8076 L 15.1019,29.8476 L 14.8516,29.81 L 14.6187,29.6949  L 14.4033,29.5023 L 14.2065,29.2437 L 14.0294,28.9307 L 13.872,28.5634 L 13.7344,28.1417 L 13.6232,27.676  L 13.5679,27.2566 L 13.5687,26.8836 L 13.6254,26.5569 L 13.7381,26.2803 L 13.9068,26.0576 L 14.1314,25.8889  L 14.4119,25.774 L 14.6912,25.7162 L 14.9758,25.7002 L 15.2658,25.7259 L 15.5612,25.7934 L 15.6239,24.7965  L 15.4569,24.7615 L 15.282,24.7368 L 15.0993,24.7225 L 14.9086,24.7186 L 14.7123,24.7271 L 14.5125,24.7501  L 14.3093,24.7876 L 14.1026,24.8397 L 13.7466,24.9654 L 13.432,25.1281 L 13.1588,25.3277 L 12.927,25.5643  L 12.7368,25.8332 L 12.5886,26.1296 L 12.4824,26.4536 L 12.4181,26.8053 L 12.3962,27.1811 L 12.4171,27.5778  L 12.4807,27.9953 L 12.5871,28.4337 L 12.7268,28.8672 L 12.888,29.2621 L 13.0707,29.6185 L 13.2748,29.9361  L 13.4991,30.2113 L 13.7421,30.44 L 14.0038,30.6221 L 14.2842,30.7578 L 14.5819,30.8437 L 14.8952,30.8763  z M 10.0908,31.9959 L 9.54787,29.2915 L 9.52054,29.1594 L 9.48943,29.0164 L 9.45453,28.8625 L 9.41585,28.6976  L 9.37247,28.5225 L 9.32347,28.3379 L 9.26884,28.1438 L 9.2086,27.9402 L 9.24124,27.9337 L 11.7656,31.6597  L 13.0811,31.3956 L 11.91,25.562 L 10.856,25.7736 L 11.3891,28.429 L 11.4165,28.5602 L 11.4479,28.7008  L 11.4833,28.8507 L 11.5227,29.0099 L 11.5655,29.1784 L 11.6114,29.3565 L 11.6602,29.544 L 11.712,29.741  L 11.6793,29.7476 L 9.18111,26.1098 L 7.87387,26.3722 L 9.04495,32.2059 z M -9.56517,29.4326 L -9.33539,29.3344 L -9.13153,29.2147 L -8.95363,29.0732 L -8.80164,28.9101 L -8.6732,28.7242  L -8.56599,28.5144 L -8.48003,28.2806 L -8.41528,28.023 L -8.38675,27.2589 L -8.64066,26.6582 L -9.177,26.2206  L -9.99579,25.9463 L -11.352,25.674 L -12.5231,31.5076 L -11.4038,31.7323 L -10.9445,29.4446 L -10.6096,29.5119  L -10.1129,31.9915 L -8.87918,32.2391 z M -10.5141,28.6131 L -10.7674,28.5622 L -10.4229,26.8465 L -10.1942,26.8924 L -9.86108,27.0113 L -9.64612,27.2106  L -9.54929,27.4904 L -9.57059,27.8505 L -9.69844,28.2413 L -9.89833,28.4987 L -10.1702,28.6226 z M 7.77847,32.3746 L 7.70535,31.7622 L 7.13155,31.5958 L 6.62755,27.3758 L 7.14601,27.0789 L 7.07288,26.4665  L 4.84705,26.7324 L 4.92018,27.3447 L 5.49394,27.5112 L 5.99794,31.7311 L 5.47951,32.0281 L 5.55264,32.6404  z M -5.15335,26.6958 L -6.6179,26.5209 L -8.75502,32.2579 L -7.53864,32.4032 L -7.0625,31.0165 L -5.74689,31.1737  L -5.61069,32.6335 L -4.4026,32.7777 z M -6.77118,30.0526 L -6.26797,28.5097 L -6.17737,28.2342 L -6.09883,27.9718 L -6.03238,27.7227 L -5.97797,27.4869  L -5.97183,27.7342 L -5.96329,27.9964 L -5.95232,28.2736 L -5.93896,28.5658 L -5.80307,30.1682 z M 1.28441,32.8992 L 1.17514,30.1431 L 1.16901,30.0083 L 1.16086,29.8622 L 1.1507,29.7046 L 1.1385,29.5357  L 1.12331,29.356 L 1.10406,29.166 L 1.08076,28.9657 L 1.05341,28.7551 L 1.08667,28.7538 L 2.99136,32.8316  L 4.33197,32.7784 L 4.09627,26.8331 L 3.02211,26.8757 L 3.12939,29.5819 L 3.13574,29.7159 L 3.14456,29.8596  L 3.15587,30.0132 L 3.16966,30.1766 L 3.18538,30.3498 L 3.20255,30.5329 L 3.22116,30.7258 L 3.2412,30.9285  L 3.20786,30.9298 L 1.31514,26.9433 L -0.0171204,26.9962 L 0.218567,32.9415 z M -1.03421,32.292 L -1.57455,32.037 L -1.4062,27.7904 L -0.847382,27.579 L -0.822952,26.9628 L -3.06285,26.8741  L -3.08728,27.4902 L -2.54698,27.7452 L -2.71533,31.9918 L -3.27411,32.2032 L -3.29854,32.8194 L -1.05864,32.9082  z "
     stroke="black"
     fill="lightgray"
     stroke-width="0.5"
     id="path1"
     style="stroke:#000000;stroke-opacity:0" />
</svg>
