<?xml version="1.0" standalone="no"?>
<!DOCTYPE svg PUBLIC "-//W3C//DTD SVG 1.1//EN" "http://www.w3.org/Graphics/SVG/1.1/DTD/svg11.dtd">
<svg width="66mm" height="44mm" viewBox="-33 -22 66 44" xmlns="http://www.w3.org/2000/svg" version="1.1">
<title>Logo Divecenter - Neva Divers (small)</title>
<path d="
M 2.07208,21.737 L 4.13599,21.6082 L 6.18358,21.3942 L 8.20676,21.0957 L 10.1976,20.714 L 12.1481,20.2505
 L 14.0507,19.7071 L 15.8979,19.086 L 17.6823,18.3895 L 19.3969,17.6204 L 21.035,16.7818 L 22.59,15.8769
 L 24.056,14.9094 L 25.4269,13.8831 L 26.6976,12.802 L 27.8628,11.6703 L 28.9181,10.4926 L 29.8593,9.27347
 L 30.6826,8.01775 L 31.3849,6.73038 L 31.9632,5.41646 L 32.4155,4.08116 L 32.7398,2.72975 L 32.9349,1.36757
 L 33,-0 L 32.9349,-1.36757 L 32.7398,-2.72975 L 32.4155,-4.08116 L 31.9632,-5.41646 L 31.3849,-6.73038
 L 30.6826,-8.01775 L 29.8593,-9.27347 L 28.9181,-10.4926 L 27.8628,-11.6703 L 26.6976,-12.802 L 25.4269,-13.8831
 L 24.056,-14.9094 L 22.59,-15.8769 L 21.035,-16.7818 L 19.3969,-17.6204 L 17.6823,-18.3895 L 15.8979,-19.086
 L 14.0507,-19.7071 L 12.1481,-20.2505 L 10.1976,-20.714 L 8.20676,-21.0957 L 6.18358,-21.3942 L 4.13599,-21.6082
 L 2.07208,-21.737 L 0,-21.78 L -2.07208,-21.737 L -4.13599,-21.6082 L -6.18358,-21.3942 L -8.20676,-21.0957
 L -10.1976,-20.714 L -12.1481,-20.2505 L -14.0507,-19.7071 L -15.8979,-19.086 L -17.6823,-18.3895 L -19.3969,-17.6204
 L -21.035,-16.7818 L -22.59,-15.8769 L -24.056,-14.9094 L -25.4269,-13.8831 L -26.6976,-12.802 L -27.8628,-11.6703
 L -28.9181,-10.4926 L -29.8593,-9.27347 L -30.6826,-8.01775 L -31.3849,-6.73038 L -31.9632,-5.41646 L -32.4155,-4.08116
 L -32.7398,-2.72975 L -32.9349,-1.36757 L -33,-0 L -32.9349,1.36757 L -32.7398,2.72975 L -32.4155,4.08116
 L -31.9632,5.41646 L -31.3849,6.73038 L -30.6826,8.01775 L -29.8593,9.27347 L -28.9181,10.4926 L -27.8628,11.6703
 L -26.6976,12.802 L -25.4269,13.8831 L -24.056,14.9094 L -22.59,15.8769 L -21.035,16.7818 L -19.3969,17.6204
 L -17.6823,18.3895 L -15.8979,19.086 L -14.0507,19.7071 L -12.1481,20.2505 L -10.1976,20.714 L -8.20676,21.0957
 L -6.18358,21.3942 L -4.13599,21.6082 L -2.07208,21.737 L 0,21.78 z
M 8.5,12.9988 L 8.28073,13.0335 L 8,12.989 L 7.81009,13.0191 L 7.80901,13.0186 L 7.5,12.9696
 L 7.32446,12.9974 L 7.30901,12.9895 L 7,12.9406 L 6.83862,12.9661 L 6.80901,12.951 L 6.5,12.9021
 L 6.35249,12.9255 L 6.30901,12.9033 L 6,12.8544 L 5.86603,12.8756 L 5.80901,12.8465 L 5.5,12.7976
 L 5.37914,12.8167 L 5.30901,12.781 L 5,12.732 L 4.89177,12.7492 L 4.80901,12.707 L 4.5,12.6581
 L 4.40387,12.6733 L 4.30901,12.625 L 4,12.576 L 3.91537,12.5894 L 3.80901,12.5352 L 3.5,12.4863
 L 3.42622,12.498 L 3.30901,12.4382 L 3,12.3893 L 2.93634,12.3994 L 2.80901,12.3345 L 2.5,12.2856
 L 2.44572,12.2942 L 2.30901,12.2245 L 2,12.1756 L 1.9543,12.1828 L 1.80901,12.1088 L 1.5,12.0598
 L 1.46202,12.0658 L 1.30901,11.9879 L 1,11.9389 L 0.968887,11.9439 L 0.809006,11.8624 L 0.5,11.8135
 L 0.474808,11.8175 L 0.309006,11.733 L 0,11.6841 L -0.0201874,11.6873 L -0.190994,11.6002 L -0.5,11.5513
 L -0.516174,11.5538 L -0.690994,11.4648 L -1,11.4158 L -1.01314,11.4179 L -1.19099,11.3273 L -1.5,11.2784
 L -1.51112,11.2801 L -1.69099,11.1885 L -2,11.1395 L -2.01009,11.1411 L -2.19099,11.049 L -2.5,11
 L -2.51012,11.0016 L -2.69099,10.9094 L -3,10.8605 L -3.01112,10.8622 L -3.19099,10.7706 L -3.5,10.7217
 L -3.51314,10.7237 L -3.69099,10.6331 L -4,10.5842 L -4.01617,10.5867 L -4.19099,10.4977 L -4.5,10.4487
 L -4.5202,10.4519 L -4.69099,10.3649 L -5,10.316 L -5.02519,10.32 L -5.19099,10.2355 L -5.5,10.1865
 L -5.53111,10.1915 L -5.69099,10.11 L -6,10.0611 L -6.03796,10.0671 L -6.19099,9.98911 L -6.5,9.94017
 L -6.54572,9.9474 L -6.69099,9.87338 L -7,9.82443 L -7.05429,9.83304 L -7.19099,9.76338 L -7.5,9.71443
 L -7.56366,9.72452 L -7.69099,9.65964 L -8,9.61069 L -8.07379,9.62238 L -8.19099,9.56267 L -8.5,9.51372
 L -8.58464,9.52713 L -8.69099,9.47293 L -9,9.42398 L -9.09613,9.43921 L -9.19099,9.39087 L -9.5,9.34193
 L -9.60822,9.35907 L -9.69099,9.31689 L -10,9.26796 L -10.1208,9.28709 L -10.191,9.25136 L -10.5,9.20242
 L -10.634,9.22363 L -10.691,9.19458 L -11,9.14565 L -11.1475,9.16901 L -11.191,9.14684 L -11.5,9.0979
 L -11.6614,9.12346 L -11.691,9.10835 L -12,9.05942 L -12.1755,9.08722 L -12.191,9.07933 L -12.5,9.0304
 L -12.6899,9.06047 L -12.691,9.05991 L -13,9.01097 L -13.2193,9.0457 L -13.5,9.00122 L -13.75,9.04082
 L -14,9.00122 L -14.2807,9.04568 L -14.5,9.01097 L -14.809,9.05991 L -14.8101,9.06047 L -15,9.0304
 L -15.309,9.07933 L -15.3245,9.08722 L -15.5,9.05942 L -15.809,9.10835 L -15.8387,9.12346 L -16,9.0979
 L -16.309,9.14684 L -16.3525,9.16901 L -16.5,9.14565 L -16.809,9.19458 L -16.866,9.22363 L -17,9.20242
 L -17.309,9.25136 L -17.3792,9.28709 L -17.5,9.26796 L -17.809,9.31689 L -17.8918,9.35907 L -18,9.34193
 L -18.309,9.39087 L -18.4039,9.43921 L -18.5,9.42398 L -18.809,9.47293 L -18.9154,9.52713 L -19,9.51372
 L -19.309,9.56267 L -19.4262,9.62238 L -19.5,9.61069 L -19.5851,9.62418 L -19.7169,9.43031 L -20.3586,8.33463
 L -20.92,7.20602 L -21.3988,6.049 L -21.7931,4.8681 L -22.1015,3.66798 L -22.3226,2.45338 L -22.4556,1.22911
 L -22.4639,1 L -15,1 L -15,-1 L -22.4639,-1 L -22.4556,-1.22911 L -22.3226,-2.45338
 L -22.1015,-3.66798 L -21.7931,-4.8681 L -21.3988,-6.049 L -20.92,-7.20602 L -20.3586,-8.33463 L -19.7169,-9.43031
 L -18.9974,-10.4888 L -18.2029,-11.5059 L -17.3365,-12.4776 L -16.4018,-13.4 L -15.4023,-14.2695 L -14.342,-15.0828
 L -13.2252,-15.8365 L -12.0561,-16.5277 L -10.8394,-17.1537 L -9.58003,-17.712 L -8.28279,-18.2004 L -6.95288,-18.6169
 L -5.59552,-18.96 L -4.21606,-19.2283 L -2.81999,-19.4206 L -1.41278,-19.5364 L -1,-19.5477 L -1,-11
 L 1,-11 L 1,-19.5477 L 1.41278,-19.5364 L 2.81999,-19.4206 L 4.21606,-19.2283 L 5.59552,-18.96
 L 6.95288,-18.6169 L 8.28279,-18.2004 L 9.58003,-17.712 L 10.8394,-17.1537 L 12.0561,-16.5277 L 13.2252,-15.8365
 L 14.342,-15.0828 L 15.4023,-14.2695 L 16.4018,-13.4 L 17.3365,-12.4776 L 18.2029,-11.5059 L 18.9974,-10.4888
 L 19.7169,-9.43031 L 20.3586,-8.33463 L 20.92,-7.20602 L 21.3988,-6.049 L 21.7931,-4.8681 L 22.1015,-3.66798
 L 22.3226,-2.45338 L 22.4556,-1.22911 L 22.4639,-1 L 15,-1 L 15,1 L 22.4639,1
 L 22.4556,1.22911 L 22.3226,2.45338 L 22.1015,3.66798 L 21.7931,4.8681 L 21.3988,6.049 L 20.92,7.20602
 L 20.3586,8.33463 L 19.7169,9.43031 L 18.9974,10.4888 L 18.2412,11.4568 L 18.191,11.4648 L 18.0162,11.5538
 L 18,11.5513 L 17.691,11.6002 L 17.5202,11.6872 L 17.5,11.6841 L 17.191,11.733 L 17.0252,11.8175
 L 17,11.8135 L 16.691,11.8624 L 16.5311,11.9439 L 16.5,11.9389 L 16.191,11.9879 L 16.038,12.0658
 L 16,12.0598 L 15.691,12.1088 L 15.5457,12.1828 L 15.5,12.1756 L 15.191,12.2245 L 15.0543,12.2942
 L 15,12.2856 L 14.691,12.3345 L 14.5636,12.3994 L 14.5,12.3893 L 14.191,12.4382 L 14.0738,12.498
 L 14,12.4863 L 13.691,12.5352 L 13.5846,12.5894 L 13.5,12.576 L 13.191,12.625 L 13.0961,12.6733
 L 13,12.6581 L 12.691,12.707 L 12.6082,12.7492 L 12.5,12.732 L 12.191,12.781 L 12.1208,12.8167
 L 12,12.7976 L 11.691,12.8465 L 11.634,12.8756 L 11.5,12.8544 L 11.191,12.9033 L 11.1475,12.9255
 L 11,12.9021 L 10.691,12.951 L 10.6614,12.9661 L 10.5,12.9406 L 10.191,12.9895 L 10.1755,12.9974
 L 10,12.9696 L 9.69098,13.0186 L 9.6899,13.0191 L 9.5,12.989 L 9.21925,13.0335 L 9,12.9988
 L 8.75,13.0384 z
M -6.36212,5.7507 L -7.17874,5.7507 L -7.24088,5.74944 L -7.30164,5.74564 L -7.36102,5.7393 L -7.41902,5.73045
 L -7.47563,5.71906 L -7.53087,5.70514 L -7.58473,5.68867 L -7.63721,5.66969 L -7.68829,5.64818 L -7.73802,5.62411
 L -7.78635,5.59753 L -7.83331,5.56842 L -7.87889,5.53679 L -7.92203,5.50018 L -7.96172,5.45624 L -7.99796,5.40492
 L -8.03073,5.34624 L -8.06007,5.2802 L -8.08595,5.20679 L -8.10838,5.12602 L -8.12737,5.03789 L -8.1429,4.94238
 L -8.15497,4.83954 L -8.1636,4.72931 L -8.16878,4.61172 L -8.1705,4.48679 L -8.1705,-3.93266 L -1.31905,5.74721
 L -1.35614,5.74944 L -1.4211,5.7507 L -2.23772,5.7507 L -2.23772,6.78125 L 4.17889,6.78125 L 4.52446,6.77583
 L 4.86116,6.75961 L 5.18903,6.73257 L 5.50801,6.69472 L 5.81815,6.64604 L 6.11943,6.58656 L 6.41183,6.51627
 L 6.6954,6.43513 L 6.97009,6.34322 L 7.23593,6.24046 L 7.49292,6.12689 L 7.74104,6.00252 L 7.9803,5.86732
 L 8.21071,5.72252 L 8.43225,5.56932 L 8.64493,5.40771 L 8.84875,5.23772 L 9.04372,5.05933 L 9.22981,4.87253
 L 9.40706,4.67734 L 9.57544,4.47375 L 9.73495,4.26176 L 9.88562,4.04138 L 10.0274,3.81259 L 10.1604,3.57541
 L 10.2844,3.32982 L 10.3995,3.0771 L 10.5054,2.81853 L 10.602,2.55408 L 10.6895,2.28375 L 10.7677,2.00755
 L 10.8367,1.72549 L 10.8966,1.43758 L 10.9472,1.14378 L 10.9886,0.844116 L 11.0208,0.538589 L 11.0439,0.227188
 L 11.0577,-0.0900726 L 11.0623,-0.413208 L 11.0515,-0.912201 L 11.019,-1.39209 L 10.9649,-1.85289 L 10.8892,-2.29459
 L 10.7919,-2.71718 L 10.6729,-3.12068 L 10.5323,-3.50507 L 10.3701,-3.87038 L 10.1862,-4.21657 L 9.9807,-4.54367
 L 9.75357,-4.85167 L 9.50482,-5.14056 L 9.23442,-5.41037 L 8.94496,-5.66063 L 8.63892,-5.89087 L 8.31631,-6.10107
 L 7.97713,-6.29128 L 7.62138,-6.46146 L 7.24907,-6.61162 L 6.86017,-6.74174 L 6.45471,-6.85187 L 6.03268,-6.94196
 L 5.5941,-7.01202 L 5.13893,-7.06209 L 4.66719,-7.09212 L 4.17889,-7.10213 L -2.23772,-7.10213 L -2.23772,-6.07158
 L -1.4211,-6.07158 L -1.35896,-6.07037 L -1.2982,-6.06674 L -1.23883,-6.0607 L -1.18085,-6.05225 L -1.12424,-6.04137
 L -1.069,-6.02808 L -1.01515,-6.01236 L -0.962692,-5.99423 L -0.911606,-5.97368 L -0.861908,-5.95071 L -0.813599,-5.92534
 L -0.766663,-5.89754 L -0.7211,-5.86732 L -0.677933,-5.83252 L -0.638229,-5.79094 L -0.601974,-5.74255 L -0.569183,-5.68739
 L -0.539825,-5.62544 L -0.513931,-5.55669 L -0.491486,-5.48116 L -0.472504,-5.39883 L -0.456955,-5.30972 L -0.44487,-5.21381
 L -0.436249,-5.11111 L -0.431061,-5.00163 L -0.429337,-4.88536 L -0.429337,2.35652 L -7.1205,-7.10213 L -11.4371,-7.10213
 L -11.4371,-6.07158 L -10.6205,-6.07158 L -10.5612,-6.07037 L -10.5029,-6.06674 L -10.4457,-6.0607 L -10.3895,-6.05225
 L -10.3343,-6.04137 L -10.2801,-6.02808 L -10.227,-6.01236 L -10.175,-5.99423 L -10.1239,-5.97368 L -10.0739,-5.95071
 L -10.025,-5.92534 L -9.97705,-5.89754 L -9.93016,-5.86732 L -9.88557,-5.83252 L -9.84456,-5.79094 L -9.8071,-5.74255
 L -9.77321,-5.68739 L -9.74289,-5.62544 L -9.71614,-5.55669 L -9.69295,-5.48116 L -9.67334,-5.39883 L -9.65729,-5.30972
 L -9.64479,-5.21381 L -9.63588,-5.11111 L -9.63052,-5.00163 L -9.62874,-4.88536 L -9.62874,4.48679 L -9.63048,4.61172
 L -9.63565,4.72931 L -9.64429,4.83954 L -9.65637,4.94238 L -9.67191,5.03789 L -9.69089,5.12602 L -9.71333,5.20679
 L -9.73923,5.2802 L -9.76859,5.34624 L -9.80138,5.40492 L -9.83763,5.45624 L -9.87735,5.50018 L -9.9205,5.53679
 L -9.96606,5.56842 L -10.013,5.59753 L -10.0613,5.62411 L -10.111,5.64818 L -10.1621,5.66969 L -10.2146,5.68867
 L -10.2684,5.70514 L -10.3236,5.71906 L -10.3802,5.73045 L -10.4382,5.7393 L -10.4976,5.74564 L -10.5584,5.74944
 L -10.6205,5.7507 L -11.4371,5.7507 L -11.4371,6.78125 L -6.36212,6.78125 z
M 2.64282,5.5757 L 2.64282,-5.91605 L 3.75121,-5.91605 L 4.05061,-5.90799 L 4.33865,-5.88382 L 4.61528,-5.84355
 L 4.88052,-5.78717 L 5.1344,-5.71468 L 5.37686,-5.62608 L 5.60796,-5.52136 L 5.82765,-5.40054 L 6.03596,-5.26363
 L 6.23288,-5.11058 L 6.41841,-4.94144 L 6.59254,-4.75618 L 6.75531,-4.55482 L 6.90633,-4.33702 L 7.04526,-4.10243
 L 7.17212,-3.85104 L 7.28688,-3.58286 L 7.38957,-3.29785 L 7.48019,-2.99606 L 7.55872,-2.67749 L 7.62517,-2.3421
 L 7.67953,-1.98991 L 7.72182,-1.62094 L 7.75203,-1.23515 L 7.77014,-0.832581 L 7.77618,-0.413208 L 7.77014,0.00759888
 L 7.75203,0.41449 L 7.72182,0.807465 L 7.67953,1.18652 L 7.62517,1.55165 L 7.55872,1.90286 L 7.48019,2.24016
 L 7.38957,2.56354 L 7.28688,2.87299 L 7.17212,3.16852 L 7.04526,3.45012 L 6.90633,3.71782 L 6.75531,3.97159
 L 6.59244,4.20888 L 6.41795,4.42719 L 6.23184,4.62653 L 6.03412,4.80687 L 5.82477,4.96823 L 5.60381,5.1106
 L 5.37123,5.23399 L 5.12703,5.33841 L 4.8712,5.42383 L 4.60376,5.49028 L 4.32472,5.53773 L 4.03404,5.56621
 L 3.73174,5.5757 z
M -30.9524,-1 L -30.9388,-1.28468 L -30.7556,-2.56432 L -30.4509,-3.83382 L -30.0261,-5.08818 L -29.4827,-6.32248
 L -28.8231,-7.53181 L -28.0496,-8.71144 L -27.1655,-9.85667 L -26.1742,-10.963 L -25.0795,-12.0261 L -23.8859,-13.0417
 L -22.598,-14.0058 L -21.2209,-14.9147 L -19.7601,-15.7647 L -18.2213,-16.5525 L -16.6106,-17.2749 L -14.9344,-17.9292
 L -13.1992,-18.5128 L -11.4118,-19.0232 L -10.5786,-19.2212 L -11.803,-18.6785 L -13.1277,-17.9968 L -14.4007,-17.2442
 L -15.6169,-16.4235 L -16.7714,-15.538 L -17.8597,-14.5911 L -18.8776,-13.5867 L -19.8209,-12.5286 L -20.686,-11.4211
 L -21.4695,-10.2686 L -22.1683,-9.07549 L -22.7795,-7.84657 L -23.3009,-6.58669 L -23.7303,-5.30081 L -24.066,-3.99402
 L -24.3068,-2.67146 L -24.4516,-1.33838 L -24.4639,-1 z
M 24.4639,-1 L 24.4516,-1.33838 L 24.3068,-2.67146 L 24.066,-3.99402 L 23.7303,-5.30081 L 23.3009,-6.58669
 L 22.7795,-7.84657 L 22.1683,-9.07549 L 21.4695,-10.2686 L 20.686,-11.4211 L 19.8209,-12.5286 L 18.8776,-13.5867
 L 17.8597,-14.5911 L 16.7714,-15.538 L 15.6169,-16.4235 L 14.4007,-17.2442 L 13.1277,-17.9968 L 11.803,-18.6785
 L 10.5786,-19.2212 L 11.4118,-19.0232 L 13.1992,-18.5128 L 14.9344,-17.9292 L 16.6106,-17.2749 L 18.2213,-16.5525
 L 19.7601,-15.7647 L 21.2209,-14.9147 L 22.598,-14.0058 L 23.8859,-13.0417 L 25.0795,-12.0261 L 26.1742,-10.963
 L 27.1655,-9.85667 L 28.0496,-8.71144 L 28.8231,-7.53181 L 29.4827,-6.32248 L 30.0261,-5.08818 L 30.4509,-3.83382
 L 30.7556,-2.56432 L 30.9388,-1.28468 L 30.9524,-1 z
M 21.4695,10.2686 L 22.1683,9.07549 L 22.7795,7.84657 L 23.3009,6.58669 L 23.7303,5.30081 L 24.066,3.99402
 L 24.3068,2.67146 L 24.4516,1.33838 L 24.4639,1 L 30.9524,1 L 30.9388,1.28468 L 30.7556,2.56432
 L 30.4509,3.83382 L 30.0261,5.08818 L 29.4827,6.32248 L 28.8231,7.53181 L 28.0496,8.71144 L 27.6069,9.2849
 L 27.5,9.26796 L 27.191,9.31689 L 27.1082,9.35907 L 27,9.34193 L 26.691,9.39087 L 26.5961,9.43921
 L 26.5,9.42398 L 26.191,9.47293 L 26.0846,9.52713 L 26,9.51372 L 25.691,9.56267 L 25.5738,9.62238
 L 25.5,9.61069 L 25.191,9.65964 L 25.0636,9.72452 L 25,9.71443 L 24.691,9.76338 L 24.5543,9.83302
 L 24.5,9.82443 L 24.191,9.87338 L 24.0457,9.9474 L 24,9.94017 L 23.691,9.98911 L 23.5379,10.0671
 L 23.5,10.0611 L 23.191,10.11 L 23.0311,10.1915 L 23,10.1865 L 22.691,10.2355 L 22.5252,10.3199
 L 22.5,10.316 L 22.191,10.3649 L 22.0202,10.4519 L 22,10.4487 L 21.691,10.4977 L 21.5162,10.5867
 L 21.5,10.5842 L 21.2254,10.6277 z
M -26.1742,10.963 L -27.1655,9.85667 L -28.0496,8.71144 L -28.8231,7.53181 L -29.4827,6.32248 L -30.0261,5.08818
 L -30.4509,3.83382 L -30.7556,2.56432 L -30.9388,1.28468 L -30.9524,1 L -24.4639,1 L -24.4516,1.33838
 L -24.3068,2.67146 L -24.066,3.99402 L -23.7303,5.30081 L -23.3009,6.58669 L -22.7795,7.84657 L -22.1683,9.07549
 L -21.5833,10.0743 L -21.809,10.11 L -21.9689,10.1915 L -22,10.1865 L -22.309,10.2355 L -22.4748,10.3199
 L -22.5,10.316 L -22.809,10.3649 L -22.9798,10.4519 L -23,10.4487 L -23.309,10.4977 L -23.4838,10.5867
 L -23.5,10.5842 L -23.809,10.6331 L -23.9869,10.7237 L -24,10.7217 L -24.309,10.7706 L -24.4889,10.8622
 L -24.5,10.8605 L -24.809,10.9094 L -24.9899,11.0016 L -25,11 L -25.309,11.049 L -25.4899,11.1411
 L -25.5,11.1395 L -25.809,11.1885 L -25.8962,11.2329 z
M -1.9465,20.4196 L -3.88533,20.2987 L -5.80881,20.0976 L -7.70938,19.8172 L -9.57951,19.4586 L -11.4118,19.0232
 L -13.1992,18.5128 L -14.9344,17.9292 L -16.6106,17.2749 L -18.2213,16.5525 L -19.7601,15.7647 L -21.2209,14.9147
 L -22.598,14.0058 L -23.8859,13.0417 L -24.1694,12.8005 L -24.0111,12.7199 L -24,12.7216 L -23.691,12.6727
 L -23.5131,12.5821 L -23.5,12.5842 L -23.191,12.5352 L -23.0162,12.4462 L -23,12.4487 L -22.691,12.3998
 L -22.5202,12.3127 L -22.5,12.3159 L -22.191,12.267 L -22.0252,12.1825 L -22,12.1865 L -21.691,12.1376
 L -21.5311,12.0561 L -21.5,12.0611 L -21.191,12.0121 L -21.038,11.9342 L -21,11.9402 L -20.691,11.8912
 L -20.5457,11.8172 L -20.5,11.8244 L -20.191,11.7755 L -20.0543,11.7058 L -20,11.7144 L -19.691,11.6655
 L -19.5637,11.6006 L -19.5,11.6107 L -19.191,11.5618 L -19.0738,11.502 L -19,11.5137 L -18.691,11.4648
 L -18.5846,11.4106 L -18.5,11.424 L -18.191,11.375 L -18.0961,11.3267 L -18,11.3419 L -17.691,11.293
 L -17.6082,11.2508 L -17.5,11.268 L -17.191,11.219 L -17.1209,11.1833 L -17,11.2024 L -16.691,11.1535
 L -16.634,11.1244 L -16.5,11.1456 L -16.191,11.0967 L -16.1475,11.0745 L -16,11.0979 L -15.691,11.049
 L -15.6614,11.0339 L -15.5,11.0594 L -15.191,11.0105 L -15.1755,11.0026 L -15,11.0304 L -14.691,10.9814
 L -14.6899,10.9809 L -14.5,11.011 L -14.2193,10.9665 L -14,11.0012 L -13.75,10.9616 L -13.5,11.0012
 L -13.2807,10.9665 L -13,11.011 L -12.8101,10.9809 L -12.809,10.9814 L -12.5,11.0304 L -12.3245,11.0026
 L -12.309,11.0105 L -12,11.0594 L -11.8386,11.0339 L -11.809,11.049 L -11.5,11.0979 L -11.3525,11.0745
 L -11.309,11.0967 L -11,11.1456 L -10.866,11.1244 L -10.809,11.1535 L -10.5,11.2024 L -10.3792,11.1833
 L -10.309,11.219 L -10,11.268 L -9.89178,11.2508 L -9.80902,11.293 L -9.5,11.3419 L -9.40388,11.3267
 L -9.30902,11.375 L -9,11.424 L -8.91537,11.4106 L -8.80902,11.4648 L -8.5,11.5137 L -8.42622,11.502
 L -8.30902,11.5618 L -8,11.6107 L -7.93636,11.6006 L -7.80902,11.6655 L -7.5,11.7144 L -7.44574,11.7058
 L -7.30902,11.7755 L -7,11.8244 L -6.95432,11.8172 L -6.80902,11.8912 L -6.5,11.9402 L -6.46204,11.9342
 L -6.30902,12.0121 L -6,12.0611 L -5.96889,12.0561 L -5.80902,12.1376 L -5.5,12.1865 L -5.47482,12.1825
 L -5.30902,12.267 L -5,12.3159 L -4.97983,12.3128 L -4.80902,12.3998 L -4.5,12.4487 L -4.48384,12.4462
 L -4.30902,12.5352 L -4,12.5842 L -3.98688,12.5821 L -3.80902,12.6727 L -3.5,12.7216 L -3.48889,12.7199
 L -3.30902,12.8115 L -3,12.8605 L -2.98991,12.8589 L -2.80902,12.951 L -2.5,13 L -2.4899,12.9984
 L -2.30902,13.0906 L -2,13.1395 L -1.98889,13.1378 L -1.80902,13.2294 L -1.5,13.2783 L -1.48688,13.2763
 L -1.30902,13.3669 L -1,13.4158 L -0.983841,13.4133 L -0.809021,13.5023 L -0.5,13.5513 L -0.479813,13.5481
 L -0.309021,13.6351 L 0,13.684 L 0.025177,13.6801 L 0.190979,13.7645 L 0.5,13.8135 L 0.531097,13.8085
 L 0.690979,13.89 L 1,13.9389 L 1.03795,13.9329 L 1.19098,14.0109 L 1.5,14.0598 L 1.5457,14.0526
 L 1.69098,14.1266 L 2,14.1756 L 2.05428,14.167 L 2.19098,14.2366 L 2.5,14.2856 L 2.56364,14.2755
 L 2.69098,14.3404 L 3,14.3893 L 3.07378,14.3776 L 3.19098,14.4373 L 3.5,14.4863 L 3.58463,14.4729
 L 3.69098,14.5271 L 4,14.576 L 4.09612,14.5608 L 4.19098,14.6091 L 4.5,14.6581 L 4.6082,14.6409
 L 4.69098,14.6831 L 5,14.732 L 5.12083,14.7129 L 5.19098,14.7486 L 5.5,14.7976 L 5.63396,14.7764
 L 5.69098,14.8054 L 6,14.8544 L 6.14748,14.831 L 6.19098,14.8532 L 6.5,14.9021 L 6.66135,14.8765
 L 6.69098,14.8916 L 7,14.9406 L 7.17551,14.9128 L 7.19098,14.9207 L 7.5,14.9696 L 7.68988,14.9395
 L 7.69098,14.9401 L 8,14.989 L 8.21925,14.9543 L 8.5,14.9988 L 8.75,14.9592 L 9,14.9988
 L 9.28073,14.9543 L 9.5,14.989 L 9.80901,14.9401 L 9.8101,14.9395 L 10,14.9696 L 10.309,14.9207
 L 10.3245,14.9128 L 10.5,14.9406 L 10.809,14.8916 L 10.8386,14.8765 L 11,14.9021 L 11.309,14.8532
 L 11.3525,14.831 L 11.5,14.8544 L 11.809,14.8054 L 11.866,14.7764 L 12,14.7976 L 12.309,14.7486
 L 12.3792,14.7129 L 12.5,14.732 L 12.809,14.6831 L 12.8918,14.6409 L 13,14.6581 L 13.309,14.6091
 L 13.4039,14.5608 L 13.5,14.576 L 13.809,14.5271 L 13.9154,14.4729 L 14,14.4863 L 14.309,14.4373
 L 14.4262,14.3776 L 14.5,14.3893 L 14.809,14.3404 L 14.9363,14.2755 L 15,14.2856 L 15.309,14.2366
 L 15.4457,14.167 L 15.5,14.1756 L 15.809,14.1266 L 15.9543,14.0526 L 16,14.0598 L 16.309,14.0109
 L 16.462,13.9329 L 16.5,13.9389 L 16.809,13.89 L 16.9689,13.8085 L 17,13.8135 L 17.309,13.7645
 L 17.4748,13.68 L 17.5,13.684 L 17.809,13.6351 L 17.9798,13.5481 L 18,13.5513 L 18.309,13.5023
 L 18.4838,13.4133 L 18.5,13.4158 L 18.809,13.3669 L 18.9869,13.2763 L 19,13.2783 L 19.309,13.2294
 L 19.4889,13.1378 L 19.5,13.1395 L 19.809,13.0906 L 19.9899,12.9984 L 20,13 L 20.309,12.951
 L 20.4899,12.8589 L 20.5,12.8605 L 20.809,12.8115 L 20.9889,12.7199 L 21,12.7216 L 21.309,12.6727
 L 21.4869,12.5821 L 21.5,12.5842 L 21.809,12.5352 L 21.9838,12.4462 L 22,12.4487 L 22.309,12.3998
 L 22.4798,12.3127 L 22.5,12.3159 L 22.809,12.267 L 22.9748,12.1825 L 23,12.1865 L 23.309,12.1376
 L 23.4689,12.0561 L 23.5,12.0611 L 23.809,12.0121 L 23.962,11.9342 L 24,11.9402 L 24.309,11.8912
 L 24.4543,11.8172 L 24.5,11.8244 L 24.809,11.7755 L 24.9457,11.7058 L 25,11.7144 L 25.309,11.6655
 L 25.4363,11.6006 L 25.5,11.6107 L 25.5087,11.6093 L 25.0795,12.0261 L 23.8859,13.0417 L 22.598,14.0058
 L 21.2209,14.9147 L 19.7601,15.7647 L 18.2213,16.5525 L 16.6106,17.2749 L 14.9344,17.9292 L 13.1992,18.5128
 L 11.4118,19.0232 L 9.57951,19.4586 L 7.70938,19.8172 L 5.80881,20.0976 L 3.88533,20.2987 L 1.9465,20.4196
 L 0,20.46 z
" stroke="black" fill="lightgray" stroke-width="0.5"/>
</svg>
