<?xml version="1.0" encoding="UTF-8" standalone="no"?>
<svg
   width="108mm"
   height="76mm"
   viewBox="-54 -38 108 76"
   version="1.1"
   id="svg1"
   sodipodi:docname="logoND_full_tech.svg"
   inkscape:version="1.4.3 (0d15f75, 2025-12-25)"
   xmlns:inkscape="http://www.inkscape.org/namespaces/inkscape"
   xmlns:sodipodi="http://sodipodi.sourceforge.net/DTD/sodipodi-0.dtd"
   xmlns="http://www.w3.org/2000/svg"
   xmlns:svg="http://www.w3.org/2000/svg"
   xmlns:rdf="http://www.w3.org/1999/02/22-rdf-syntax-ns#"
   xmlns:cc="http://creativecommons.org/ns#"
   xmlns:dc="http://purl.org/dc/elements/1.1/">
  <defs
     id="defs1" />
  <sodipodi:namedview
     id="namedview1"
     pagecolor="#ffffff"
     bordercolor="#000000"
     borderopacity="0.25"
     inkscape:showpageshadow="2"
     inkscape:pageopacity="0.0"
     inkscape:pagecheckerboard="0"
     inkscape:deskcolor="#d1d1d1"
     inkscape:document-units="mm"
     inkscape:zoom="1.5631751"
     inkscape:cx="227.7416"
     inkscape:cy="161.53021"
     inkscape:window-width="1600"
     inkscape:window-height="837"
     inkscape:window-x="-8"
     inkscape:window-y="-8"
     inkscape:window-maximized="1"
     inkscape:current-layer="svg1" />
  <title
     id="title1">Logo Divecenter - Neva Divers</title>
  <g
     inkscape:groupmode="layer"
     id="layer5"
     inkscape:label="background"
     style="display:inline">
    <ellipse
       style="fill:#000000;stroke-width:0;stroke-linejoin:bevel"
       id="path2-5"
       cx="-0.046640396"
       cy="-0.034137804"
       rx="53.674938"
       ry="37.60181" />
  </g>
  <g
     inkscape:groupmode="layer"
     id="layer1"
     inkscape:label="internal_background"
     style="display:inline;fill:#800000"
     transform="translate(0.0552984,0.0595214)">
    <ellipse
       style="fill:#800000;stroke-width:0;stroke-linejoin:bevel"
       id="path2"
       cx="-0.025440423"
       cy="-0.04962372"
       rx="33.170547"
       ry="21.950375" />
  </g>
  <path
     d="m 3.39069,37.7254 3.3773,-0.2235 3.35061,-0.3715 3.3106,-0.518 3.2577,-0.6625 3.1918,-0.8044 3.1134,-0.943 3.0226,-1.0781 2.9199,-1.2088 2.8058,-1.3348 2.6805,-1.4554 2.5446,-1.5704 2.3988,-1.6791 2.2434,-1.7813 2.0792,-1.8763 1.9068,-1.9641 1.7269,-2.0439 1.5401,-2.1158 1.3472,-2.1794 1.1491,-2.2343 0.9465,-2.28033 0.74,-2.31746 L 53.5742,4.73759 53.8934,2.37347 54,0 l -0.1066,-2.37347 -0.3192,-2.36412 -0.5307,-2.34542 -0.74,-2.31746 -0.9465,-2.28033 -1.1491,-2.2343 -1.3472,-2.1794 -1.5401,-2.1158 -1.7269,-2.0439 -1.9068,-1.9641 -2.0792,-1.8763 -2.2434,-1.7813 -2.3988,-1.6791 -2.5446,-1.5704 -2.6805,-1.4554 -2.8058,-1.3348 -2.9199,-1.2088 -3.0226,-1.0781 -3.1134,-0.943 -3.1918,-0.8044 -3.2577,-0.6625 -3.3106,-0.518 -3.35061,-0.3715 -3.3773,-0.2235 L 0,-37.8 l -3.39069,0.0746 -3.3773,0.2235 -3.35061,0.3715 -3.3106,0.518 -3.2577,0.6625 -3.1918,0.8044 -3.1134,0.943 -3.0226,1.0781 -2.9199,1.2088 -2.8058,1.3348 -2.6805,1.4554 -2.5446,1.5704 -2.3988,1.6791 -2.2434,1.7813 -2.0792,1.8763 -1.9068,1.9641 -1.7269,2.0439 -1.5401,2.1158 -1.3472,2.1794 -1.1491,2.2343 -0.9465,2.28033 -0.74,2.31746 -0.5307,2.34542 -0.3192,2.36412 L -54,0 l 0.1066,2.37347 0.3192,2.36412 0.5307,2.34542 0.74,2.31746 0.9465,2.28033 1.1491,2.2343 1.3472,2.1794 1.5401,2.1158 1.7269,2.0439 1.9068,1.9641 2.0792,1.8763 2.2434,1.7813 2.3988,1.6791 2.5446,1.5704 2.6805,1.4554 2.8058,1.3348 2.9199,1.2088 3.0226,1.0781 3.1134,0.943 3.1918,0.8044 3.2577,0.6625 3.3106,0.518 3.35061,0.3715 3.3773,0.2235 L 0,37.8 Z m -6.6558,-1.3972 -3.25221,-0.2152 -3.2265,-0.3578 -3.18808,-0.4988 -3.137,-0.6379 -3.0736,-0.7746 -2.998,-0.9082 -2.9107,-1.0381 -2.8118,-1.1641 -2.7018,-1.2853 -2.5812,-1.4015 -2.4504,-1.5122 -2.31,-1.617 -2.1603,-1.7153 -2.0022,-1.8068 -1.8361,-1.8913 -1.6629,-1.9683 -1.4831,-2.0374 -1.2974,-2.0987 -1.1065,-2.1515 L -50.3663,9.05231 -51.0789,6.82068 -51.59,4.56212 -51.8974,2.28557 -52,0 l 0.1026,-2.28557 0.3074,-2.27655 0.5111,-2.25856 0.7126,-2.23163 0.9114,-2.19589 1.1065,-2.1515 1.2974,-2.0987 1.4831,-2.0374 1.6629,-1.9683 1.8361,-1.8913 2.0022,-1.8068 2.1603,-1.7153 2.31,-1.617 2.4504,-1.5122 2.5812,-1.4015 2.7018,-1.2853 2.8118,-1.1641 2.9107,-1.0381 2.998,-0.9082 3.0736,-0.7746 3.137,-0.6379 3.18808,-0.4988 3.2265,-0.3578 3.25221,-0.2152 L 0,-36.4 l 3.26511,0.0718 3.25221,0.2152 3.2265,0.3578 3.18808,0.4988 3.137,0.6379 3.0736,0.7746 2.998,0.9082 2.9107,1.0381 2.8118,1.1641 2.7018,1.2853 2.5812,1.4015 2.4504,1.5122 2.31,1.617 2.1603,1.7153 2.0022,1.8068 1.8361,1.8913 1.6629,1.9683 1.4831,2.0374 1.2974,2.0987 1.1065,2.1515 0.9114,2.19589 0.7126,2.23163 0.5111,2.25856 0.3074,2.27655 L 52,0 51.8974,2.28557 51.59,4.56212 l -0.5111,2.25856 -0.7126,2.23163 -0.9114,2.19589 -1.1065,2.1515 -1.2974,2.0987 -1.4831,2.0374 -1.6629,1.9683 -1.8361,1.8913 -2.0022,1.8068 -2.1603,1.7153 -2.31,1.617 -2.4504,1.5122 -2.5812,1.4015 -2.7018,1.2853 -2.8118,1.1641 -2.9107,1.0381 -2.998,0.9082 -3.0736,0.7746 -3.137,0.6379 L 9.74382,35.7552 6.51732,36.113 3.26511,36.3282 0,36.4 Z m 3.559864,-61.0434 0.707416,-0.2239 0.6082,-0.373 0.50897,-0.5223 0.40198,-0.6621 0.28714,-0.7926 0.17227,-0.923 0.05742,-1.0535 -0.05547,-0.9824 -0.16643,-0.8598 -0.27736,-0.7371 -0.38832,-0.6145 -0.49139,-0.484 -0.58672,-0.3457 -0.682018,-0.2074 -0.777313,-0.0691 H -2.61185 v 8.925 h 2.099963 z m -1.194092,-1.4255 v -5.9374 h 0.487442 l 0.3929904,0.0433 0.3414006,0.1301 0.28984,0.2168 0.238281,0.3036 0.185924,0.3972 0.1328,0.4981 0.07968,0.5988 0.02657,0.6995 -0.02734,0.7251 -0.08204,0.625 -0.1367,0.525 -0.191406,0.425 -0.249222,0.3281 -0.31015,0.2343 -0.3710782,0.1407 -0.4320528,0.0468 z m 8.230728,1.0793 -0.78113,-0.4394 0.70687,-6.3356 0.85875,-0.2564 0.10256,-0.9193 -3.34173,-0.3728 -0.10257,0.9193 0.78104,0.4393 -0.70687,6.3357 -0.85866,0.2563 -0.10257,0.9194 3.34174,0.3728 z m 8.77701,-6.3409 -1.7313,-0.3912 -2.1711,4.674 -0.0637,0.1385 -0.0669,0.1491 -0.0701,0.1596 -0.0733,0.1701 -0.0739,0.1747 -0.0721,0.1735 -0.0701,0.1723 -0.0684,0.1712 -0.065,0.1656 -0.0603,0.1553 -0.0556,0.1452 -0.051,0.1351 0.0176,-0.143 0.0162,-0.1553 0.015,-0.1676 0.0139,-0.1799 0.0125,-0.1866 0.0112,-0.1877 0.0098,-0.1888 0.0085,-0.1899 0.0067,-0.1843 0.0049,-0.1719 0.0028,-0.1596 8e-4,-0.1471 0.0617,-5.1506 -1.74358,-0.394 0.19098,9.1932 1.9265,0.4353 z m -28.3882,8.2849 -0.0228,-2.1991 1.9386,-0.438 0.92502,1.9952 1.78014,-0.4022 -4.11306,-8.2207 -2.158,0.4877 -0.1423,9.1821 z m -0.1575,-6.1413 -0.0102,-0.435 -0.0206,-0.4103 -0.031,-0.3854 -0.0415,-0.3607 0.1328,0.3465 0.1437,0.3664 0.1545,0.3864 0.1656,0.4063 0.9961,2.1969 -1.4265,0.3224 z m -2.8066,7.0048 -0.8177,-9.1617 -1.6773,0.5807 0.6206,5.1161 0.0189,0.1514 0.0218,0.1619 0.0246,0.1725 0.0275,0.1832 0.0293,0.1874 0.0303,0.1854 0.0313,0.1835 0.0322,0.1815 0.0321,0.1749 0.0307,0.1638 0.0293,0.1527 0.028,0.1416 -0.0606,-0.1307 -0.0681,-0.1405 -0.0756,-0.1504 -0.0831,-0.1601 -0.0878,-0.1651 -0.0895,-0.1654 -0.0913,-0.1656 -0.0929,-0.1658 -0.0914,-0.1602 -0.0866,-0.1486 -0.0818,-0.137 -0.0769,-0.1255 -2.6641,-4.4085 -1.6891,0.5849 5.0109,7.7098 z m 34.0576,-0.3381 -2.1734,-0.7526 0.7894,-2.2796 2.0198,0.6994 0.4785,-1.382 -2.0198,-0.6994 0.6871,-1.9845 2.1734,0.7526 0.4785,-1.382 -3.7916,-1.3129 -2.9202,8.4338 3.7916,1.3128 z m 5.4925,-0.1624 0.3701,-0.0586 0.3404,-0.0997 0.3106,-0.1407 0.2807,-0.1817 0.2549,-0.2235 0.2326,-0.266 0.2106,-0.3086 0.1884,-0.3512 0.321,-1.101 -0.1496,-0.9668 -0.6202,-0.8327 -1.0908,-0.6986 -1.8733,-0.8921 -3.8374,8.0579 1.5461,0.7364 1.5049,-3.16 0.4627,0.2203 -0.1845,3.7888 1.7041,0.8115 z m -1.0808,-1.5392 -0.3498,-0.1666 1.1287,-2.37 0.316,0.1505 0.441,0.2949 0.2398,0.3686 0.0386,0.4423 -0.1627,0.5161 -0.329,0.5218 -0.3849,0.3013 -0.4409,0.0808 z m -42.5768,3.527 -0.6396,-1.343 -2.0765,0.9888 -1.0372,-2.178 1.9298,-0.919 -0.6288,-1.3205 -1.9298,0.9191 -0.9029,-1.8961 2.0765,-0.9889 -0.6289,-1.3204 -3.6226,1.7252 3.8374,8.058 z m -8.0162,4.328 -2.1821,-3.5152 -0.1078,-0.1713 -0.1188,-0.1847 -0.1298,-0.198 -0.1409,-0.2114 -0.1528,-0.2232 -0.1658,-0.2337 -0.1786,-0.2441 -0.1915,-0.2545 0.0424,-0.0263 5.5028,3.9109 1.7098,-1.0614 -4.7072,-7.5827 -1.37,0.8504 2.1427,3.4516 0.1074,0.1701 0.1179,0.181 0.1284,0.192 0.1389,0.203 0.1487,0.2144 0.1579,0.2261 0.167,0.2379 0.1762,0.2497 -0.0425,0.0264 -5.4197,-3.8007 -1.6992,1.0548 4.7072,7.5828 z m 55.0116,-0.3123 0.3266,-0.0626 0.3165,-0.1084 0.3063,-0.1542 0.29,-0.1974 0.2674,-0.2382 0.2448,-0.2788 0.2223,-0.3195 0.2017,-0.3746 0.137,-0.3696 0.0724,-0.3647 0.0077,-0.3598 -0.0499,-0.3662 -0.1006,-0.3838 -0.1512,-0.4015 -0.2019,-0.4191 -0.1288,-0.2496 -0.109,-0.2235 -0.0894,-0.1976 -0.0696,-0.1714 -0.0502,-0.154 -0.031,-0.1447 -0.0119,-0.1357 0.0073,-0.1265 0.025,-0.1233 0.0415,-0.126 0.0578,-0.1287 0.0742,-0.1314 0.1065,-0.1449 0.1218,-0.1162 0.137,-0.0873 0.1522,-0.0586 0.1631,-0.0243 0.1696,0.0156 0.1761,0.0555 0.1827,0.0954 0.2877,0.2164 0.2686,0.2798 0.2494,0.3434 0.2302,0.4068 1.2013,-1.0346 -0.1406,-0.2394 -0.1525,-0.2275 -0.1646,-0.2157 -0.1764,-0.2038 -0.1889,-0.1913 -0.2016,-0.1781 -0.2145,-0.1648 -0.2272,-0.1517 -0.5018,-0.2669 -0.4927,-0.1573 -0.4835,-0.0477 -0.4743,0.0619 -0.4478,0.1629 -0.4041,0.2554 -0.3602,0.3478 -0.3166,0.4403 -0.166,0.2919 -0.1289,0.2809 -0.0917,0.27 -0.0547,0.259 -0.0223,0.2523 0.0049,0.2499 0.032,0.2475 0.0594,0.2451 0.0814,0.2474 0.0983,0.2541 0.1153,0.261 0.1322,0.2678 0.1257,0.2426 0.1039,0.2199 0.0822,0.1972 0.0603,0.1744 0.041,0.1579 0.0236,0.1471 0.0064,0.1363 -0.0109,0.1257 -0.0266,0.1205 -0.0406,0.121 -0.0547,0.1215 -0.0688,0.1219 -0.1174,0.1602 -0.1346,0.1302 -0.1519,0.1002 -0.1691,0.0702 -0.1814,0.0323 -0.1887,-0.0137 -0.196,-0.0597 -0.2034,-0.1056 -0.1896,-0.13 -0.1864,-0.153 -0.1833,-0.1759 -0.1801,-0.1987 -0.1718,-0.2165 -0.1583,-0.2293 -0.1449,-0.2421 -0.1315,-0.2549 -0.9229,1.4867 0.1501,0.2427 0.1599,0.2238 0.1697,0.2051 0.1795,0.1863 0.1912,0.1735 0.2048,0.1662 0.2185,0.1591 0.2321,0.1519 0.3401,0.1854 0.3406,0.1342 0.3411,0.083 0.3416,0.0318 z M 2.07208,21.737 l 2.06391,-0.1288 2.04759,-0.214 2.02318,-0.2985 1.99084,-0.3817 1.9505,-0.4635 1.9026,-0.5434 1.8472,-0.6211 1.7844,-0.6965 1.7146,-0.7691 1.6381,-0.8386 1.555,-0.9049 1.466,-0.9675 1.3709,-1.0263 1.2707,-1.0811 1.1652,-1.1317 1.0553,-1.1777 0.9412,-1.21913 0.8233,-1.25572 0.7023,-1.28737 0.5783,-1.31392 0.4523,-1.3353 L 32.7398,2.72975 32.9349,1.36757 33,0 l -0.0651,-1.36757 -0.1951,-1.36218 -0.3243,-1.35141 -0.4523,-1.3353 -0.5783,-1.31392 -0.7023,-1.28737 -0.8233,-1.25572 -0.9412,-1.21913 -1.0553,-1.1777 -1.1652,-1.1317 -1.2707,-1.0811 -1.3709,-1.0263 -1.466,-0.9675 -1.555,-0.9049 -1.6381,-0.8386 -1.7146,-0.7691 -1.7844,-0.6965 -1.8472,-0.6211 -1.9026,-0.5434 -1.9505,-0.4635 -1.99084,-0.3817 -2.02318,-0.2985 -2.04759,-0.214 L 2.07208,-21.737 0,-21.78 l -2.07208,0.043 -2.06391,0.1288 -2.04759,0.214 -2.02318,0.2985 -1.99084,0.3817 -1.9505,0.4635 -1.9026,0.5434 -1.8472,0.6211 -1.7844,0.6965 -1.7146,0.7691 -1.6381,0.8386 -1.555,0.9049 -1.466,0.9675 -1.3709,1.0263 -1.2707,1.0811 -1.1652,1.1317 -1.0553,1.1777 -0.9412,1.21913 -0.8233,1.25572 -0.7023,1.28737 -0.5783,1.31392 -0.4523,1.3353 -0.3243,1.35141 -0.1951,1.36218 L -33,0 l 0.0651,1.36757 0.1951,1.36218 0.3243,1.35141 0.4523,1.3353 0.5783,1.31392 0.7023,1.28737 0.8233,1.25572 0.9412,1.21913 1.0553,1.1777 1.1652,1.1317 1.2707,1.0811 1.3709,1.0263 1.466,0.9675 1.555,0.9049 1.6381,0.8386 1.7146,0.7691 1.7844,0.6965 1.8472,0.6211 1.9026,0.5434 1.9505,0.4635 1.99084,0.3817 2.02318,0.2985 2.04759,0.214 2.06391,0.1288 L 0,21.78 Z M 8.5,12.9988 8.28073,13.0335 8,12.989 7.81009,13.0191 7.80901,13.0186 7.5,12.9696 7.32446,12.9974 7.30901,12.9895 7,12.9406 6.83862,12.9661 6.80901,12.951 6.5,12.9021 6.35249,12.9255 6.30901,12.9033 6,12.8544 5.86603,12.8756 5.80901,12.8465 5.5,12.7976 5.37914,12.8167 5.30901,12.781 5,12.732 4.89177,12.7492 4.80901,12.707 4.5,12.6581 4.40387,12.6733 4.30901,12.625 4,12.576 3.91537,12.5894 3.80901,12.5352 3.5,12.4863 3.42622,12.498 3.30901,12.4382 3,12.3893 2.93634,12.3994 2.80901,12.3345 2.5,12.2856 2.44572,12.2942 2.30901,12.2245 2,12.1756 1.9543,12.1828 1.80901,12.1088 1.5,12.0598 1.46202,12.0658 1.30901,11.9879 1,11.9389 0.968887,11.9439 0.809006,11.8624 0.5,11.8135 0.474808,11.8175 0.309006,11.733 0,11.6841 -0.0201874,11.6873 -0.190994,11.6002 -0.5,11.5513 -0.516174,11.5538 -0.690994,11.4648 -1,11.4158 -1.01314,11.4179 -1.19099,11.3273 -1.5,11.2784 -1.51112,11.2801 -1.69099,11.1885 -2,11.1395 -2.01009,11.1411 -2.19099,11.049 -2.5,11 -2.51012,11.0016 -2.69099,10.9094 -3,10.8605 -3.01112,10.8622 -3.19099,10.7706 -3.5,10.7217 -3.51314,10.7237 -3.69099,10.6331 -4,10.5842 -4.01617,10.5867 -4.19099,10.4977 -4.5,10.4487 -4.5202,10.4519 -4.69099,10.3649 -5,10.316 -5.02519,10.32 -5.19099,10.2355 -5.5,10.1865 -5.53111,10.1915 -5.69099,10.11 -6,10.0611 -6.03796,10.0671 -6.19099,9.98911 -6.5,9.94017 -6.54572,9.9474 -6.69099,9.87338 -7,9.82443 -7.05429,9.83304 -7.19099,9.76338 -7.5,9.71443 -7.56366,9.72452 -7.69099,9.65964 -8,9.61069 -8.07379,9.62238 -8.19099,9.56267 -8.5,9.51372 -8.58464,9.52713 -8.69099,9.47293 -9,9.42398 -9.09613,9.43921 -9.19099,9.39087 -9.5,9.34193 -9.60822,9.35907 -9.69099,9.31689 -10,9.26796 -10.1208,9.28709 -10.191,9.25136 -10.5,9.20242 -10.634,9.22363 -10.691,9.19458 -11,9.14565 -11.1475,9.16901 -11.191,9.14684 -11.5,9.0979 -11.6614,9.12346 -11.691,9.10835 -12,9.05942 -12.1755,9.08722 -12.191,9.07933 -12.5,9.0304 -12.6899,9.06047 -12.691,9.05991 -13,9.01097 -13.2193,9.0457 -13.5,9.00122 -13.75,9.04082 -14,9.00122 -14.2807,9.04568 -14.5,9.01097 -14.809,9.05991 -14.8101,9.06047 -15,9.0304 -15.309,9.07933 -15.3245,9.08722 -15.5,9.05942 -15.809,9.10835 -15.8387,9.12346 -16,9.0979 -16.309,9.14684 -16.3525,9.16901 -16.5,9.14565 -16.809,9.19458 -16.866,9.22363 -17,9.20242 -17.309,9.25136 -17.3792,9.28709 -17.5,9.26796 -17.809,9.31689 -17.8918,9.35907 -18,9.34193 -18.309,9.39087 -18.4039,9.43921 -18.5,9.42398 -18.809,9.47293 -18.9154,9.52713 -19,9.51372 -19.309,9.56267 -19.4262,9.62238 -19.5,9.61069 -19.5851,9.62418 -19.7169,9.43031 -20.3586,8.33463 -20.92,7.20602 -21.3988,6.049 -21.7931,4.8681 -22.1015,3.66798 -22.3226,2.45338 -22.4556,1.22911 -22.4639,1 H -15 v -2 h -7.4639 l 0.0083,-0.22911 0.133,-1.22427 0.2211,-1.2146 0.3084,-1.20012 0.3943,-1.1809 0.4788,-1.15702 0.5614,-1.12861 0.6417,-1.09568 0.7195,-1.05849 0.7945,-1.0171 0.8664,-0.9717 0.9347,-0.9224 0.9995,-0.8695 1.0603,-0.8133 1.1168,-0.7537 1.1691,-0.6912 1.2167,-0.626 1.25937,-0.5583 1.29724,-0.4884 1.32991,-0.4165 1.35736,-0.3431 1.37946,-0.2683 1.39607,-0.1923 1.40721,-0.1158 L -1,-19.5477 V -11 h 2 v -8.5477 l 0.41278,0.0113 1.40721,0.1158 1.39607,0.1923 1.37946,0.2683 1.35736,0.3431 1.32991,0.4165 1.29724,0.4884 1.25937,0.5583 1.2167,0.626 1.1691,0.6912 1.1168,0.7537 1.0603,0.8133 0.9995,0.8695 0.9347,0.9224 0.8664,0.9717 0.7945,1.0171 0.7195,1.05849 0.6417,1.09568 0.5614,1.12861 0.4788,1.15702 0.3943,1.1809 0.3084,1.20012 0.2211,1.2146 0.133,1.22427 L 22.4639,-1 H 15 v 2 h 7.4639 l -0.0083,0.22911 -0.133,1.22427 -0.2211,1.2146 -0.3084,1.20012 -0.3943,1.1809 -0.4788,1.15702 -0.5614,1.12861 -0.6417,1.09568 -0.7195,1.05849 -0.7562,0.968 -0.0502,0.008 -0.1748,0.089 L 18,11.5513 17.691,11.6002 17.5202,11.6872 17.5,11.6841 17.191,11.733 17.0252,11.8175 17,11.8135 16.691,11.8624 16.5311,11.9439 16.5,11.9389 16.191,11.9879 16.038,12.0658 16,12.0598 15.691,12.1088 15.5457,12.1828 15.5,12.1756 15.191,12.2245 15.0543,12.2942 15,12.2856 14.691,12.3345 14.5636,12.3994 14.5,12.3893 14.191,12.4382 14.0738,12.498 14,12.4863 13.691,12.5352 13.5846,12.5894 13.5,12.576 13.191,12.625 13.0961,12.6733 13,12.6581 12.691,12.707 12.6082,12.7492 12.5,12.732 12.191,12.781 12.1208,12.8167 12,12.7976 11.691,12.8465 11.634,12.8756 11.5,12.8544 11.191,12.9033 11.1475,12.9255 11,12.9021 10.691,12.951 10.6614,12.9661 10.5,12.9406 10.191,12.9895 10.1755,12.9974 10,12.9696 9.69098,13.0186 9.6899,13.0191 9.5,12.989 9.21925,13.0335 9,12.9988 8.75,13.0384 Z M -6.36212,5.7507 H -7.17874 L -7.24088,5.74944 -7.30164,5.74564 -7.36102,5.7393 -7.41902,5.73045 -7.47563,5.71906 -7.53087,5.70514 -7.58473,5.68867 -7.63721,5.66969 -7.68829,5.64818 -7.73802,5.62411 -7.78635,5.59753 -7.83331,5.56842 -7.87889,5.53679 -7.92203,5.50018 -7.96172,5.45624 -7.99796,5.40492 -8.03073,5.34624 -8.06007,5.2802 -8.08595,5.20679 -8.10838,5.12602 -8.12737,5.03789 -8.1429,4.94238 -8.15497,4.83954 -8.1636,4.72931 -8.16878,4.61172 -8.1705,4.48679 V -3.93266 L -1.31905,5.74721 -1.35614,5.74944 -1.4211,5.7507 H -2.23772 V 6.78125 H 4.17889 L 4.52446,6.77583 4.86116,6.75961 5.18903,6.73257 5.50801,6.69472 5.81815,6.64604 6.11943,6.58656 6.41183,6.51627 6.6954,6.43513 6.97009,6.34322 7.23593,6.24046 7.49292,6.12689 7.74104,6.00252 7.9803,5.86732 8.21071,5.72252 8.43225,5.56932 8.64493,5.40771 8.84875,5.23772 9.04372,5.05933 9.22981,4.87253 9.40706,4.67734 9.57544,4.47375 9.73495,4.26176 9.88562,4.04138 10.0274,3.81259 l 0.133,-0.23718 0.124,-0.24559 0.1151,-0.25272 0.1059,-0.25857 0.0966,-0.26445 0.0875,-0.27033 0.0782,-0.2762 0.069,-0.28206 0.0599,-0.28791 0.0506,-0.2938 0.0414,-0.299664 0.0322,-0.305527 0.0231,-0.311401 0.0138,-0.3172606 0.0046,-0.3231354 -0.0108,-0.498993 -0.0325,-0.479889 -0.0541,-0.4608 -0.0757,-0.4417 -0.0973,-0.42259 -0.119,-0.4035 -0.1406,-0.38439 -0.1622,-0.36531 -0.1839,-0.34619 -0.2055,-0.3271 -0.22713,-0.308 L 9.50482,-5.14056 9.23442,-5.41037 8.94496,-5.66063 8.63892,-5.89087 8.31631,-6.10107 7.97713,-6.29128 7.62138,-6.46146 7.24907,-6.61162 6.86017,-6.74174 6.45471,-6.85187 6.03268,-6.94196 5.5941,-7.01202 5.13893,-7.06209 4.66719,-7.09212 4.17889,-7.10213 h -6.41661 v 1.03055 h 0.81662 l 0.06214,0.00121 0.06076,0.00363 0.05937,0.00604 0.05798,0.00845 0.05661,0.01088 0.05524,0.01329 0.05385,0.01572 0.052458,0.01813 0.051086,0.02055 0.049698,0.02297 0.048309,0.02537 0.046936,0.0278 0.045563,0.03022 0.043167,0.0348 0.039704,0.04158 0.036255,0.04839 0.032791,0.05516 0.029358,0.06195 0.025894,0.06875 0.022445,0.07553 0.018982,0.08233 0.015549,0.08911 0.012085,0.09591 0.008621,0.1027 0.005188,0.10948 0.001724,0.11627 V 2.35652 L -7.1205,-7.10213 h -4.3166 v 1.03055 h 0.8166 l 0.0593,0.00121 0.0583,0.00363 0.0572,0.00604 0.0562,0.00845 0.0552,0.01088 0.0542,0.01329 0.0531,0.01572 0.052,0.01813 0.0511,0.02055 0.05,0.02297 0.0489,0.02537 0.04795,0.0278 0.04689,0.03022 0.04459,0.0348 0.04101,0.04158 0.03746,0.04839 0.03389,0.05516 0.03032,0.06195 0.02675,0.06875 0.02319,0.07553 0.01961,0.08233 0.01605,0.08911 0.0125,0.09591 0.00891,0.1027 0.00536,0.10948 0.00178,0.11627 v 9.37215 l -0.00174,0.12493 -0.00517,0.11759 -0.00864,0.11023 -0.01208,0.10284 -0.01554,0.09551 -0.01898,0.08813 -0.02244,0.08077 -0.0259,0.07341 -0.02936,0.06604 -0.03279,0.05868 -0.03625,0.05132 -0.03972,0.04394 -0.04315,0.03661 -0.04556,0.03163 -0.04694,0.02911 -0.0483,0.02658 -0.0497,0.02407 -0.0511,0.02151 -0.0525,0.01898 -0.0538,0.01647 -0.0552,0.01392 -0.0566,0.01139 -0.058,0.00885 -0.0594,0.00634 -0.0608,0.0038 -0.0621,0.00126 h -0.8166 v 1.03055 h 5.07498 z M 2.64282,5.5757 V -5.91605 h 1.10839 l 0.2994,0.00806 0.28804,0.02417 0.27663,0.04027 0.26524,0.05638 0.25388,0.07249 0.24246,0.0886 0.2311,0.10472 0.21969,0.12082 0.20831,0.13691 0.19692,0.15305 0.18553,0.16914 0.17413,0.18526 0.16277,0.20136 0.15102,0.2178 0.13893,0.23459 0.12686,0.25139 0.11476,0.26818 0.10269,0.28501 0.09062,0.30179 0.07853,0.31857 0.06645,0.33539 0.05436,0.35219 0.04229,0.36897 0.03021,0.38579 0.01811,0.402569 0.00604,0.419373 L 7.77014,0.00759888 7.75203,0.41449 7.72182,0.807465 7.67953,1.18652 7.62517,1.55165 7.55872,1.90286 7.48019,2.24016 7.38957,2.56354 7.28688,2.87299 7.17212,3.16852 7.04526,3.45012 6.90633,3.71782 6.75531,3.97159 6.59244,4.20888 6.41795,4.42719 6.23184,4.62653 6.03412,4.80687 5.82477,4.96823 5.60381,5.1106 5.37123,5.23399 5.12703,5.33841 4.8712,5.42383 4.60376,5.49028 4.32472,5.53773 4.03404,5.56621 3.73174,5.5757 Z M -30.9524,-1 l 0.0136,-0.28468 0.1832,-1.27964 0.3047,-1.2695 0.4248,-1.25436 0.5434,-1.2343 0.6596,-1.20933 0.7735,-1.17963 0.8841,-1.14523 0.9913,-1.10633 1.0947,-1.0631 1.1936,-1.0156 1.2879,-0.9641 1.3771,-0.9089 1.4608,-0.85 1.5388,-0.7878 1.6107,-0.7224 1.6762,-0.6543 1.7352,-0.5836 1.7874,-0.5104 0.8332,-0.198 -1.2244,0.5427 -1.3247,0.6817 -1.273,0.7526 -1.2162,0.8207 -1.1545,0.8855 -1.0883,0.9469 -1.0179,1.0044 -0.9433,1.0581 -0.8651,1.1075 -0.7835,1.1525 -0.6988,1.19311 -0.6112,1.22892 -0.5214,1.25988 -0.4294,1.28588 -0.3357,1.30679 -0.2408,1.32256 -0.1448,1.33308 L -24.4639,-1 Z m 55.4163,0 -0.0123,-0.33838 -0.1448,-1.33308 -0.2408,-1.32256 -0.3357,-1.30679 -0.4294,-1.28588 -0.5214,-1.25988 -0.6112,-1.22892 -0.6988,-1.19311 -0.7835,-1.1525 -0.8651,-1.1075 -0.9433,-1.0581 -1.0179,-1.0044 -1.0883,-0.9469 -1.1545,-0.8855 -1.2162,-0.8207 -1.273,-0.7526 -1.3247,-0.6817 -1.2244,-0.5427 0.8332,0.198 1.7874,0.5104 1.7352,0.5836 1.6762,0.6543 1.6107,0.7224 1.5388,0.7878 1.4608,0.85 1.3771,0.9089 1.2879,0.9641 1.1936,1.0156 1.0947,1.0631 0.9913,1.10633 0.8841,1.14523 0.7735,1.17963 0.6596,1.20933 0.5434,1.2343 0.4248,1.25436 0.3047,1.2695 0.1832,1.27964 L 30.9524,-1 Z M 21.4695,10.2686 22.1683,9.07549 22.7795,7.84657 23.3009,6.58669 23.7303,5.30081 24.066,3.99402 24.3068,2.67146 24.4516,1.33838 24.4639,1 h 6.4885 L 30.9388,1.28468 30.7556,2.56432 30.4509,3.83382 30.0261,5.08818 29.4827,6.32248 28.8231,7.53181 28.0496,8.71144 27.6069,9.2849 27.5,9.26796 27.191,9.31689 27.1082,9.35907 27,9.34193 26.691,9.39087 26.5961,9.43921 26.5,9.42398 26.191,9.47293 26.0846,9.52713 26,9.51372 25.691,9.56267 25.5738,9.62238 25.5,9.61069 25.191,9.65964 25.0636,9.72452 25,9.71443 24.691,9.76338 24.5543,9.83302 24.5,9.82443 24.191,9.87338 24.0457,9.9474 24,9.94017 23.691,9.98911 23.5379,10.0671 23.5,10.0611 23.191,10.11 23.0311,10.1915 23,10.1865 22.691,10.2355 22.5252,10.3199 22.5,10.316 22.191,10.3649 22.0202,10.4519 22,10.4487 21.691,10.4977 21.5162,10.5867 21.5,10.5842 21.2254,10.6277 Z M -26.1742,10.963 -27.1655,9.85667 -28.0496,8.71144 -28.8231,7.53181 -29.4827,6.32248 -30.0261,5.08818 -30.4509,3.83382 -30.7556,2.56432 -30.9388,1.28468 -30.9524,1 h 6.4885 l 0.0123,0.33838 0.1448,1.33308 0.2408,1.32256 0.3357,1.30679 0.4294,1.28588 0.5214,1.25988 0.6112,1.22892 0.585,0.99881 -0.2257,0.0357 -0.1599,0.0815 -0.0311,-0.005 -0.309,0.049 -0.1658,0.0844 -0.0252,-0.0039 -0.309,0.0489 -0.1708,0.087 -0.0202,-0.0032 -0.309,0.049 -0.1748,0.089 -0.0162,-0.0025 -0.309,0.0489 -0.1779,0.0906 -0.0131,-0.002 -0.309,0.0489 -0.1799,0.0916 -0.0111,-0.0017 -0.309,0.0489 -0.1809,0.0922 L -25,11 l -0.309,0.049 -0.1809,0.0921 -0.0101,-0.0016 -0.309,0.049 -0.0872,0.0444 z m 24.2277,9.4566 -1.93883,-0.1209 -1.92348,-0.2011 -1.90057,-0.2804 -1.87013,-0.3586 -1.83229,-0.4354 -1.7874,-0.5104 -1.7352,-0.5836 -1.6762,-0.6543 -1.6107,-0.7224 -1.5388,-0.7878 -1.4608,-0.85 -1.3771,-0.9089 -1.2879,-0.9641 -0.2835,-0.2412 0.1583,-0.0806 0.0111,0.0017 0.309,-0.0489 0.1779,-0.0906 0.0131,0.0021 0.309,-0.049 0.1748,-0.089 0.0162,0.0025 0.309,-0.0489 0.1708,-0.0871 0.0202,0.0032 0.309,-0.0489 0.1658,-0.0845 0.0252,0.004 0.309,-0.0489 0.1599,-0.0815 0.0311,0.005 0.309,-0.049 0.153,-0.0779 0.038,0.006 0.309,-0.049 0.1453,-0.074 0.0457,0.0072 0.309,-0.0489 0.1367,-0.0697 0.0543,0.0086 0.309,-0.0489 0.1273,-0.0649 0.0637,0.0101 0.309,-0.0489 0.1172,-0.0598 0.0738,0.0117 0.309,-0.0489 0.1064,-0.0542 0.0846,0.0134 0.309,-0.049 0.0949,-0.0483 0.0961,0.0152 0.309,-0.0489 0.0828,-0.0422 0.1082,0.0172 0.309,-0.049 0.0701,-0.0357 0.1209,0.0191 0.309,-0.0489 0.057,-0.0291 0.134,0.0212 0.309,-0.0489 0.0435,-0.0222 0.1475,0.0234 0.309,-0.0489 0.0296,-0.0151 0.1614,0.0255 0.309,-0.0489 0.0155,-0.0079 0.1755,0.0278 0.309,-0.049 0.0011,-5e-4 0.1899,0.0301 0.2807,-0.0445 0.2193,0.0347 0.25,-0.0396 0.25,0.0396 0.2193,-0.0347 0.2807,0.0445 0.1899,-0.0301 0.0011,5e-4 0.309,0.049 0.1755,-0.0278 0.0155,0.0079 0.309,0.0489 0.1614,-0.0255 0.0296,0.0151 0.309,0.0489 0.1475,-0.0234 0.0435,0.0222 0.309,0.0489 0.134,-0.0212 0.057,0.0291 0.309,0.0489 0.1208,-0.0191 0.0702,0.0357 0.309,0.049 0.10822,-0.0172 0.08276,0.0422 0.30902,0.0489 0.09612,-0.0152 0.09486,0.0483 0.30902,0.049 0.08463,-0.0134 0.10635,0.0542 0.30902,0.0489 0.07378,-0.0117 0.1172,0.0598 0.30902,0.0489 0.06364,-0.0101 0.12734,0.0649 0.30902,0.0489 0.05426,-0.0086 0.13672,0.0697 0.30902,0.0489 0.04568,-0.0072 0.1453,0.074 0.30902,0.049 0.03796,-0.006 0.15302,0.0779 0.30902,0.049 0.03111,-0.005 0.15987,0.0815 0.30902,0.0489 0.02518,-0.004 0.1658,0.0845 0.30902,0.0489 0.02017,-0.0031 0.17081,0.087 0.30902,0.0489 0.01616,-0.0025 0.17482,0.089 0.30902,0.049 0.01312,-0.0021 0.17786,0.0906 0.30902,0.0489 0.01111,-0.0017 0.17987,0.0916 L -3,12.8605 -2.98991,12.8589 -2.80902,12.951 -2.5,13 -2.4899,12.9984 -2.30902,13.0906 -2,13.1395 l 0.01111,-0.0017 0.17987,0.0916 0.30902,0.0489 0.01312,-0.002 0.17786,0.0906 0.30902,0.0489 0.016159,-0.0025 0.17482,0.089 0.309021,0.049 0.020187,-0.0032 0.170792,0.087 L 0,13.684 0.025177,13.6801 0.190979,13.7645 0.5,13.8135 0.531097,13.8085 0.690979,13.89 1,13.9389 1.03795,13.9329 1.19098,14.0109 1.5,14.0598 1.5457,14.0526 1.69098,14.1266 2,14.1756 2.05428,14.167 2.19098,14.2366 2.5,14.2856 2.56364,14.2755 2.69098,14.3404 3,14.3893 3.07378,14.3776 3.19098,14.4373 3.5,14.4863 3.58463,14.4729 3.69098,14.5271 4,14.576 4.09612,14.5608 4.19098,14.6091 4.5,14.6581 4.6082,14.6409 4.69098,14.6831 5,14.732 5.12083,14.7129 5.19098,14.7486 5.5,14.7976 5.63396,14.7764 5.69098,14.8054 6,14.8544 6.14748,14.831 6.19098,14.8532 6.5,14.9021 6.66135,14.8765 6.69098,14.8916 7,14.9406 7.17551,14.9128 7.19098,14.9207 7.5,14.9696 7.68988,14.9395 7.69098,14.9401 8,14.989 8.21925,14.9543 8.5,14.9988 8.75,14.9592 9,14.9988 9.28073,14.9543 9.5,14.989 9.80901,14.9401 9.8101,14.9395 10,14.9696 l 0.309,-0.0489 0.0155,-0.0079 0.1755,0.0278 0.309,-0.049 0.0296,-0.0151 0.1614,0.0256 0.309,-0.0489 0.0435,-0.0222 0.1475,0.0234 0.309,-0.049 0.057,-0.029 0.134,0.0212 0.309,-0.049 0.0702,-0.0357 0.1208,0.0191 0.309,-0.0489 0.0828,-0.0422 0.1082,0.0172 0.309,-0.049 0.0949,-0.0483 0.0961,0.0152 0.309,-0.0489 0.1064,-0.0542 0.0846,0.0134 0.309,-0.049 0.1172,-0.0597 0.0738,0.0117 0.309,-0.0489 0.1273,-0.0649 0.0637,0.0101 0.309,-0.049 0.1367,-0.0696 0.0543,0.0086 0.309,-0.049 0.1453,-0.074 0.0457,0.0072 0.309,-0.0489 0.153,-0.078 0.038,0.006 0.309,-0.0489 0.1599,-0.0815 0.0311,0.005 0.309,-0.049 0.1658,-0.0845 0.0252,0.004 0.309,-0.0489 0.1708,-0.087 0.0202,0.0032 0.309,-0.049 0.1748,-0.089 0.0162,0.0025 0.309,-0.0489 0.1779,-0.0906 0.0131,0.002 0.309,-0.0489 0.1799,-0.0916 0.0111,0.0017 0.309,-0.0489 0.1809,-0.0922 L 20,13 l 0.309,-0.049 0.1809,-0.0921 0.0101,0.0016 0.309,-0.049 0.1799,-0.0916 0.0111,0.0017 0.309,-0.0489 0.1779,-0.0906 0.0131,0.0021 0.309,-0.049 0.1748,-0.089 0.0162,0.0025 0.309,-0.0489 0.1708,-0.0871 0.0202,0.0032 0.309,-0.0489 0.1658,-0.0845 0.0252,0.004 0.309,-0.0489 0.1599,-0.0815 0.0311,0.005 0.309,-0.049 0.153,-0.0779 0.038,0.006 0.309,-0.049 0.1453,-0.074 0.0457,0.0072 0.309,-0.0489 0.1367,-0.0697 0.0543,0.0086 0.309,-0.0489 0.1273,-0.0649 0.0637,0.0101 0.0087,-0.0014 -0.4292,0.4168 -1.1936,1.0156 -1.2879,0.9641 -1.3771,0.9089 -1.4608,0.85 -1.5388,0.7878 -1.6107,0.7224 -1.6762,0.6543 -1.7352,0.5836 -1.7874,0.5104 L 9.57951,19.4586 7.70938,19.8172 5.80881,20.0976 3.88533,20.2987 1.9465,20.4196 0,20.46 Z m 42.1098,-25.82472 0.1626,-0.01538 0.1613,-0.02554 0.1594,-0.03563 0.1568,-0.04558 0.1537,-0.05533 0.1499,-0.06487 0.1455,-0.07414 0.1406,-0.08314 0.1351,-0.09182 0.1291,-0.10011 0.1225,-0.10802 0.1155,-0.11549 0.108,-0.12253 0.1001,-0.12906 0.0919,-0.13508 0.0831,-0.1406 0.0741,-0.14552 0.0649,-0.1499 0.0553,-0.15369 0.0456,-0.15684 0.0356,-0.15941 0.0256,-0.16133 0.0154,-0.1626 L 42.6,-8 l -0.0051,-0.16325 -0.0154,-0.1626 -0.0256,-0.16133 -0.0356,-0.15941 -0.0456,-0.15685 -0.0553,-0.15368 -0.0649,-0.14991 -0.0741,-0.14552 -0.0831,-0.14059 -0.0919,-0.13509 -0.1001,-0.12906 -0.108,-0.12253 -0.1155,-0.11549 -0.1225,-0.10799 -0.1291,-0.1001 -0.1351,-0.0919 -0.1406,-0.0831 -0.1455,-0.0741 -0.1499,-0.0649 -0.1537,-0.0553 -0.1568,-0.0456 -0.1594,-0.0356 -0.1613,-0.0256 -0.1626,-0.0154 L 40,-10.6 l -0.1633,0.0051 -0.1626,0.0154 -0.1613,0.0256 -0.1594,0.0356 -0.1569,0.0456 -0.1536,0.0553 -0.1499,0.0649 -0.1456,0.0741 -0.1406,0.0831 -0.135,0.0919 -0.1291,0.1001 -0.1225,0.10799 -0.1155,0.11549 -0.108,0.12253 -0.1002,0.12906 -0.0918,0.13509 -0.0831,0.14059 -0.0742,0.14552 -0.0648,0.14991 -0.0553,0.15368 -0.0456,0.15685 -0.0357,0.15941 -0.0255,0.16133 -0.0154,0.1626 L 37.4,-8 l 0.0051,0.16327 0.0154,0.1626 0.0255,0.16133 0.0357,0.15941 0.0456,0.15684 0.0553,0.15369 0.0648,0.1499 0.0742,0.14552 0.0831,0.1406 0.0918,0.13508 0.1002,0.12906 0.108,0.12253 0.1155,0.11549 0.1225,0.10802 0.1291,0.10011 0.135,0.09182 0.1406,0.08314 0.1456,0.07414 0.1499,0.06487 0.1536,0.05533 0.1569,0.04558 0.1594,0.03563 0.1613,0.02554 0.1626,0.01538 L 40,-5.39999 Z m -80,0 0.1626,-0.01538 0.1613,-0.02554 0.1594,-0.03563 0.1569,-0.04558 0.1536,-0.05533 0.1499,-0.06487 0.1456,-0.07414 0.1406,-0.08314 0.135,-0.09182 0.1291,-0.10011 0.1225,-0.10802 0.1155,-0.11549 0.108,-0.12253 0.1002,-0.12906 0.0918,-0.13508 0.0831,-0.1406 0.0742,-0.14552 0.0648,-0.1499 0.0553,-0.15369 0.0456,-0.15684 0.0357,-0.15941 0.0255,-0.16133 0.0154,-0.1626 L -37.4,-8 l -0.0051,-0.16325 -0.0154,-0.1626 -0.0255,-0.16133 -0.0357,-0.15941 -0.0456,-0.15685 -0.0553,-0.15368 -0.0648,-0.14991 -0.0742,-0.14552 -0.0831,-0.14059 -0.0918,-0.13509 -0.1002,-0.12906 -0.108,-0.12253 -0.1155,-0.11549 -0.1225,-0.10799 -0.1291,-0.1001 -0.135,-0.0919 -0.1406,-0.0831 -0.1456,-0.0741 -0.1499,-0.0649 -0.1536,-0.0553 -0.1569,-0.0456 -0.1594,-0.0356 -0.1613,-0.0256 -0.1626,-0.0154 L -40,-10.6 l -0.1633,0.0051 -0.1626,0.0154 -0.1613,0.0256 -0.1594,0.0356 -0.1568,0.0456 -0.1537,0.0553 -0.1499,0.0649 -0.1455,0.0741 -0.1406,0.0831 -0.1351,0.0919 -0.1291,0.1001 -0.1225,0.10799 -0.1155,0.11549 -0.108,0.12253 -0.1001,0.12906 -0.0919,0.13509 -0.0831,0.14059 -0.0741,0.14552 -0.0649,0.14991 -0.0553,0.15368 -0.0456,0.15685 -0.0356,0.15941 -0.0256,0.16133 -0.0154,0.1626 L -42.6,-8 l 0.0051,0.16327 0.0154,0.1626 0.0256,0.16133 0.0356,0.15941 0.0456,0.15684 0.0553,0.15369 0.0649,0.1499 0.0741,0.14552 0.0831,0.1406 0.0919,0.13508 0.1001,0.12906 0.108,0.12253 0.1155,0.11549 0.1225,0.10802 0.1291,0.10011 0.1351,0.09182 0.1406,0.08314 0.1455,0.07414 0.1499,0.06487 0.1537,0.05533 0.1568,0.04558 0.1594,0.03563 0.1613,0.02554 0.1626,0.01538 L -40,-5.39999 Z M 47.0925,7.13609 45.1759,5.87978 42.8883,2.69637 l -0.6441,0.98266 1.5871,1.98696 -2.4597,-0.65578 -0.6487,0.98965 3.8595,0.84601 1.8887,1.23805 z m -88.4471,-2.09999 -0.8086,-1.23355 -5.7666,2.05615 0.6716,1.02454 1.3678,-0.52791 0.7264,1.10811 -1.0298,1.04367 0.6671,1.01755 z m -3.6105,0.92189 1.5048,-0.60772 0.2692,-0.10798 0.2513,-0.1087 0.2335,-0.10944 0.2155,-0.11012 -0.1853,0.16382 -0.1953,0.17531 -0.2051,0.18678 -0.215,0.19826 -1.1391,1.13521 z m 2.7893,5.86621 0.5349,-0.1724 0.5567,-0.2863 0.5785,-0.4 0.495,-0.4306 0.385,-0.4388 0.2751,-0.44725 0.1651,-0.45558 0.0543,-0.45661 -0.0576,-0.45033 -0.1692,-0.44406 -0.2811,-0.43781 -0.9088,-1.17227 -4.7024,3.64559 0.8578,1.10642 0.3687,0.3945 0.4069,0.2813 0.445,0.1681 0.4831,0.0548 z m -1.0047,-1.1128 -0.2257,-0.138 -0.2011,-0.2085 -0.1532,-0.1976 3.1283,-2.42522 0.1991,0.25681 0.1377,0.22477 0.0709,0.23301 0.0042,0.24127 -0.0626,0.24954 -0.1334,0.26022 -0.2081,0.27339 -0.283,0.28658 -0.3577,0.29973 -0.3932,0.2818 -0.3628,0.212 -0.3324,0.1425 -0.3022,0.0727 -0.2746,0.0027 z m 87.7343,0.0648 -3.9186,-3.03796 0.6739,-0.86933 -0.7837,-0.60762 -2.0424,2.6344 0.7838,0.60761 0.6791,-0.87598 3.9186,3.03798 z m -80.015,1.4788 -0.7967,-0.8748 -2.9712,1.7252 -0.0877,0.0514 -0.0935,0.056 -0.0993,0.0604 -0.1049,0.065 -0.1071,0.0672 -0.1057,0.0673 -0.1041,0.0674 -0.1027,0.0675 -0.0988,0.0656 -0.0923,0.0619 -0.0858,0.0581 -0.0794,0.0543 0.0642,-0.0714 0.0682,-0.0787 0.0722,-0.0858 0.0762,-0.093 0.0781,-0.0972 0.0778,-0.0984 0.0774,-0.0994 0.0772,-0.1005 0.0741,-0.0982 0.0682,-0.0921 0.0625,-0.0861 0.0566,-0.0801 2.0004,-2.79118 -0.8024,-0.88104 -3.4058,5.09692 0.8865,0.9734 z m 77.5733,1.5338 -0.4559,-0.4153 -0.5429,0.2496 -3.1421,-2.8617 0.1978,-0.5638 -0.4559,-0.41522 -1.5094,1.65732 0.4559,0.4152 0.5429,-0.2494 3.1421,2.8616 -0.1978,0.5638 0.4559,0.4152 z m -75.701,0.1979 -1.0763,-1.0085 -5.1202,3.3564 0.894,0.8376 1.205,-0.8352 0.9669,0.9059 -0.755,1.2568 0.8879,0.8318 z m -3.2918,1.7462 1.3193,-0.945 0.2363,-0.1683 0.2186,-0.1649 0.2011,-0.1613 0.1835,-0.1578 -0.1415,0.2029 -0.1484,0.2163 -0.1554,0.2299 -0.1623,0.2433 -0.8397,1.3715 z m 76.2764,0.9668 -0.678,-0.7237 -1.1555,1.0825 -3.39,-3.6183 -0.8331,0.7805 4.068,4.3421 z m -68.9017,0.6675 -0.8403,-0.6706 -1.6894,2.1168 -0.0829,0.1055 -0.0873,0.1145 -0.092,0.1235 -0.0965,0.1326 -0.1014,0.1413 -0.1068,0.1497 -0.1121,0.158 -0.1175,0.1664 -0.0261,-0.0208 1.1768,-4.2531 -1.0421,-0.8318 -3.7116,4.6505 0.8338,0.6654 1.7206,-2.1559 0.0835,-0.1059 0.0895,-0.1159 0.0953,-0.1258 0.1013,-0.1357 0.1062,-0.1459 0.1097,-0.1562 0.1134,-0.1668 0.1171,-0.1771 0.026,0.0208 -1.2275,4.33 1.0487,0.8369 z m 65.284,2.607 -0.3847,-0.482 -0.5754,0.1607 -2.6511,-3.3217 0.2843,-0.5255 -0.3846,-0.482 -1.7521,1.3983 0.3847,0.482 0.5754,-0.1607 2.6511,3.3218 -0.2843,0.5254 0.3847,0.482 z m -4.4324,3.3585 0.4218,-0.225 0.2582,-0.1965 0.2222,-0.2162 0.1863,-0.236 0.1504,-0.2556 -0.5693,-0.8423 -0.0647,0.121 -0.0684,0.1173 -0.0723,0.1136 -0.076,0.1098 -0.0824,0.1041 -0.0914,0.0963 -0.1004,0.0886 -0.1094,0.0809 -0.2235,0.1111 -0.2355,0.0395 -0.2476,-0.0323 -0.2595,-0.104 -0.267,-0.1738 -0.2701,-0.2415 -0.2731,-0.3092 -0.2761,-0.377 -0.1597,-0.2488 -0.1384,-0.2424 -0.1171,-0.2361 -0.0959,-0.2297 -0.0722,-0.2203 -0.0461,-0.2077 -0.02,-0.1952 0.006,-0.1826 0.0349,-0.1666 0.0663,-0.147 0.0978,-0.1274 0.1293,-0.1078 0.1083,-0.0666 0.111,-0.0552 0.1137,-0.0438 0.1164,-0.0325 0.1195,-0.0232 0.1229,-0.0162 0.1265,-0.0091 0.13,-0.002 -0.258,-0.9622 -0.3479,0.0415 -0.3343,0.0876 -0.3207,0.1338 -0.3071,0.1799 -0.2584,0.2045 -0.2092,0.2309 -0.1599,0.2574 -0.1105,0.2838 -0.064,0.3044 -0.0199,0.3193 0.0241,0.3342 0.0681,0.3491 0.11,0.3581 0.1499,0.3613 0.1898,0.3646 0.2297,0.3678 0.4136,0.5505 0.4242,0.4435 0.4348,0.3364 0.4454,0.2292 0.4465,0.1184 0.4383,0.004 z m -60.5692,-0.085 -0.1364,-0.0148 -0.1344,-0.0198 -0.1323,-0.0246 -0.1303,-0.0296 -0.1273,-0.0377 -0.1235,-0.0489 -0.1196,-0.0601 -0.1159,-0.0714 -0.1864,-0.1659 -0.1244,-0.2038 -0.0623,-0.2417 -3e-4,-0.2796 0.0616,-0.3126 0.1234,-0.3407 0.1851,-0.3687 0.2468,-0.3967 0.1713,-0.241 0.1734,-0.2188 0.1753,-0.1967 0.1774,-0.1746 0.1775,-0.1491 0.1756,-0.1203 0.1736,-0.0913 0.1717,-0.0625 0.1676,-0.0298 0.1611,0.0067 0.1547,0.0433 0.1482,0.0797 0.1022,0.0757 0.0927,0.0824 0.083,0.0892 0.0735,0.0959 0.0661,0.1022 0.0609,0.108 0.0556,0.114 0.0504,0.1199 0.7965,-0.5983 -0.1682,-0.3073 -0.206,-0.2775 -0.2437,-0.2477 -0.2814,-0.2179 -0.2862,-0.1635 -0.2922,-0.1079 -0.2985,-0.0524 -0.3045,0.0032 -0.3063,0.0542 -0.3037,0.1006 -0.3011,0.1469 -0.2985,0.1934 -0.2913,0.2356 -0.2794,0.2738 -0.2675,0.3121 -0.2556,0.3503 -0.3566,0.589 -0.2533,0.559 -0.15,0.5288 -0.0466,0.4988 0.0566,0.4585 0.1598,0.4081 0.2629,0.3578 0.3661,0.3075 0.2786,0.1663 0.2835,0.1256 0.2884,0.0849 0.2933,0.0442 z m 3.4517,2.266 -1.3343,-0.7553 0.7923,-1.3996 1.2401,0.702 0.4803,-0.8485 -1.2401,-0.702 0.6897,-1.2184 1.3343,0.7554 0.4803,-0.8485 -2.3279,-1.3178 -2.9311,5.178 2.3279,1.3178 z m 52.5157,0.5894 -0.4377,-1.3993 1.153,-0.6527 0.9744,1.0955 1.0589,-0.5994 -4.2075,-4.4554 -1.2836,0.7266 1.6765,5.8881 z m -1.2825,-3.8896 -0.0902,-0.2757 -0.0921,-0.2579 -0.094,-0.24 -0.0959,-0.2223 0.1514,0.1956 0.1623,0.2062 0.173,0.2169 0.1838,0.2275 1.0587,1.2105 -0.8485,0.4803 z m -47.9016,5.5136 0.4546,-0.1724 0.4293,-0.287 0.3966,-0.3981 0.3639,-0.5094 0.3312,-0.6205 0.243,-0.6093 0.1414,-0.5665 0.0398,-0.5235 -0.0617,-0.4806 -0.1608,-0.4308 -0.2572,-0.3741 -0.3538,-0.3173 -0.4503,-0.2606 -1.3447,-0.6262 -2.512,5.3938 1.2692,0.591 0.5084,0.1819 0.4905,0.0639 z m -0.7826,-1.0083 -0.2743,-0.0933 -0.2266,-0.1055 1.6711,-3.5882 0.2946,0.1372 0.2253,0.1368 0.1697,0.1747 0.1141,0.2126 0.0586,0.2505 6e-4,0.2924 -0.06,0.3383 -0.1203,0.3844 -0.1809,0.4302 -0.2206,0.4305 -0.2255,0.3546 -0.2303,0.2788 -0.2353,0.203 -0.243,0.1281 -0.2534,0.0544 z m 46.8168,0.9649 -1.0062,-2.1605 1.2842,-0.5981 -0.4116,-0.8838 -1.2842,0.5981 -0.6826,-1.4656 1.3748,-0.6403 -0.4116,-0.8838 -2.4098,1.1222 2.512,5.3938 z m -36.9629,-1.5174 1.0579,0.3012 0.2715,-0.9538 -3.2059,-0.9127 -0.2715,0.9538 1.066,0.3034 -1.3577,4.7689 1.082,0.308 z m 28.5933,4.6894 0.3448,-0.0738 0.4376,-0.1462 0.4152,-0.1832 0.3928,-0.2201 0.3703,-0.2571 -0.8488,-2.9815 -1.7873,0.5089 0.2647,0.9297 0.7133,-0.2031 0.3787,1.3304 -0.1233,0.0768 -0.1304,0.0669 -0.1375,0.0571 -0.1447,0.0471 -0.2678,0.04 -0.2503,-0.0376 -0.2329,-0.1151 -0.2154,-0.1926 -0.1968,-0.2586 -0.1771,-0.313 -0.1574,-0.3673 -0.1376,-0.4217 -0.1112,-0.4657 -0.0553,-0.4194 8e-4,-0.373 0.0567,-0.3267 0.1127,-0.2766 0.1687,-0.2227 0.2246,-0.1687 0.2805,-0.1149 0.2793,-0.0578 0.2846,-0.016 0.29,0.0257 0.2954,0.0675 0.0627,-0.9969 -0.167,-0.035 -0.1749,-0.0247 -0.1827,-0.0143 -0.1907,-0.0039 -0.1963,0.0085 -0.1998,0.023 -0.2032,0.0375 -0.2067,0.0521 -0.356,0.1257 -0.3146,0.1627 -0.2732,0.1996 -0.2318,0.2366 -0.1902,0.2689 -0.1482,0.2964 -0.1062,0.324 -0.0643,0.3517 -0.0219,0.3758 0.0209,0.3967 0.0636,0.4175 0.1064,0.4384 0.1397,0.4335 0.1612,0.3949 0.1827,0.3564 0.2041,0.3176 0.2243,0.2752 0.243,0.2287 0.2617,0.1821 0.2804,0.1357 0.2977,0.0859 0.3133,0.0326 z M 10.0908,31.9959 9.54787,29.2915 9.52054,29.1594 9.48943,29.0164 9.45453,28.8625 9.41585,28.6976 9.37247,28.5225 9.32347,28.3379 9.26884,28.1438 9.2086,27.9402 l 0.03264,-0.0065 2.52436,3.726 1.3155,-0.2641 -1.1711,-5.8336 -1.054,0.2116 0.5331,2.6554 0.0274,0.1312 0.0314,0.1406 0.0354,0.1499 0.0394,0.1592 0.0428,0.1685 0.0459,0.1781 0.0488,0.1875 0.0518,0.197 -0.0327,0.0066 -2.49819,-3.6378 -1.30724,0.2624 1.17108,5.8337 z m -19.65597,-2.5633 0.22978,-0.0982 0.20386,-0.1197 0.1779,-0.1415 0.15199,-0.1631 0.12844,-0.1859 0.10721,-0.2098 0.08596,-0.2338 0.06475,-0.2576 0.02853,-0.7641 -0.25391,-0.6007 -0.53634,-0.4376 -0.81879,-0.2743 -1.35621,-0.2723 -1.1711,5.8336 1.1193,0.2247 0.4593,-2.2877 0.3349,0.0673 0.4967,2.4796 1.23372,0.2476 z m -0.94893,-0.8195 -0.2533,-0.0509 0.3445,-1.7157 0.2287,0.0459 0.33312,0.1189 0.21496,0.1993 0.09683,0.2798 -0.0213,0.3601 -0.12785,0.3908 -0.19989,0.2574 -0.27187,0.1239 z m 18.29257,3.7615 -0.07312,-0.6124 -0.5738,-0.1664 -0.504,-4.22 0.51846,-0.2969 -0.07313,-0.6124 -2.22583,0.2659 0.07313,0.6123 0.57376,0.1665 0.504,4.2199 -0.51843,0.297 0.07313,0.6123 z m -12.93182,-5.6788 -1.46455,-0.1749 -2.13712,5.737 1.21638,0.1453 0.47614,-1.3867 1.31561,0.1572 0.1362,1.4598 1.20809,0.1442 z m -1.61783,3.3568 0.50321,-1.5429 0.0906,-0.2755 0.07854,-0.2624 0.06645,-0.2491 0.05441,-0.2358 0.00614,0.2473 0.00854,0.2622 0.01097,0.2772 0.01336,0.2922 0.13589,1.6024 z M 1.28441,32.8992 1.17514,30.1431 1.16901,30.0083 1.16086,29.8622 1.1507,29.7046 1.1385,29.5357 1.12331,29.356 1.10406,29.166 1.08076,28.9657 1.05341,28.7551 l 0.03326,-0.0013 1.90469,4.0778 1.34061,-0.0532 -0.2357,-5.9453 -1.07416,0.0426 0.10728,2.7062 0.00635,0.134 0.00882,0.1437 0.01131,0.1536 0.01379,0.1634 0.01572,0.1732 0.01717,0.1831 0.01861,0.1929 0.02004,0.2027 -0.03334,0.0013 -1.89272,-3.9865 -1.3322604,0.0529 0.2356874,5.9453 z m -2.31862,-0.6072 -0.54034,-0.255 0.16835,-4.2466 0.558818,-0.2114 0.02443,-0.6162 -2.239898,-0.0887 -0.02443,0.6161 0.5403,0.255 -0.16835,4.2466 -0.55878,0.2114 -0.02443,0.6162 2.2399,0.0888 z"
     stroke="#000000"
     fill="#d3d3d3"
     stroke-width="0.5"
     id="path1"
     style="display:inline" />
  <ellipse
     style="display:inline;fill:#800000;stroke-width:0;stroke-linejoin:bevel"
     id="path2-8"
     cx="40.006756"
     cy="-8.0040216"
     rx="2.8532834"
     ry="2.8493912"
     inkscape:label="circle1" />
  <ellipse
     style="display:inline;fill:#800000;stroke-width:0;stroke-linejoin:bevel"
     id="path2-8-5"
     cx="-40.000439"
     cy="-8.0124922"
     rx="2.8532834"
     ry="2.8493912"
     inkscape:label="circle2" />
  <metadata
     id="metadata2">
    <rdf:RDF>
      <cc:Work
         rdf:about="">
        <dc:title>Logo Divecenter - Neva Divers</dc:title>
      </cc:Work>
    </rdf:RDF>
  </metadata>
</svg>
