<?xml version="1.0" encoding="UTF-8" standalone="no"?>
<svg
   width="66mm"
   height="44mm"
   viewBox="-33 -22 66 44"
   version="1.1"
   id="svg1"
   sodipodi:docname="logoND_small_tech.svg"
   inkscape:version="1.4.3 (0d15f75, 2025-12-25)"
   xmlns:inkscape="http://www.inkscape.org/namespaces/inkscape"
   xmlns:sodipodi="http://sodipodi.sourceforge.net/DTD/sodipodi-0.dtd"
   xmlns="http://www.w3.org/2000/svg"
   xmlns:svg="http://www.w3.org/2000/svg"
   xmlns:rdf="http://www.w3.org/1999/02/22-rdf-syntax-ns#"
   xmlns:cc="http://creativecommons.org/ns#"
   xmlns:dc="http://purl.org/dc/elements/1.1/">
  <defs
     id="defs1" />
  <sodipodi:namedview
     id="namedview1"
     pagecolor="#ffffff"
     bordercolor="#000000"
     borderopacity="0.25"
     inkscape:showpageshadow="2"
     inkscape:pageopacity="0.0"
     inkscape:pagecheckerboard="0"
     inkscape:deskcolor="#d1d1d1"
     inkscape:document-units="mm"
     inkscape:zoom="2.7000297"
     inkscape:cx="149.25762"
     inkscape:cy="105.73958"
     inkscape:window-width="1600"
     inkscape:window-height="837"
     inkscape:window-x="-8"
     inkscape:window-y="-8"
     inkscape:window-maximized="1"
     inkscape:current-layer="layer1" />
  <title
     id="title1">Logo Divecenter - Neva Divers (small)</title>
  <g
     inkscape:groupmode="layer"
     id="layer1"
     inkscape:label="bg"
     style="fill:#800000">
    <ellipse
       style="fill:#800000;stroke-width:0;stroke-linejoin:bevel"
       id="path2"
       cx="-0.025440423"
       cy="-0.04962372"
       rx="33.170547"
       ry="21.950375" />
  </g>
  <path
     d="m 2.07208,21.737 2.06391,-0.1288 2.04759,-0.214 2.02318,-0.2985 1.99084,-0.3817 1.9505,-0.4635 1.9026,-0.5434 1.8472,-0.6211 1.7844,-0.6965 1.7146,-0.7691 1.6381,-0.8386 1.555,-0.9049 1.466,-0.9675 1.3709,-1.0263 1.2707,-1.0811 1.1652,-1.1317 1.0553,-1.1777 0.9412,-1.21913 0.8233,-1.25572 0.7023,-1.28737 0.5783,-1.31392 0.4523,-1.3353 L 32.7398,2.72975 32.9349,1.36757 33,0 l -0.0651,-1.36757 -0.1951,-1.36218 -0.3243,-1.35141 -0.4523,-1.3353 -0.5783,-1.31392 -0.7023,-1.28737 -0.8233,-1.25572 -0.9412,-1.21913 -1.0553,-1.1777 -1.1652,-1.1317 -1.2707,-1.0811 -1.3709,-1.0263 -1.466,-0.9675 -1.555,-0.9049 -1.6381,-0.8386 -1.7146,-0.7691 -1.7844,-0.6965 -1.8472,-0.6211 -1.9026,-0.5434 -1.9505,-0.4635 -1.99084,-0.3817 -2.02318,-0.2985 -2.04759,-0.214 L 2.07208,-21.737 0,-21.78 l -2.07208,0.043 -2.06391,0.1288 -2.04759,0.214 -2.02318,0.2985 -1.99084,0.3817 -1.9505,0.4635 -1.9026,0.5434 -1.8472,0.6211 -1.7844,0.6965 -1.7146,0.7691 -1.6381,0.8386 -1.555,0.9049 -1.466,0.9675 -1.3709,1.0263 -1.2707,1.0811 -1.1652,1.1317 -1.0553,1.1777 -0.9412,1.21913 -0.8233,1.25572 -0.7023,1.28737 -0.5783,1.31392 -0.4523,1.3353 -0.3243,1.35141 -0.1951,1.36218 L -33,0 l 0.0651,1.36757 0.1951,1.36218 0.3243,1.35141 0.4523,1.3353 0.5783,1.31392 0.7023,1.28737 0.8233,1.25572 0.9412,1.21913 1.0553,1.1777 1.1652,1.1317 1.2707,1.0811 1.3709,1.0263 1.466,0.9675 1.555,0.9049 1.6381,0.8386 1.7146,0.7691 1.7844,0.6965 1.8472,0.6211 1.9026,0.5434 1.9505,0.4635 1.99084,0.3817 2.02318,0.2985 2.04759,0.214 2.06391,0.1288 L 0,21.78 Z M 8.5,12.9988 8.28073,13.0335 8,12.989 7.81009,13.0191 7.80901,13.0186 7.5,12.9696 7.32446,12.9974 7.30901,12.9895 7,12.9406 6.83862,12.9661 6.80901,12.951 6.5,12.9021 6.35249,12.9255 6.30901,12.9033 6,12.8544 5.86603,12.8756 5.80901,12.8465 5.5,12.7976 5.37914,12.8167 5.30901,12.781 5,12.732 4.89177,12.7492 4.80901,12.707 4.5,12.6581 4.40387,12.6733 4.30901,12.625 4,12.576 3.91537,12.5894 3.80901,12.5352 3.5,12.4863 3.42622,12.498 3.30901,12.4382 3,12.3893 2.93634,12.3994 2.80901,12.3345 2.5,12.2856 2.44572,12.2942 2.30901,12.2245 2,12.1756 1.9543,12.1828 1.80901,12.1088 1.5,12.0598 1.46202,12.0658 1.30901,11.9879 1,11.9389 0.968887,11.9439 0.809006,11.8624 0.5,11.8135 0.474808,11.8175 0.309006,11.733 0,11.6841 -0.0201874,11.6873 -0.190994,11.6002 -0.5,11.5513 -0.516174,11.5538 -0.690994,11.4648 -1,11.4158 -1.01314,11.4179 -1.19099,11.3273 -1.5,11.2784 -1.51112,11.2801 -1.69099,11.1885 -2,11.1395 -2.01009,11.1411 -2.19099,11.049 -2.5,11 -2.51012,11.0016 -2.69099,10.9094 -3,10.8605 -3.01112,10.8622 -3.19099,10.7706 -3.5,10.7217 -3.51314,10.7237 -3.69099,10.6331 -4,10.5842 -4.01617,10.5867 -4.19099,10.4977 -4.5,10.4487 -4.5202,10.4519 -4.69099,10.3649 -5,10.316 -5.02519,10.32 -5.19099,10.2355 -5.5,10.1865 -5.53111,10.1915 -5.69099,10.11 -6,10.0611 -6.03796,10.0671 -6.19099,9.98911 -6.5,9.94017 -6.54572,9.9474 -6.69099,9.87338 -7,9.82443 -7.05429,9.83304 -7.19099,9.76338 -7.5,9.71443 -7.56366,9.72452 -7.69099,9.65964 -8,9.61069 -8.07379,9.62238 -8.19099,9.56267 -8.5,9.51372 -8.58464,9.52713 -8.69099,9.47293 -9,9.42398 -9.09613,9.43921 -9.19099,9.39087 -9.5,9.34193 -9.60822,9.35907 -9.69099,9.31689 -10,9.26796 -10.1208,9.28709 -10.191,9.25136 -10.5,9.20242 -10.634,9.22363 -10.691,9.19458 -11,9.14565 -11.1475,9.16901 -11.191,9.14684 -11.5,9.0979 -11.6614,9.12346 -11.691,9.10835 -12,9.05942 -12.1755,9.08722 -12.191,9.07933 -12.5,9.0304 -12.6899,9.06047 -12.691,9.05991 -13,9.01097 -13.2193,9.0457 -13.5,9.00122 -13.75,9.04082 -14,9.00122 -14.2807,9.04568 -14.5,9.01097 -14.809,9.05991 -14.8101,9.06047 -15,9.0304 -15.309,9.07933 -15.3245,9.08722 -15.5,9.05942 -15.809,9.10835 -15.8387,9.12346 -16,9.0979 -16.309,9.14684 -16.3525,9.16901 -16.5,9.14565 -16.809,9.19458 -16.866,9.22363 -17,9.20242 -17.309,9.25136 -17.3792,9.28709 -17.5,9.26796 -17.809,9.31689 -17.8918,9.35907 -18,9.34193 -18.309,9.39087 -18.4039,9.43921 -18.5,9.42398 -18.809,9.47293 -18.9154,9.52713 -19,9.51372 -19.309,9.56267 -19.4262,9.62238 -19.5,9.61069 -19.5851,9.62418 -19.7169,9.43031 -20.3586,8.33463 -20.92,7.20602 -21.3988,6.049 -21.7931,4.8681 -22.1015,3.66798 -22.3226,2.45338 -22.4556,1.22911 -22.4639,1 H -15 v -2 h -7.4639 l 0.0083,-0.22911 0.133,-1.22427 0.2211,-1.2146 0.3084,-1.20012 0.3943,-1.1809 0.4788,-1.15702 0.5614,-1.12861 0.6417,-1.09568 0.7195,-1.05849 0.7945,-1.0171 0.8664,-0.9717 0.9347,-0.9224 0.9995,-0.8695 1.0603,-0.8133 1.1168,-0.7537 1.1691,-0.6912 1.2167,-0.626 1.25937,-0.5583 1.29724,-0.4884 1.32991,-0.4165 1.35736,-0.3431 1.37946,-0.2683 1.39607,-0.1923 1.40721,-0.1158 L -1,-19.5477 V -11 h 2 v -8.5477 l 0.41278,0.0113 1.40721,0.1158 1.39607,0.1923 1.37946,0.2683 1.35736,0.3431 1.32991,0.4165 1.29724,0.4884 1.25937,0.5583 1.2167,0.626 1.1691,0.6912 1.1168,0.7537 1.0603,0.8133 0.9995,0.8695 0.9347,0.9224 0.8664,0.9717 0.7945,1.0171 0.7195,1.05849 0.6417,1.09568 0.5614,1.12861 0.4788,1.15702 0.3943,1.1809 0.3084,1.20012 0.2211,1.2146 0.133,1.22427 L 22.4639,-1 H 15 v 2 h 7.4639 l -0.0083,0.22911 -0.133,1.22427 -0.2211,1.2146 -0.3084,1.20012 -0.3943,1.1809 -0.4788,1.15702 -0.5614,1.12861 -0.6417,1.09568 -0.7195,1.05849 -0.7562,0.968 -0.0502,0.008 -0.1748,0.089 L 18,11.5513 17.691,11.6002 17.5202,11.6872 17.5,11.6841 17.191,11.733 17.0252,11.8175 17,11.8135 16.691,11.8624 16.5311,11.9439 16.5,11.9389 16.191,11.9879 16.038,12.0658 16,12.0598 15.691,12.1088 15.5457,12.1828 15.5,12.1756 15.191,12.2245 15.0543,12.2942 15,12.2856 14.691,12.3345 14.5636,12.3994 14.5,12.3893 14.191,12.4382 14.0738,12.498 14,12.4863 13.691,12.5352 13.5846,12.5894 13.5,12.576 13.191,12.625 13.0961,12.6733 13,12.6581 12.691,12.707 12.6082,12.7492 12.5,12.732 12.191,12.781 12.1208,12.8167 12,12.7976 11.691,12.8465 11.634,12.8756 11.5,12.8544 11.191,12.9033 11.1475,12.9255 11,12.9021 10.691,12.951 10.6614,12.9661 10.5,12.9406 10.191,12.9895 10.1755,12.9974 10,12.9696 9.69098,13.0186 9.6899,13.0191 9.5,12.989 9.21925,13.0335 9,12.9988 8.75,13.0384 Z M -6.36212,5.7507 H -7.17874 L -7.24088,5.74944 -7.30164,5.74564 -7.36102,5.7393 -7.41902,5.73045 -7.47563,5.71906 -7.53087,5.70514 -7.58473,5.68867 -7.63721,5.66969 -7.68829,5.64818 -7.73802,5.62411 -7.78635,5.59753 -7.83331,5.56842 -7.87889,5.53679 -7.92203,5.50018 -7.96172,5.45624 -7.99796,5.40492 -8.03073,5.34624 -8.06007,5.2802 -8.08595,5.20679 -8.10838,5.12602 -8.12737,5.03789 -8.1429,4.94238 -8.15497,4.83954 -8.1636,4.72931 -8.16878,4.61172 -8.1705,4.48679 V -3.93266 L -1.31905,5.74721 -1.35614,5.74944 -1.4211,5.7507 H -2.23772 V 6.78125 H 4.17889 L 4.52446,6.77583 4.86116,6.75961 5.18903,6.73257 5.50801,6.69472 5.81815,6.64604 6.11943,6.58656 6.41183,6.51627 6.6954,6.43513 6.97009,6.34322 7.23593,6.24046 7.49292,6.12689 7.74104,6.00252 7.9803,5.86732 8.21071,5.72252 8.43225,5.56932 8.64493,5.40771 8.84875,5.23772 9.04372,5.05933 9.22981,4.87253 9.40706,4.67734 9.57544,4.47375 9.73495,4.26176 9.88562,4.04138 10.0274,3.81259 l 0.133,-0.23718 0.124,-0.24559 0.1151,-0.25272 0.1059,-0.25857 0.0966,-0.26445 0.0875,-0.27033 0.0782,-0.2762 0.069,-0.28206 0.0599,-0.28791 0.0506,-0.2938 0.0414,-0.299664 0.0322,-0.305527 0.0231,-0.311401 0.0138,-0.3172606 0.0046,-0.3231354 -0.0108,-0.498993 -0.0325,-0.479889 -0.0541,-0.4608 -0.0757,-0.4417 -0.0973,-0.42259 -0.119,-0.4035 -0.1406,-0.38439 -0.1622,-0.36531 -0.1839,-0.34619 -0.2055,-0.3271 -0.22713,-0.308 L 9.50482,-5.14056 9.23442,-5.41037 8.94496,-5.66063 8.63892,-5.89087 8.31631,-6.10107 7.97713,-6.29128 7.62138,-6.46146 7.24907,-6.61162 6.86017,-6.74174 6.45471,-6.85187 6.03268,-6.94196 5.5941,-7.01202 5.13893,-7.06209 4.66719,-7.09212 4.17889,-7.10213 h -6.41661 v 1.03055 h 0.81662 l 0.06214,0.00121 0.06076,0.00363 0.05937,0.00604 0.05798,0.00845 0.05661,0.01088 0.05524,0.01329 0.05385,0.01572 0.052458,0.01813 0.051086,0.02055 0.049698,0.02297 0.048309,0.02537 0.046936,0.0278 0.045563,0.03022 0.043167,0.0348 0.039704,0.04158 0.036255,0.04839 0.032791,0.05516 0.029358,0.06195 0.025894,0.06875 0.022445,0.07553 0.018982,0.08233 0.015549,0.08911 0.012085,0.09591 0.008621,0.1027 0.005188,0.10948 0.001724,0.11627 V 2.35652 L -7.1205,-7.10213 h -4.3166 v 1.03055 h 0.8166 l 0.0593,0.00121 0.0583,0.00363 0.0572,0.00604 0.0562,0.00845 0.0552,0.01088 0.0542,0.01329 0.0531,0.01572 0.052,0.01813 0.0511,0.02055 0.05,0.02297 0.0489,0.02537 0.04795,0.0278 0.04689,0.03022 0.04459,0.0348 0.04101,0.04158 0.03746,0.04839 0.03389,0.05516 0.03032,0.06195 0.02675,0.06875 0.02319,0.07553 0.01961,0.08233 0.01605,0.08911 0.0125,0.09591 0.00891,0.1027 0.00536,0.10948 0.00178,0.11627 v 9.37215 l -0.00174,0.12493 -0.00517,0.11759 -0.00864,0.11023 -0.01208,0.10284 -0.01554,0.09551 -0.01898,0.08813 -0.02244,0.08077 -0.0259,0.07341 -0.02936,0.06604 -0.03279,0.05868 -0.03625,0.05132 -0.03972,0.04394 -0.04315,0.03661 -0.04556,0.03163 -0.04694,0.02911 -0.0483,0.02658 -0.0497,0.02407 -0.0511,0.02151 -0.0525,0.01898 -0.0538,0.01647 -0.0552,0.01392 -0.0566,0.01139 -0.058,0.00885 -0.0594,0.00634 -0.0608,0.0038 -0.0621,0.00126 h -0.8166 v 1.03055 h 5.07498 z M 2.64282,5.5757 V -5.91605 h 1.10839 l 0.2994,0.00806 0.28804,0.02417 0.27663,0.04027 0.26524,0.05638 0.25388,0.07249 0.24246,0.0886 0.2311,0.10472 0.21969,0.12082 0.20831,0.13691 0.19692,0.15305 0.18553,0.16914 0.17413,0.18526 0.16277,0.20136 0.15102,0.2178 0.13893,0.23459 0.12686,0.25139 0.11476,0.26818 0.10269,0.28501 0.09062,0.30179 0.07853,0.31857 0.06645,0.33539 0.05436,0.35219 0.04229,0.36897 0.03021,0.38579 0.01811,0.402569 0.00604,0.419373 L 7.77014,0.00759888 7.75203,0.41449 7.72182,0.807465 7.67953,1.18652 7.62517,1.55165 7.55872,1.90286 7.48019,2.24016 7.38957,2.56354 7.28688,2.87299 7.17212,3.16852 7.04526,3.45012 6.90633,3.71782 6.75531,3.97159 6.59244,4.20888 6.41795,4.42719 6.23184,4.62653 6.03412,4.80687 5.82477,4.96823 5.60381,5.1106 5.37123,5.23399 5.12703,5.33841 4.8712,5.42383 4.60376,5.49028 4.32472,5.53773 4.03404,5.56621 3.73174,5.5757 Z M -30.9524,-1 l 0.0136,-0.28468 0.1832,-1.27964 0.3047,-1.2695 0.4248,-1.25436 0.5434,-1.2343 0.6596,-1.20933 0.7735,-1.17963 0.8841,-1.14523 0.9913,-1.10633 1.0947,-1.0631 1.1936,-1.0156 1.2879,-0.9641 1.3771,-0.9089 1.4608,-0.85 1.5388,-0.7878 1.6107,-0.7224 1.6762,-0.6543 1.7352,-0.5836 1.7874,-0.5104 0.8332,-0.198 -1.2244,0.5427 -1.3247,0.6817 -1.273,0.7526 -1.2162,0.8207 -1.1545,0.8855 -1.0883,0.9469 -1.0179,1.0044 -0.9433,1.0581 -0.8651,1.1075 -0.7835,1.1525 -0.6988,1.19311 -0.6112,1.22892 -0.5214,1.25988 -0.4294,1.28588 -0.3357,1.30679 -0.2408,1.32256 -0.1448,1.33308 L -24.4639,-1 Z m 55.4163,0 -0.0123,-0.33838 -0.1448,-1.33308 -0.2408,-1.32256 -0.3357,-1.30679 -0.4294,-1.28588 -0.5214,-1.25988 -0.6112,-1.22892 -0.6988,-1.19311 -0.7835,-1.1525 -0.8651,-1.1075 -0.9433,-1.0581 -1.0179,-1.0044 -1.0883,-0.9469 -1.1545,-0.8855 -1.2162,-0.8207 -1.273,-0.7526 -1.3247,-0.6817 -1.2244,-0.5427 0.8332,0.198 1.7874,0.5104 1.7352,0.5836 1.6762,0.6543 1.6107,0.7224 1.5388,0.7878 1.4608,0.85 1.3771,0.9089 1.2879,0.9641 1.1936,1.0156 1.0947,1.0631 0.9913,1.10633 0.8841,1.14523 0.7735,1.17963 0.6596,1.20933 0.5434,1.2343 0.4248,1.25436 0.3047,1.2695 0.1832,1.27964 L 30.9524,-1 Z M 21.4695,10.2686 22.1683,9.07549 22.7795,7.84657 23.3009,6.58669 23.7303,5.30081 24.066,3.99402 24.3068,2.67146 24.4516,1.33838 24.4639,1 h 6.4885 L 30.9388,1.28468 30.7556,2.56432 30.4509,3.83382 30.0261,5.08818 29.4827,6.32248 28.8231,7.53181 28.0496,8.71144 27.6069,9.2849 27.5,9.26796 27.191,9.31689 27.1082,9.35907 27,9.34193 26.691,9.39087 26.5961,9.43921 26.5,9.42398 26.191,9.47293 26.0846,9.52713 26,9.51372 25.691,9.56267 25.5738,9.62238 25.5,9.61069 25.191,9.65964 25.0636,9.72452 25,9.71443 24.691,9.76338 24.5543,9.83302 24.5,9.82443 24.191,9.87338 24.0457,9.9474 24,9.94017 23.691,9.98911 23.5379,10.0671 23.5,10.0611 23.191,10.11 23.0311,10.1915 23,10.1865 22.691,10.2355 22.5252,10.3199 22.5,10.316 22.191,10.3649 22.0202,10.4519 22,10.4487 21.691,10.4977 21.5162,10.5867 21.5,10.5842 21.2254,10.6277 Z M -26.1742,10.963 -27.1655,9.85667 -28.0496,8.71144 -28.8231,7.53181 -29.4827,6.32248 -30.0261,5.08818 -30.4509,3.83382 -30.7556,2.56432 -30.9388,1.28468 -30.9524,1 h 6.4885 l 0.0123,0.33838 0.1448,1.33308 0.2408,1.32256 0.3357,1.30679 0.4294,1.28588 0.5214,1.25988 0.6112,1.22892 0.585,0.99881 -0.2257,0.0357 -0.1599,0.0815 -0.0311,-0.005 -0.309,0.049 -0.1658,0.0844 -0.0252,-0.0039 -0.309,0.0489 -0.1708,0.087 -0.0202,-0.0032 -0.309,0.049 -0.1748,0.089 -0.0162,-0.0025 -0.309,0.0489 -0.1779,0.0906 -0.0131,-0.002 -0.309,0.0489 -0.1799,0.0916 -0.0111,-0.0017 -0.309,0.0489 -0.1809,0.0922 L -25,11 l -0.309,0.049 -0.1809,0.0921 -0.0101,-0.0016 -0.309,0.049 -0.0872,0.0444 z m 24.2277,9.4566 -1.93883,-0.1209 -1.92348,-0.2011 -1.90057,-0.2804 -1.87013,-0.3586 -1.83229,-0.4354 -1.7874,-0.5104 -1.7352,-0.5836 -1.6762,-0.6543 -1.6107,-0.7224 -1.5388,-0.7878 -1.4608,-0.85 -1.3771,-0.9089 -1.2879,-0.9641 -0.2835,-0.2412 0.1583,-0.0806 0.0111,0.0017 0.309,-0.0489 0.1779,-0.0906 0.0131,0.0021 0.309,-0.049 0.1748,-0.089 0.0162,0.0025 0.309,-0.0489 0.1708,-0.0871 0.0202,0.0032 0.309,-0.0489 0.1658,-0.0845 0.0252,0.004 0.309,-0.0489 0.1599,-0.0815 0.0311,0.005 0.309,-0.049 0.153,-0.0779 0.038,0.006 0.309,-0.049 0.1453,-0.074 0.0457,0.0072 0.309,-0.0489 0.1367,-0.0697 0.0543,0.0086 0.309,-0.0489 0.1273,-0.0649 0.0637,0.0101 0.309,-0.0489 0.1172,-0.0598 0.0738,0.0117 0.309,-0.0489 0.1064,-0.0542 0.0846,0.0134 0.309,-0.049 0.0949,-0.0483 0.0961,0.0152 0.309,-0.0489 0.0828,-0.0422 0.1082,0.0172 0.309,-0.049 0.0701,-0.0357 0.1209,0.0191 0.309,-0.0489 0.057,-0.0291 0.134,0.0212 0.309,-0.0489 0.0435,-0.0222 0.1475,0.0234 0.309,-0.0489 0.0296,-0.0151 0.1614,0.0255 0.309,-0.0489 0.0155,-0.0079 0.1755,0.0278 0.309,-0.049 0.0011,-5e-4 0.1899,0.0301 0.2807,-0.0445 0.2193,0.0347 0.25,-0.0396 0.25,0.0396 0.2193,-0.0347 0.2807,0.0445 0.1899,-0.0301 0.0011,5e-4 0.309,0.049 0.1755,-0.0278 0.0155,0.0079 0.309,0.0489 0.1614,-0.0255 0.0296,0.0151 0.309,0.0489 0.1475,-0.0234 0.0435,0.0222 0.309,0.0489 0.134,-0.0212 0.057,0.0291 0.309,0.0489 0.1208,-0.0191 0.0702,0.0357 0.309,0.049 0.10822,-0.0172 0.08276,0.0422 0.30902,0.0489 0.09612,-0.0152 0.09486,0.0483 0.30902,0.049 0.08463,-0.0134 0.10635,0.0542 0.30902,0.0489 0.07378,-0.0117 0.1172,0.0598 0.30902,0.0489 0.06364,-0.0101 0.12734,0.0649 0.30902,0.0489 0.05426,-0.0086 0.13672,0.0697 0.30902,0.0489 0.04568,-0.0072 0.1453,0.074 0.30902,0.049 0.03796,-0.006 0.15302,0.0779 0.30902,0.049 0.03111,-0.005 0.15987,0.0815 0.30902,0.0489 0.02518,-0.004 0.1658,0.0845 0.30902,0.0489 0.02017,-0.0031 0.17081,0.087 0.30902,0.0489 0.01616,-0.0025 0.17482,0.089 0.30902,0.049 0.01312,-0.0021 0.17786,0.0906 0.30902,0.0489 0.01111,-0.0017 0.17987,0.0916 L -3,12.8605 -2.98991,12.8589 -2.80902,12.951 -2.5,13 -2.4899,12.9984 -2.30902,13.0906 -2,13.1395 l 0.01111,-0.0017 0.17987,0.0916 0.30902,0.0489 0.01312,-0.002 0.17786,0.0906 0.30902,0.0489 0.016159,-0.0025 0.17482,0.089 0.309021,0.049 0.020187,-0.0032 0.170792,0.087 L 0,13.684 0.025177,13.6801 0.190979,13.7645 0.5,13.8135 0.531097,13.8085 0.690979,13.89 1,13.9389 1.03795,13.9329 1.19098,14.0109 1.5,14.0598 1.5457,14.0526 1.69098,14.1266 2,14.1756 2.05428,14.167 2.19098,14.2366 2.5,14.2856 2.56364,14.2755 2.69098,14.3404 3,14.3893 3.07378,14.3776 3.19098,14.4373 3.5,14.4863 3.58463,14.4729 3.69098,14.5271 4,14.576 4.09612,14.5608 4.19098,14.6091 4.5,14.6581 4.6082,14.6409 4.69098,14.6831 5,14.732 5.12083,14.7129 5.19098,14.7486 5.5,14.7976 5.63396,14.7764 5.69098,14.8054 6,14.8544 6.14748,14.831 6.19098,14.8532 6.5,14.9021 6.66135,14.8765 6.69098,14.8916 7,14.9406 7.17551,14.9128 7.19098,14.9207 7.5,14.9696 7.68988,14.9395 7.69098,14.9401 8,14.989 8.21925,14.9543 8.5,14.9988 8.75,14.9592 9,14.9988 9.28073,14.9543 9.5,14.989 9.80901,14.9401 9.8101,14.9395 10,14.9696 l 0.309,-0.0489 0.0155,-0.0079 0.1755,0.0278 0.309,-0.049 0.0296,-0.0151 0.1614,0.0256 0.309,-0.0489 0.0435,-0.0222 0.1475,0.0234 0.309,-0.049 0.057,-0.029 0.134,0.0212 0.309,-0.049 0.0702,-0.0357 0.1208,0.0191 0.309,-0.0489 0.0828,-0.0422 0.1082,0.0172 0.309,-0.049 0.0949,-0.0483 0.0961,0.0152 0.309,-0.0489 0.1064,-0.0542 0.0846,0.0134 0.309,-0.049 0.1172,-0.0597 0.0738,0.0117 0.309,-0.0489 0.1273,-0.0649 0.0637,0.0101 0.309,-0.049 0.1367,-0.0696 0.0543,0.0086 0.309,-0.049 0.1453,-0.074 0.0457,0.0072 0.309,-0.0489 0.153,-0.078 0.038,0.006 0.309,-0.0489 0.1599,-0.0815 0.0311,0.005 0.309,-0.049 0.1658,-0.0845 0.0252,0.004 0.309,-0.0489 0.1708,-0.087 0.0202,0.0032 0.309,-0.049 0.1748,-0.089 0.0162,0.0025 0.309,-0.0489 0.1779,-0.0906 0.0131,0.002 0.309,-0.0489 0.1799,-0.0916 0.0111,0.0017 0.309,-0.0489 0.1809,-0.0922 L 20,13 l 0.309,-0.049 0.1809,-0.0921 0.0101,0.0016 0.309,-0.049 0.1799,-0.0916 0.0111,0.0017 0.309,-0.0489 0.1779,-0.0906 0.0131,0.0021 0.309,-0.049 0.1748,-0.089 0.0162,0.0025 0.309,-0.0489 0.1708,-0.0871 0.0202,0.0032 0.309,-0.0489 0.1658,-0.0845 0.0252,0.004 0.309,-0.0489 0.1599,-0.0815 0.0311,0.005 0.309,-0.049 0.153,-0.0779 0.038,0.006 0.309,-0.049 0.1453,-0.074 0.0457,0.0072 0.309,-0.0489 0.1367,-0.0697 0.0543,0.0086 0.309,-0.0489 0.1273,-0.0649 0.0637,0.0101 0.0087,-0.0014 -0.4292,0.4168 -1.1936,1.0156 -1.2879,0.9641 -1.3771,0.9089 -1.4608,0.85 -1.5388,0.7878 -1.6107,0.7224 -1.6762,0.6543 -1.7352,0.5836 -1.7874,0.5104 L 9.57951,19.4586 7.70938,19.8172 5.80881,20.0976 3.88533,20.2987 1.9465,20.4196 0,20.46 Z"
     stroke="#000000"
     fill="#d3d3d3"
     stroke-width="0.5"
     id="path1"
     style="display:inline" />
  <metadata
     id="metadata2">
    <rdf:RDF>
      <cc:Work
         rdf:about="">
        <dc:title>Logo Divecenter - Neva Divers (small)</dc:title>
      </cc:Work>
    </rdf:RDF>
  </metadata>
</svg>
